<mxfile host="app.diagrams.net" agent="Mozilla/5.0 (Windows NT 10.0; Win64; x64) AppleWebKit/537.36 (KHTML, like Gecko) Chrome/128.0.0.0 YaBrowser/24.10.0.0 Safari/537.36" version="25.0.1">
  <diagram name="Page-1" id="58cdce13-f638-feb5-8d6f-7d28b1aa9fa0">
    <mxGraphModel dx="1259" dy="1532" grid="0" gridSize="10" guides="1" tooltips="1" connect="1" arrows="1" fold="1" page="1" pageScale="1" pageWidth="1100" pageHeight="850" background="none" math="0" shadow="0">
      <root>
        <mxCell id="0" />
        <mxCell id="1" parent="0" />
        <mxCell id="2a3bc250acf0617d-8" value="&lt;font face=&quot;Helvetica&quot; style=&quot;font-size: 8px;&quot;&gt;Запуск симуляции&lt;/font&gt;" style="shape=umlFrame;whiteSpace=wrap;html=1;rounded=1;shadow=0;comic=0;labelBackgroundColor=none;strokeWidth=1;fontFamily=Verdana;fontSize=12;align=left;width=60;height=25;strokeColor=#000000;" parent="1" vertex="1">
          <mxGeometry x="70" y="140" width="1000" height="600" as="geometry" />
        </mxCell>
        <mxCell id="382b91b5511bd0f7-1" value="" style="ellipse;html=1;shape=startState;fillColor=#000000;strokeColor=#000000;rounded=1;shadow=0;comic=0;labelBackgroundColor=none;fontFamily=Verdana;fontSize=12;fontColor=#000000;align=center;direction=south;" parent="1" vertex="1">
          <mxGeometry x="557.5" y="135" width="30" height="30" as="geometry" />
        </mxCell>
        <mxCell id="rrwGV6cK5PJjWv3YBZSC-44" style="edgeStyle=orthogonalEdgeStyle;shape=connector;rounded=1;orthogonalLoop=1;jettySize=auto;html=1;exitX=0.5;exitY=1;exitDx=0;exitDy=0;strokeColor=#000000;align=left;verticalAlign=middle;fontFamily=Verdana;fontSize=12;fontColor=#000000;labelBackgroundColor=none;endArrow=open;endSize=8;" edge="1" parent="1" source="2a3bc250acf0617d-7" target="rrwGV6cK5PJjWv3YBZSC-43">
          <mxGeometry relative="1" as="geometry" />
        </mxCell>
        <mxCell id="2a3bc250acf0617d-7" value="Настройка симуляции" style="swimlane;whiteSpace=wrap;html=1;rounded=1;shadow=0;comic=0;labelBackgroundColor=none;strokeWidth=1;fontFamily=Verdana;fontSize=12;align=center;strokeColor=#000000;" parent="1" vertex="1">
          <mxGeometry x="95" y="200" width="955" height="480" as="geometry" />
        </mxCell>
        <mxCell id="382b91b5511bd0f7-8" value="Выбор локации" style="rounded=1;whiteSpace=wrap;html=1;arcSize=24;fillColor=#FFFBF5;strokeColor=#000000;shadow=0;comic=0;labelBackgroundColor=none;fontFamily=Verdana;fontSize=12;fontColor=#000000;align=center;" parent="2a3bc250acf0617d-7" vertex="1">
          <mxGeometry x="315" y="65" width="120" height="60" as="geometry" />
        </mxCell>
        <mxCell id="24f968d109e7d6b4-3" value="" style="ellipse;html=1;shape=endState;fillColor=#000000;strokeColor=#000000;rounded=1;shadow=0;comic=0;labelBackgroundColor=none;fontFamily=Verdana;fontSize=12;fontColor=#000000;align=center;" parent="2a3bc250acf0617d-7" vertex="1">
          <mxGeometry x="915" y="120" width="30" height="30" as="geometry" />
        </mxCell>
        <mxCell id="3cde6dad864a17aa-9" style="edgeStyle=elbowEdgeStyle;html=1;labelBackgroundColor=none;endArrow=open;endSize=8;strokeColor=#000000;fontFamily=Verdana;fontSize=12;align=left;" parent="2a3bc250acf0617d-7" source="rrwGV6cK5PJjWv3YBZSC-4" target="382b91b5511bd0f7-8" edge="1">
          <mxGeometry relative="1" as="geometry" />
        </mxCell>
        <mxCell id="2a3bc250acf0617d-3" value="" style="ellipse;html=1;shape=startState;fillColor=#000000;strokeColor=#000000;rounded=1;shadow=0;comic=0;labelBackgroundColor=none;fontFamily=Verdana;fontSize=12;fontColor=#000000;align=center;direction=south;" parent="2a3bc250acf0617d-7" vertex="1">
          <mxGeometry x="85" y="120" width="30" height="30" as="geometry" />
        </mxCell>
        <mxCell id="rrwGV6cK5PJjWv3YBZSC-11" style="edgeStyle=orthogonalEdgeStyle;shape=connector;rounded=1;orthogonalLoop=1;jettySize=auto;html=1;entryX=0;entryY=0.5;entryDx=0;entryDy=0;strokeColor=#000000;align=left;verticalAlign=middle;fontFamily=Verdana;fontSize=12;fontColor=#000000;labelBackgroundColor=none;endArrow=open;endSize=8;" edge="1" parent="2a3bc250acf0617d-7" source="rrwGV6cK5PJjWv3YBZSC-2" target="rrwGV6cK5PJjWv3YBZSC-10">
          <mxGeometry relative="1" as="geometry" />
        </mxCell>
        <mxCell id="rrwGV6cK5PJjWv3YBZSC-12" value="Параметры &lt;br&gt;&lt;br&gt;симуляции" style="edgeLabel;html=1;align=center;verticalAlign=middle;resizable=0;points=[];rounded=1;shadow=0;comic=0;strokeColor=#000000;arcSize=24;fontFamily=Verdana;fontSize=12;fontColor=#000000;labelBackgroundColor=none;fillColor=#FFFBF5;" vertex="1" connectable="0" parent="rrwGV6cK5PJjWv3YBZSC-11">
          <mxGeometry x="-0.4366" y="-1" relative="1" as="geometry">
            <mxPoint x="18" y="-1" as="offset" />
          </mxGeometry>
        </mxCell>
        <mxCell id="rrwGV6cK5PJjWv3YBZSC-2" value="" style="html=1;points=[];perimeter=orthogonalPerimeter;fillColor=strokeColor;fontFamily=Verdana;fontSize=12;fontColor=default;labelBackgroundColor=none;" vertex="1" parent="2a3bc250acf0617d-7">
          <mxGeometry x="495" y="45" width="5" height="180" as="geometry" />
        </mxCell>
        <mxCell id="rrwGV6cK5PJjWv3YBZSC-4" value="" style="html=1;points=[];perimeter=orthogonalPerimeter;fillColor=strokeColor;fontFamily=Verdana;fontSize=12;fontColor=default;labelBackgroundColor=none;" vertex="1" parent="2a3bc250acf0617d-7">
          <mxGeometry x="235" y="45" width="5" height="180" as="geometry" />
        </mxCell>
        <mxCell id="rrwGV6cK5PJjWv3YBZSC-5" value="" style="edgeStyle=elbowEdgeStyle;html=1;labelBackgroundColor=none;endArrow=open;endSize=8;strokeColor=#000000;fontFamily=Verdana;fontSize=12;align=left;" edge="1" parent="2a3bc250acf0617d-7" source="2a3bc250acf0617d-3">
          <mxGeometry relative="1" as="geometry">
            <mxPoint x="200" y="295" as="sourcePoint" />
            <mxPoint x="235" y="135" as="targetPoint" />
          </mxGeometry>
        </mxCell>
        <mxCell id="rrwGV6cK5PJjWv3YBZSC-8" style="edgeStyle=orthogonalEdgeStyle;shape=connector;rounded=1;orthogonalLoop=1;jettySize=auto;html=1;entryX=0.414;entryY=0.28;entryDx=0;entryDy=0;entryPerimeter=0;strokeColor=#000000;align=left;verticalAlign=middle;fontFamily=Verdana;fontSize=12;fontColor=#000000;labelBackgroundColor=none;endArrow=open;endSize=8;" edge="1" parent="2a3bc250acf0617d-7" source="382b91b5511bd0f7-8" target="rrwGV6cK5PJjWv3YBZSC-2">
          <mxGeometry relative="1" as="geometry" />
        </mxCell>
        <mxCell id="rrwGV6cK5PJjWv3YBZSC-14" style="edgeStyle=orthogonalEdgeStyle;shape=connector;rounded=1;orthogonalLoop=1;jettySize=auto;html=1;exitX=1;exitY=0.5;exitDx=0;exitDy=0;entryX=0;entryY=0.5;entryDx=0;entryDy=0;strokeColor=#000000;align=left;verticalAlign=middle;fontFamily=Verdana;fontSize=12;fontColor=#000000;labelBackgroundColor=none;endArrow=open;endSize=8;" edge="1" parent="2a3bc250acf0617d-7" source="rrwGV6cK5PJjWv3YBZSC-10" target="24f968d109e7d6b4-3">
          <mxGeometry relative="1" as="geometry" />
        </mxCell>
        <mxCell id="rrwGV6cK5PJjWv3YBZSC-15" value="[Все параметры указаны]" style="edgeLabel;html=1;align=center;verticalAlign=middle;resizable=0;points=[];rounded=1;shadow=0;comic=0;strokeColor=#000000;arcSize=24;fontFamily=Verdana;fontSize=12;fontColor=#000000;labelBackgroundColor=none;fillColor=#FFFBF5;" vertex="1" connectable="0" parent="rrwGV6cK5PJjWv3YBZSC-14">
          <mxGeometry x="0.0404" y="-1" relative="1" as="geometry">
            <mxPoint x="-11" y="-16" as="offset" />
          </mxGeometry>
        </mxCell>
        <mxCell id="rrwGV6cK5PJjWv3YBZSC-10" value="" style="rhombus;rounded=1;shadow=0;comic=0;strokeColor=#000000;align=center;verticalAlign=middle;arcSize=24;fontFamily=Verdana;fontSize=12;fontColor=#000000;labelBackgroundColor=none;fillColor=#FFFBF5;" vertex="1" parent="2a3bc250acf0617d-7">
          <mxGeometry x="595" y="120" width="35" height="30" as="geometry" />
        </mxCell>
        <mxCell id="rrwGV6cK5PJjWv3YBZSC-17" value="" style="html=1;points=[];perimeter=orthogonalPerimeter;fillColor=strokeColor;fontFamily=Verdana;fontSize=12;fontColor=default;labelBackgroundColor=none;rotation=90;" vertex="1" parent="2a3bc250acf0617d-7">
          <mxGeometry x="610" y="143" width="5" height="163" as="geometry" />
        </mxCell>
        <mxCell id="rrwGV6cK5PJjWv3YBZSC-19" style="edgeStyle=orthogonalEdgeStyle;shape=connector;rounded=1;orthogonalLoop=1;jettySize=auto;html=1;exitX=0.5;exitY=1;exitDx=0;exitDy=0;entryX=0.141;entryY=0.501;entryDx=0;entryDy=0;entryPerimeter=0;strokeColor=#000000;align=left;verticalAlign=middle;fontFamily=Verdana;fontSize=12;fontColor=#000000;labelBackgroundColor=none;endArrow=open;endSize=8;" edge="1" parent="2a3bc250acf0617d-7" source="rrwGV6cK5PJjWv3YBZSC-10" target="rrwGV6cK5PJjWv3YBZSC-17">
          <mxGeometry relative="1" as="geometry" />
        </mxCell>
        <mxCell id="rrwGV6cK5PJjWv3YBZSC-29" value="Установка значение по умолчанию для локации" style="rounded=1;whiteSpace=wrap;html=1;arcSize=24;fillColor=#FFFBF5;strokeColor=#000000;shadow=0;comic=0;labelBackgroundColor=none;fontFamily=Verdana;fontSize=12;fontColor=#000000;align=center;" vertex="1" parent="2a3bc250acf0617d-7">
          <mxGeometry x="625" y="306" width="110" height="60" as="geometry" />
        </mxCell>
        <mxCell id="rrwGV6cK5PJjWv3YBZSC-35" value="[else]" style="edgeLabel;html=1;align=center;verticalAlign=middle;resizable=0;points=[];rounded=1;shadow=0;comic=0;strokeColor=#000000;arcSize=24;fontFamily=Verdana;fontSize=12;fontColor=#000000;labelBackgroundColor=none;fillColor=#FFFBF5;" vertex="1" connectable="0" parent="2a3bc250acf0617d-7">
          <mxGeometry x="497.4987977493986" y="289.9999558695037" as="geometry" />
        </mxCell>
        <mxCell id="rrwGV6cK5PJjWv3YBZSC-33" value="" style="rhombus;rounded=1;shadow=0;comic=0;strokeColor=#000000;align=center;verticalAlign=middle;arcSize=24;fontFamily=Verdana;fontSize=12;fontColor=#000000;labelBackgroundColor=none;fillColor=#FFFBF5;" vertex="1" parent="2a3bc250acf0617d-7">
          <mxGeometry x="505" y="260" width="35" height="30" as="geometry" />
        </mxCell>
        <mxCell id="rrwGV6cK5PJjWv3YBZSC-36" style="edgeStyle=orthogonalEdgeStyle;shape=connector;rounded=1;orthogonalLoop=1;jettySize=auto;html=1;entryX=0.483;entryY=0.083;entryDx=0;entryDy=0;entryPerimeter=0;strokeColor=#000000;align=left;verticalAlign=middle;fontFamily=Verdana;fontSize=12;fontColor=#000000;labelBackgroundColor=none;endArrow=open;endSize=8;" edge="1" parent="2a3bc250acf0617d-7" source="rrwGV6cK5PJjWv3YBZSC-17" target="rrwGV6cK5PJjWv3YBZSC-33">
          <mxGeometry relative="1" as="geometry" />
        </mxCell>
        <mxCell id="2a3bc250acf0617d-9" style="edgeStyle=orthogonalEdgeStyle;html=1;labelBackgroundColor=none;endArrow=open;endSize=8;strokeColor=#000000;fontFamily=Verdana;fontSize=12;align=left;" parent="1" source="382b91b5511bd0f7-1" target="2a3bc250acf0617d-7" edge="1">
          <mxGeometry relative="1" as="geometry">
            <mxPoint x="240" y="150" as="targetPoint" />
            <Array as="points">
              <mxPoint x="573" y="170" />
              <mxPoint x="573" y="170" />
            </Array>
          </mxGeometry>
        </mxCell>
        <mxCell id="rrwGV6cK5PJjWv3YBZSC-1" value="" style="shape=image;verticalLabelPosition=bottom;labelBackgroundColor=default;verticalAlign=top;aspect=fixed;imageAspect=0;image=data:image/png,iVBORw0KGgoAAAANSUhEUgAAAsYAAAFYCAYAAABQ7DobAAAAAXNSR0IArs4c6QAAAARnQU1BAACxjwv8YQUAAAAJcEhZcwAADsMAAA7DAcdvqGQAAPBDSURBVHhe7J0FYFbVG8afdTcM2Bjd3S0lSEuoIGIAKiJhB4rg3y4MEBFEUMCgQbq7u2NjbLANWHfH/d/n7Ls4YEjDvu396eHbd+/9+t73POc97/seC00HgiAIgiAIglDEsTTdCoIgCIIgCEKRRoSxIAiCIAiCIOiIMBYEQRAEQRAEHRHGgiAIgiAIgqAjwlgQBEEQBEEQdEQYC4IgCIIgCIKOCGNBEARBEARB0BFhLAiCIAiCIAg6IowFQRAEQRAEQUeEsSAIgiAIgiDoiDAWBEEQBEEQBB0RxoIgCIIgCIKgI8JYEARBEARBEHREGAuCIAiCIAiCjghjQRAEQRAEQdARYSwIgiAIgiAIOiKMBUEQBEEQBEFHhLEgCIIgCIIg6IgwFgRBEARBEAQdEcaCIAiCIAiCoCPCWBAEQRAEQRB0RBgLgiAIgiAIgo4IY0EQBEEQBEHQEWEsCIIgCIIgCDoijAVBEARBEARBR4SxIAiCIAiCIOiIMBYEQRAEQRAEHRHGgiAIgiAIgqAjwlgQBEEQBEEQdEQYC4IgCIIgCIKOCGNBEARBEARB0LHQdEx/C4IgFCpycnKQmZmJrKysK1p2dvYVjcflbTSLedvVWFhYXG6WlpbXNCsrq8vN2tr6mmZjY2N6JkEQCjq0AdezI8Yt7UZeW8LHXG1LruZqO5LXnhj2g3/TZlxtS2hDeMvHCHcXEcaCIJgdec1WfiaMHVJ8fDxiYmIQGxurGu+zJSQkICkpSbXk5GSkpqaqlpaWhvT0dGRkZFzuBA3hnPc1jI7L6KBsbW1hZ2enmr29PRwdHVVzcnKCs7MzXFxc4OrqCjc3N7i7u8PDwwNeXl7qbx53NXk7Oun0BOHe8l+2hPcTExOV/TBsSVxcnLIj3M5m2JGUlJR87QhbfnaE13bewTPtiGFLHBwcVMtrR9hoQ4xGO+Lp6aluue9qWyF25PYRYSwIglnBDub8+fO4cOHC5Xbp0iXVIiIiEBkZiejoaNVZscMxOhV2MGyGcDWELJvRKRleGDaj02KnkrdjMTxCbIZ4ZufHjtBo7BjZQbKjZIfJxvdjCHLep7imYPb29r7cSpQogVKlSqnm6+uL0qVLo3jx4qZXFgThbhIaGoqwsDBlQy5evHjZjoSHhys7wsbrldc/bQcHuVfbEcOGGIPjvHaEt7QhxmD6ajtC+WWI5hvZETZDgOe1I3wevq9ixYop+2HYkZIlS8LHx0c12hHeCjeHCGNBEAocNPjsqIzOih0VG/+mt4YY4jWviM3brteBGZ2YIYavFsTG813dmfGW5tJo7JCu7tQolPN2buzYjM4tbwfHTo2dHLflfZ68Xmr+zX18PxTH7OyMDo+N4pm3eTtbQRD+hdeiMXCmLTHsCBsHz7yOea0b1zxvec3n/Zu2w7AlhifXsCG8vZEdYeM1yuci+dmRvDYgPzvCZtiQvHaENoSNf/OxfB7DhuS1JWx8fc5UGeLZsCGGHeF7F3IRYSwIwgODBt8IcTCmJjlVSU8Opy7zhkLwbwpKGnjDmLMZhp7ikV4TNk4xsuMq6DCsgx10VFTUZQ8Vvd7GIICdOfexA6Z3Oe/0KW/5mekJoscob8gGmyAUFSj8DDvCa4p2hLf0BvP6udqOcD8fY9iQ69kRCkkK44IOxTHtCFt+dsRwLlCk0zYwjCuvHeHn5AwV9xl2hI3HGYK+KCHCWBCE+4LhFeEtzQ4FcHBwMI4fP45Tp07B398fJ0+eREhIiDLKFStWROXKldVthQoVUL58eXVLUVyUoIeIoSNnz55FUFCQuj1z5gxOnz6tvGH0QFWpUgVVq1ZVrXr16qhRo4bq7OndMrxVhudKEMyZvB5WQpFLm3HixAllP2hHeG0EBASo879s2bLqurjajvj5+RUp0UcPMh0Ohg0x7Ai/L9oXeqj53VSrVk19X7ytWbOmCsOgt5y2gzaE31lh/95EGAuCcM+hmWFntW/fPhw8eBCHDh1SnRg7OIo4o8NiK1eunPKC0ktqTElyms+YpiyKHgyKAHZceadZuY1eMQ4u2IwOLzAwUHV4HEDUqVMH9evXV61Ro0bKCyYI5sy5c+cu2xE2CmJeBxRyFL+GHWGjF5SizrAheW1JUbUjhv3Ie8vQNYrjvHaEjTabHuTatWtfYUc4qCjMiDAWBOGuw6k9GlV6g9lxHT16VBlgTt0Z0/4UaUaiiDFtyVseI9w8DEcxwjGMqVSGYPCWU8sMP6FwYOP3TbFMr3KtWrWUeBCEggpthmFHOJCmHeE5zel/w47w77x2xLAlbEVR/N4uFM1GOAZtCRvtCEMyOLtHO0LvPL9/JjPntSOcsaI3ubAgwlgQhDuG4oxGlI3xbPRacprfEGo0qPTe0JjmnaqTjuvewVhKhqhQWPD2yJEjyjNE4WDEUZYpU0Z56Bl2QS89twnCg4IzSEZsPW/pvWSYBO0IBZohiuvWrXuFHWHIhHBvoM3goIR2hI12hKKZv4NhRxhuwUG2kczHgYo5C2URxoIg3DI0G0a2NL069OTs2bNHtb1796pj6E1o1aoVmjRpgubNm6spTeHBwqnSHTt2YPfu3di2bZtKyKGnjb9P48aN1TQpxTIHLExe5NSzINxLOJ3Pyi0UxYwL3rVrlwqV2LlzpxJlFFwPPfSQsiMtWrSQwVsBgIMU2hHa+61btyq7wryQpk2bqt+pYcOGl73ItCMMXTEnRBgLgnDL0IPDjmvNmjVYu3atShCrVKmS6rgosOgZpkeBAsuI6RMePBQfFCJsNP3s0ChCOJjZvn27mjJlvHeXLl3QsWNHFVso4li4VzDkiucebciqVavU7BLjV2lHKLDoGeZMBhO/DDsiCaQPHtqOvHaE3v39+/er35IDbs4WchaqU6dOeOSRR5RQNofqHgYijAVBuCk4jblx40blIWDcMGPS6M1hx8XqEcz+pveRBpExaIJ5QDFilHNi0h7DYDiVTdHM35YChR47eoME4U6hmNq0aZOyI4cPH1ZhVgzn4RQ8B9ccmBl2hOXCBPOApfAMO8IQGHr/aUf4N2PBORtFO9KmTZsCH2YhwlgQhOvChC2KJXZgLOtDEUVvMWP62InRO0xvAAWUYP4wLIaDHsP7wylTdmKMGWSIBcNj2ChkClOyjXBv4QIUrHLAkCueXzyvaEt4DnFAbdgRVpUQCgcUxoYdYcULYsQjM8yCpeD4exfEevMijAVBuAJ6dBgawdE/yyHRs7N69Wq17dFHH1XT7O3atTOrqTHh9qDXeOXKlSpkhjGFzEB/+OGH1VQ3E5+4IIBRK1kQ8sIZJQpiJoFyYM1QHYZMsNxa9+7d0blzZ3UuMYFLKNzQmUI7wn6EswWcDWCIBXNQWK6TgpnlOQvKYFuEsSAIV8Cs48WLF2P58uWqE2MH1qtXLzWVTgPGuGE2EUOFH8Yks4tgchQ9fuvXr8eCBQvUOcLB0RNPPKHEDae+BSEvPF+WLVumbMmxY8fUYKpPnz5o3bq1EkaMFxY7UjSgDaEt4YwUq4zQ2cLzgqF5nC3gedG1a9cCUz5ShLEgCMqzw5H8kiVL1FQnE+cYW9qsWTMV+8dQCWYdC0UXdmycAufqWQyvYUY6p0rp6aHY4eCJ06NC0YbJVxQ9XMSH4pexpRTFTKqjLWF9YaFoQw+ysQofQy2YAMwZSVbHoR1h38NB04NChLEgFGEY58dwCZbvYq1bll9jLGmDBg1UZyYLQAjXg2W1OD3OGqdMzOTAid4fDqY4PWpra2s6UijsMBeBswi0I7xltQnOIrCqBO0IQ3AEIT8Yd047YtRH5kCb5w1FMqsbPYhEbhHGglAEYcfFhIgtW7ao+FGW12EixFNPPaViiGV6U7hZ6EWeM2cOFi5cqOJKuWwswyuYTMWkPXoNhcIJvXysPMD4c9oRJuhSEPft21flI0h1GuFm4bk0f/58/P3336rCBRduYclIhvBxcaj7maQnwlgQihicxlqxYgVmzZqlVjLi1NVzzz2nvMQ0ByKKhduB5w7F8aRJk5QXmQlWL730kvL6iDgufLDMGsMmpk6dqkJqmEj1/PPPo3379qYjBOHWMPofxh5PmTJF5TTwfHrhhRfU+XW/VjgUYSwIRQh69saPH6+mPnv27Km8Ooz9Y1KdTH0LdwrFEmcfGF/KLHTOSDBJb/jw4WrgJRQO1q1bhwkTJqikum7duqF3796qBBdzE6RajXCnMOeFMxEM72MS+IYNG1R50FdffRUdOnQwHXXvEGEsCIUcVhQ4cOCA6syYWMfM4Hr16ilhLLF/wr2A59zmzZuxaNEihIWFqZJcjD1mhRMOxATzg1Lh+PHjquQWy68lJSWphX0448R4UEG4FzBM559//lGzUMxjYDIn7QhDLe4VIowFoRDD5DqWxuGom8kN7MAGDhwo3jvhvsBYdoZXsEoBE2sYe8z6pUyuuV/TosKdwxkmViFhCBbtCauPDBgwQMWAGlBKSBiWcC+gM4c1sBl/zDKAjDumOGb1CtZSv9uIMBaEQkpKSooKm5g5c6YqkfTee++pteutra1NRwjC/YEJejwPP/30U+Xx4ZRojx49THuFgs60adPwyy+/qOojH3zwgZpt4jK/gnA/YYjF7Nmz8dFHHynv8euvv45nnnnmrvdpIowFoZDBS5rJCxTF9NgZq9VxKU7x0gkPCiZ9ctbir7/+UkmfFMijRo1SlSuEgglLaX3xxRcqbvyhhx5S1Sa4HLiIYuFBwTwGhlVwJorJn1yB86233lJL1d8tRBgLgpnDS9iYwqRn7vfff1fTTkyoY2UATl9zpSlBKAiwbvaqVauwc+dONQ1Kjw8T9KRyRcGBoROMD6d3joNpJjxxtoklHQWhIBAQEKD6OVau4FLSnMVgEujdSP60+p+O6W9BEMwQQxQHBwfjjz/+UPGcFBmsBEBDIbVEhYIEVz9j0idnM9ix8bzlKldMyruftUqF/AkPD1fLfs+dO1flKAwZMkTFEzOBUhAKCgwPZK4M44+Z6EsvsrFAlZOTk+mo20OEsSAUAs6dO4dff/1V1RRt27atmv7kKmSCUBChF5KJM/RAMrSCHRtDKljlQDzHD464uDjMmDFD1aLmQh0Mx+KMEz1yglDQ4ICaddJr166tbAiT8yiYK1SocEeeYxHGgmDmsLj+999/r2o9jh49GoMGDVKjZkEoyHCmg15iVkphxQqGAHEbYwYlFv7+w5Uwv/vuO8ybN0+FtzBuk7WJpdKEUNDhLBRzFiiGOahjkh7Fsbu7u+mIW0OEsSCYGXljirmAwvTp01Wt2KFDh6pi+5LMJJgL9ESyU/Px8VHnNMsKslPjwO5elGES8odJdqw8wZJsXAWzT58+KslORLFgDvA8ZU4NE8wZRsEQLS4QQrtyO/2hCGNBMDOMzoqd2eTJkxETE6NKX9FTLKtOCeYIxTHDKJhQwxkQlhrk/TuNFRRuTFBQkBpc055w+d2XX35ZiQxBMDe48iJDKzj7wSRfimPOetyq51iEsSCYIWfOnME333yjYos57clFOwTBnKGHmNUpuNLV7t27leeYKzRKzPG9g4PqcePGqZUxKYpZ61y+b8GcYQIv7QiTelmxguc4k31vJQldhLEgmBnHjh1TxfZ37doFXr6sUyxTnkJhwNbWVi0dTY8PqyKwXm6lSpWkWsU9gN60KVOmqNJ5nG0aNmyYJNkJhQL2h1xdk+czE9I52GNoEBcFuRlEGAuCGRESEqJiAZlo98Ybb6iMcXt7e9NeQTB/GD7BuMCkpCRVaYVJNGyyYuPdg4utcODBhMfnn38evXr1uu1EJUEoiLBfpB2h3aAdYZghlzK/mUG2CGNBMBPS0tJU9Qmu9sNSVyNHjpQaxUKhhAvSeHh4qEVAGDbE2EHGHAt3DpN3WZKN1ScYf/nKK6/A19fXtFcQCg8c7JUtW1aFZp06dUqVd2Pt4xthaboVBKEAk5mZie3btysvD+s0cildSbQTCjOML/7kk0/U8tFctIaVV4Q7h8mNFMWsWTx27FiVuS8IhRVWuKEd4UIgXMmR9uRGCz6Lx1gQzIDY2Fjl2WEhc65ExcxbQSjMMD6QnRo7tCNHjqhkGi5NLNwZDMHi9DJXxmzdurXkJwiFHla9YZzx2bNnVUnCLl26/GdolniMBaGAwyQZjnQZc8lYQK5sJwhFAU59vvjiiyqrnNUqGFufnp5u2ivcComJiWqVQXreaUO4XLwgFBWeeOIJPPLIIzh06JCqlx4fH2/acy0ijAWhgMOlLn/77Tc1ym3atKny8NxoKkgQCguMo2eSKZconjBhAiIjI017hFvhxIkTKkeBISr8PiWZUShKsOJNq1at1PnPqk6MOb4eIowFoQATGhqqYosvXLiA/v37q6QkItOfQlGCy0bT28PEU4ZVMOZeuHlYhYKJjBTHXAyIHnhBKGpUrFgRAwYMUF7jvXv3qlrp+SExxoJQgJk5c6aqW9y9e3fVxMsjFEXo7WEZN9Y35qI29B5z+Vfh5lizZo2aPqanmMs9SzUboSjC/pPJ68xXoNOJdqVatWqmvf8iHmNBKIAwVCIhIQGLFi1SK/c8++yz6iIWhKKKn5+fmjWhwOPiNsLNQe/62rVr1ep2zz33nCz3LBRpOChkf8qZJ9qS/BBhLAgFEHZmjC3OyclRFSi4ao+ETwhFGXqMGVJBbzFrGzPDXLgxDKFgXDbDJ7jAgcw6CUUZnv9cXZN9anh4uBLI7GfzIsJYEAogFMb0FnPFL8ZWCoIAtZJV165d1SzKunXrTFuF/2LlypWq9B1DKGTJZ0GAWv2uY8eOcHBwwNKlS69JZhdhLAgFEK5yt3HjRrUiVcOGDU1bBaFoQ88OB4pMmmH5NuHGbN26VQniNm3amLYIgtCyZUu1oiZLQLJWel5EGAtCASMlJUWtTsVRbPXq1dXUccHm5krH3U6BuRs/RsrWFSVY15gllxgnyAoLnAqV0oX5k5GRoexIcnKymnni1LG5cVO/7G39/mJZijp169ZVy0WfPHlSJePlDaew0I2K/P6CUIBg1v2cOXNUwsyYMWPU6lQFnYRjU7Fh/SYs2WuBtJxs1Vdl6x2zi191NB3yIZ6sYgPXWwxtpGGyQCLSQ7Zj2ug/cSA1HQn6c1hkO8HSqjYee+cZtK5fHN65hwtFCC5lvGXLFrz33ntqsQpOjQpXwiWfuTDQP//8g379+mHgwIGmPeZEOMJ2b8GiX1fgsH79J2XTKtC754Icy754+YNWaF3dGZa5xuIm+ffgmI3DMXXFBew4aw9HWxqtLCQ1fxa9O7XD4Bou6hih8MIFb7755htlRzgT5e7urraLx1gQChiMn+Qolkl3LC1jDiSd/AMrV/yF31YewZnAIJw/H4LzZw/h2M7VmP3TZhw5l4Ir0xvygf1VHiz0DjDl0jkcXX8MoZcu4VJEBMIjLuLixQsIOReBuNQs1UX+J7pCv+ppr+WGB1wH0+Ou+/Ab7Tf4jwNu9Ny3wrUPuZktBZPKlSurMKODBw8qz6hwLZx5Onz4MMqXL688Y+ZJBC4e3IQ5v87Emr2ncCz4PEJ02xIYcAr7/vkBM7btxRYuhHhLecn6wVkpSD23CfsCzyEgNAKRtC26jYkIPY/gqHhEpWabjr0+9/paue7zP+iL1FyMxE3AdQFq1KihEvBYBcpAPMaCUMBgbPGHH36IJ598Ui0B7ePjY9pTcLk4tz0+2peBRRX/QvhLZYytCN+wAK89vAx15v2Ano9VQw2LLGSmZECzs4e1leVVI/McZGfoYjctGxbODrC1PIldS05h4xIrPDP+ERR3tIalroEsrK31x5oeotBNmJaFtKRUZGRn689iDQtLOzi52MKaHaamb6MnKNMKdhZp+t+ZSNf/hoUdHJ1tYWt1vV41R38vyUjPyEbmFareFjZ2tnBw0N+Puq8fl56O9NR0JdQ12MHOwRb2dla5/XVOBnQNj2wLazjb6I/ITkVyhgU0Cxs42fMY/fEpqUhPz0Sm8VZsHfXH689hZfpsaRos9Q9ta2N8cP0x+pNmZ1vA2tkGVvox6Rk5+mtbws5O//w8JFt/T1k5SM+xgTPfa47+ubM0ZOjfj4tt7jvXstOQmZWJVDjC2dYK1/0qChibNm3CwoULVWf23XffqVhB4UqCgoIwePBgtG/fXi2Hm1+91oLPEeydshifjwhAt71T0KueI1SxuZw4BP3sh06BI1G79atY0KuEfjJnIi1d0699/TrRz+UrTmVNv4D18z9Rv+54bVqE7sC59T9gYfmf8XA1LzT0SkdGjn5t2VjrV7fpIXrjc2hZyfrz0mZwg3692TvDXn9+ZVvUdZiMHCtr5GgW+qWdpmyApZ2jfh3qtiVf16OmX5q0K1m6vTJtUtjA2ka3K0769azu6/YwMwNpybnPmaO/M1s73WY55H42LTMFafqgUL0v3re2VzbDQdmYdCSl6PYoS38B/b1Z2DjAxV63Aeo906ZkIyMpBenZ+muoR+s7dHtk72iv2xhLWORk67YvHZqtvf5wS9P7MdCQo9uMzJQsWDg56LbYwmw9rEePHlWzKgEBAeCSHhTJxFw/jyAUWhITE9VCBmXKlIGrq6tpqxnAGK0s3VBfFpGl4FC+Irr2Wo20zDjEpwIpgXuw9PXXsOjIJQRf4+4Nx5mFf+CneqOw6EwGEoIC4FZeN86dLbGwQhk0ddaNtlMDNGjzJdYkQRd4BvoTx6zE120boamXJzy826Bm/bnYkWDyKCf6I2L7ZNR/bxPGT+iJT4box3jVQekyv2DuoRg+Ol9yMsOw6+t26N/cG8VL+sGvjN78fFDM+yUMHLUTLBaW+1HPYN/Ut/Gk/tply/jCw+N9jPrxNGLVPp3AvzFm9kL0XnRBv6N3Svs+wAsffImeEw4hRR1wCbtfexovenrAu3Rp+PmWhtebv+OLo2n6Pv3dRazA5x8twIxF/uCWXM5g6+jZmP7YEhzj3eSN+P3H+fhm0n4kqv06p6dj6sSxaDx2C0LYeV5cip8X/Y02fwQg2+QPSTn0LWZPeAi1phyFf4z5rCZHTw+nPRkbeHXijJBLuj5YozguXry4auaK0nK6fMvK0Ad66m9ii/LN34VnqheSQy/pe3VrEKXbgE8WYPr8U3mOM5F2ERn7f0art+fhx23+iLIuiSMRndEpdiw+f666Puh0QLHy1eHx5T5si8i9qnNfF4jf+BT+95SHfl2X0m1yeTwx9QC2R+Xuy9ZtxKb/tcTsmWPxw4QJGOztjbL6d93x47mYdz73mGuJw6HJj2No2+LwLuWn7LyfXwkU9x6AnoPX4aR+RO6VGIqAfz7H4JIlULG0Nzw9RuCF9w7oVjKXyPVD8MnT3ihRwgdl/Hzh2eMrfLSWe3UrcXoaurVpoAaMJep0Qs33t+GMLmRzSUNa3Gb81bI+Hi5VUrc5Pihdugr8yg7BF0sC9VfVz51LR7H8DX3AsScQAdeYhUiEbFyASTXfxPwD0QgzbTVHPDw8lOOJ4YucYTEQYSwIBYykpCRERUWppDvWbjULKLSsbGDp4Aq7y1YlA1YJKTi4rTOKe3iilKNu8NNSkHDxAuLTsvIIW4MspCfEITroEhL1nSkJF7Bv7nLM+2UXMkZ8jGHfTcXvXzyKx6tdxBt912BDECVtDpJOrsbigaOxt2wfdPnkN/w0ujV6lfsQo6asxYow/X05WiE7NghnF7yJef5V4NhxKn7+agheavgNJu/agJnn8xNWmv6RshF7zgEVWz6Dl76ahO+//Rrjf3oF/YsVQyn/aCVqLXEBxz8Zi6X/BCBr8Hh8Oe4HfNh7A84cm4A3VlzIFb5ZCYiIS0RoWrx+5xzWj8pEeVTGE30rwzrjPPZO7I956R5weuVnTPnhS4z/8DE027sP5+ZsRWCmtXp8VEQC4hL0QQKfT5GO5PA4/f0l5IrlnCTERscjKjrNdEwqjk/7B2snrkFAfDoyuDEzAdHx8QiMY0/Hbj8ch1btwJ8/+SM0Ng2ZZjR5yBAjFxcXtVR6dvaNp72LIqxsw+REdv5s5oqmvJm2cHBxg5tpGyxtkRq4EH7FLVG1XHlYcQiclYjIiHjE6uf75bG5QU4mtNQYnL2UiFh9kJ4ZuhMnf5+K1/aWRsVH38SMaT/hs3f6o9ehkVixZj12RfMxiUg9MBXvfKThsPYyxvz2Nca90wlW00dj1a9LcVK/jCz1181KCMKcb3dh2WY3tP35B3z3ZT+U3bYPO79bi9P6JXXle+E1loXY8zbwqdkTgz7/CePGfYMfJ7+FQdXLoezJSGUzrKC/10lfY/HkjYju9wU+HDcFnw3wR8bFrzBsXpC+V7/CY07DtUwldH5zCr7+5jtMfK0Hnqidgcj9s/HT0C/hVP9ZvP79r/jy+bpocfJNvPLPXmyK4HvI1r+OTEQcrYlm+mcf89uP+PLDl/GYbxTstSQ1sM7JTEOibqcTUjKuHWToj89MSkBM6EXEp+p/m7aaI3Q8ccGbS5cuqYGkgQhjQShgMIuccZMc7ZvNoh42drCNDETc6qmYNGUqZvw+A79N+h+m/LUekfVGo1G1smBOfJZmDRt7ZyX4na9JxrOApbUNbO3tYGNliZyMeASci8ShGFc0fGsohrw0CM+9PQIv9C0Lyy0TcehMuC7t9I7wTADWLUtH+X5D8OL7AzFszLN45Vl7nJ21Fnt3nUeGpT2sNCs4hcbCvlRvtBrwAoa+NRwfvO6N1I0ncHB1cB7BaaBvsbCCZlEJ9Ts8gxde1duLL2Pwsy9hQMNKqH75EYHY9ncILibXQbcvRmLokBfxv7F1UTnrNLb9vBH+1O56J+7g5AYnTRfGZ5dhZXJD1G/WFi+Wc4VNloasDG9Ue/J5DPpuKAa9MAKD33kNg3NS4HXYH6fSGfJhrcIjbDjFmfuiOpawtrOBDcNLeFc/xtZWP87eQX9nOUgN+R5Ho5KQbFsNdfSRipr2tdSPsbGBE0cuFtnI3r8CYcEZSPVuo49pLGFpce23UFChKLa3t0d0dPQ1xfmFXOgBozhm589qHuaJJays0pCdeQwbZo7HT7/OwMzffsfkST9hzHoNtRvWQL+HOKumnwP6NWDj4AhHZyfoY/AroR3VB+6O+jVja5eF7OgwJJ44gzDnh9FJtwfPDH4ZI18Zho9qRGPfgeOYe1iXe1lxiNg/AbszmqBM54/x8cCRGPLeKDzqugHHjyzHzOP60+rfq629I2KzPOBQuSX6Pz8Mg9/8DE9VCoFF0EKsPKOPR/M5PXO0sqjWrC8Gvv4shgx5CQMHDMeg1nVQT78G1aWKIOxbEgT/wHJ4+OM3MHLoILz/YUs0Kx6K7RNW42QckJhjhbK1W6H3iGcwdOhLGN6zARr6JeHC6aOYeLQ4Og54Gf977Xm8PqIfXq0TjdW/78P6g1TGuh2xdoRVhc7oPvg1jH7ieYx4fTD6NXZBSSdNhVZY6LbP2k7/Hp2c4WzDd5wXC9006t+1Je20+YZRENYx5vXBvJ68uQoijAWhgMHOjHVHHR2vMe8FFxt72F0MQ9rcz/HOW29gxMgReGnkF/hx5T7U+l9VlPBg1QC9h7DMgaYlIDIkEGeDoxFxIRRhFy4iKoWiTDeyl5WfBi09C/aN6qLM0CfQ2s4QbSXhUr0OPnt8KdLjYxB6MQ4pCXYIsHwZjzT0hC8PsSyLsq3GonfAGWhnwuCfpMHSyhnZTiPQpWkVNFCG3hoe+jGd9gHF9p7FKW66AtMbschEekqCCgOhpwS6EE9Mz0SGLtzV/YhQ/bW7wbVyJ3QplusPQr2RaO1SH80P7MFR5Xmygm2G/hynjuHgll1I/aA5irXwVXF7lo5l0fyNeXiuVQ1UDL+AsIvBuBQTgVT9MS4Oesdz+fu4GfTvT3/SrMxI7Jo2DikdGqDWS0+jcVp6bta+gnHdWbDMOo9Ffx1DpncFdH2nD7Qc/fvWm7lAUWyji3yKP0mTyR9jatis7Mg1WOl6NgWZ2I/F33+AD18fgeHDh+CtMV9jYuQIeHvURB0VbZZ7oVilxSDuQhDOxEYgNCwMoSGRiOHXoAs9kntUlv58PnCyfhSfdKmGGka0WpYrKvV7DRkplgj2P4P47FSEhh5DoxeqotXDpmW0Levi0ReqIatMMpYfPaeeMDstC/WeaoSOA2sht6ZBWTTtlYSqzY9h77EUZKtKGldiwVyLtETEJ5k2IA4JqRlINwYwSSEIzm4FlO+DXmX5jnUqP4Omvp3QYf8unIrQEJelD9wz05AUS6GtHgVcuoS4HEec6joGdavYQ9XVcKqExr2Gw2/jRcSeCkeE/qYtLLOR3s4T9s4ZSgSmxtCu6aJYfx71HVlwoJGE6LCzCAqKybXT+vcZlUyVn9dOmze0IbQlvFbyzjyJMBaEAobhATMrL49u5JOqNYLXl5sRcPacbkgvICY5Dlv+eg8+kyri41mrsfySJVydknUDtBLjnmqGNhV84OPrhyq60H3mL38c1f5NCiOZuqEq5+SAdiWK/2v4daxt3FGsImDnZAWbhDjERF/COosMvaPIMXV8ugj3KoYqtrbwtLDIFX32ltA6e8OzuC1y+0H9CbPSkaMrTwtrq1s3hPrzWihhfAF70hNwWPvXqAKeKObiioq6eFbJbPZOcFn3A85M+QFtIkbirbYV0E4peJ2cTOD8LAzr3x4lfX1RvmwVlC3VFSMPH8F2d2fYmw67GTRLG9hknEN6+E785v8FfIo1ROtycbrINh1ArGx08RAHi2ML8WmJ9vCv3BydXBOVoDc3fcnZFPEWXx+ztCPXkInMdDfYWfXB2KVHsC8kAuHhMQg7vRfx78Ri7mtT0WfoFpzjlWJlDfejU/DHqC6oXNIXFSuUh1+ZxzFy3Gac1iUiv4Vc+5Ct2wRnXftVgZeXxb/XGNWeZ3E0d3RCIysmtumvE2CBlNgclT5hUMy7NdzdqurXdu41z3h9X1cnlMkTrZKVxXPTSiWmGa96U6gZQv1CjLyIIylx2K2/138tixtc3dxRxUofaPO4/J42IRyxl/yp1v8V5LY20LxKoL29LcrrNkmDboN1m3nCzxuaS+6g6eqryMo6VT9v1uKnl9qjY4VS8Cnth4qVqqLfrwewK4N2+hY+UwGH18fVdsScrxhBKJRwFEsvGJeFNhv096tZ28HK3RulinvCwcUFzvZu8CtXG82b1sDWiFgcvBQHK81JN0RN0Hf0RHz7xwIsWDwdv/40AtUnzcCRZftwIMNeiUl+fk8PH8TauWNHQgKs81iqnOwUpJ7XtXhyFtIddNHp4on6cIDb5Uz0LFgmp+JiegYSsnOgUcRmaLDYm4TE+KzcZDt6B+LicSApDacvC+pbQKlI/U25eaKqjQsq6aL038iQNCSlpuGS/vvpTw1kpCG5fm+UfuxpTK9yAC+vCMLKc+zuspCRuB/Lh3wNW6+OGDlpOebNnYnZi7/D6+UqoT6rbKjnuxk0WDl4IuHSEZzd/AFcO3SEX8VK8MjJ+FfwahawcsxGUkoE9s3chc41dIHeoIL+XZhf8hq9O2y8VoT8Mb4bs7Ij+aBplrpedIRb8VIo6e4ARxdnuBXzgV3TRuhmcQlVz51GYKZ+LeZkI6VCd3QY/Dlmzp+HP/74E0u/bgrLtNP46NcdiNcFkP5U+mXnAbtidvBsFqwqOlz+dvTrA6nJuiBNwfEMfZCpX9dePhocPKz1wbjpGJ3kpKNITNEHoNm5VoN6OiYlHVGXs16BxOhUxEVmIVON6I0L8CZQF6v+hG4eKG/niuoWtqpKRu4rpSMtJRUX9N8zg4P9/J7W0R3OnqX1H99Zf88mo6nbQOuURBxMyUBYDitMpMEmKRIpJUsgWx8E5EdOtp0+eGiInq9/i6/+1O30ghmY+fs7qP/XQpyYswW70x0KhdfY6GdtbW3VQNsgT3cjCEJBwJj6ZHUK80G30hZ6B2Z5VeCwpa4M05KVh4PRBznZtrowroqH+r2Ml57qjp49B6H/04+h2sFDiDx5HuezTDGz+gjepnINeCVkw33uWpy+XMcsHsmRgfjlYhtdOLujdBm9I/CwQv3slTgamARGLrDKQ8TB37C6VAlklvKEr4MFtMxUWJxfgDPnYnKzuq1ykH5iHk5UtEBqpRLQu5J/UR2O/n71zsVB75XoY7nGMakbVF2KAqVKo5bFQdhcOIh9eg+r3mXwfOxPOIW9FaugLOcydXGa5lsXfq0exeMNSsL5+Lc47L8PcSwrlxGG/auPoViZVnjm5a7o2etJ9G7HpEsbRGfwO8vt/TQrO9g65PUgO+nvzQH2esepujYrG9hf2o5jO3dg8u4SaN6mNCr4OkBjCTfjq7Oxg935fYjZsgCfXKiMdpV80NbXDimZ+fWwBRtOfTIm0LzjZ+8tjOPnd8NkXvOHYUJWKvzoX7KQnKNfv/pWa9oZLQdpJZugXo/n8UyPXqpEXfcR9eFpn4ANu4OQpl8HmoWG7ExPeJZ0RMVW5zDjYBTOGmbWKhnRa2fD1tMGJapUhpulM/zK+yJoQyhOHE42HRSCLf8cRE5YJhqX81G2wko3bEf9Q7HP36iDG4KAvfa4GOCHymV0AXkrCtJQu55+qGITAM/wHdilP6363OGrcOzSLmytWBU+bhZwttLt0tWXrkcJeDjaodS+OQgOy8gdWKeEwX/TAhyp5Q7byl5wTkjAud1hqF2nHPzK5hanc3LR7Ym1NRycTEI821p/K5XRrPcLeIF2uvez6NvvKdQ5dRKxhwMRbLLTt/DJCiRMuKMt4Uqa1vrnNxCLIggFDF6kTApgZQrz8fboJjI5GilBR3Do+EkEnQlAYPAp7Nm9DfP3RaCNb3E083VHRk66Lo4v4PSeTdh8LBTnzu3H0f0HcKlsWbj66B2WRRays7LV1FaKQ000s3fEwCMbsXrDMewICEH4juXYtjUAy/3GoHZVX5SCK5xKOaNemZ3Ytmwj1m69iNPrN2DZohWI6NoK5RuVh5dtNrItM2DpsRshZ3bi0JF4nNq3G4t27oZXj7Jo2qHilck6eueZkxmN8KOHEBCmfyxdzNvl9h86+r5sXRRnZ+t/6Z/Zuhzq1AmBFr8BC38/hhOnzmDDzLnYl5MJ274dUI9Bh3qnnZUSh0RGIJbpjUkVV8Lx+EbM2ZeFTDsPlK7kjqToU9i9MxpBJ/bixOI1WJdyFqec0pCVnmuiLRPDcNH/MA6FBOHUqVMIvngUpy8F4lxGBPyTmU1tBZtTy3HuWCQ2OX6J5qVt4eCYquoWq/fLJ7G1geWhI8C6ndjUqj9K+brpT5yKTP27VuEmPMZMiI+PVx0ay5CJMM4fCmM2roCXN+Pe3LBAJrKyInDu+EEcOh2Es2cC4a//fW7BJqyzKY3wWrVQySpbmSDLmLM4d2grDoYEq+vkwsYQpGQ5okbFYrDRhTNnGTIzbeBaohSqtSyLnQfWYtOWPYgMO4NDezbj19X70apueTzZwkEflDqiVJX+yNm5HweWLsDaC0dwasNMzN9aAn6OTTCwvl2ukLW0QtLFEJw+tBf7Ak/g7J4F2B1QERbOXfFITYuraq7nounXXM4VXl/9b27jDJe6XxbVakXDxWITFv6mv/7J89jx90JsDw9HzoDOqFsCunDPQJayQ3lwKoXi7s54ImYeNq/ZjiVHQ3Fg8wb8ve4Qyj5TDw2rJSFmu35/9kE4x+nfz5lzug0+iYMHjyEgKhqBp8JxKV4XjNa0CRcReGALthwNQ3DQQZw8vgdhPj5wLlMcxWin9fdKYX7F65sZTHSPjY1VlSnoNb6MJghCgWLFihVazZo1tdmzZ2sxMTGmrQWbC/90115/WNlIzcLCQtPFCmctNRQvr+GDDdrOC2nquNjTi7TpPaB5O/JY5Q7VbBydtdZf79P2pIRogTMnaGMtn9SmHU7UQvmAnGAtbN1n2pN2tpouK/XjS2ulq72tTT+bpcXmqKfUtOxILfXEZG1EGW+tpDqmvObo/LU251y8Fs/98ce0sNVjNaenPtUG9K2q9a2jH2NTQkOPydrs45FatnqSvMRoYZu/08boz2WFF7SXJx3JfS9alt4OaLPbfat913GudtC0RUvdrq0c01dryuMt+PpPav1HbdX8uY8c/1EbOHGqVuPXM/od/dUSF2jjOn6kvfTwYv05UrToJQO17g281HfhWKyU1v23jdp3z1fVxo9+Qfv5pP6QsL+1sfXKa378bPr3mvv98nX0VrqJ5vbtPi3iwiJtSufntH71x2pzovS3xNdN26wtmzFZ6/vsIi0oXb8f8bf2yVOvafYlJmjrdMWcwmMurtM2Lvpcw/92aofC1aPMggMHDmjvvvuu1rVrVy0yMtK0VcjL6dOnlR35/vvvtbCwMNNWc+OEdnD6SK2Dfq7rsoWrd5jOfWbjPqwNnbRHO5TJ45I1LXyu9mGjSlpZdZ3k2iGgkfboOyu1XVGRWvqW/2le/X7W3vknQD1zVnKkdmhCSa1dNdO15KJfg6//o/0TmKj2G5yZ1UIb1CL3GAv9+m40epm2OPcptKyMIG3ZsBLaxFe6af2efjH3efTW7f1Z2op8v3IarQht1asvaJO/+UVbkZC7VdOOaSsGTtS+rDlN263f4+WqZRzUdk0corXTn48SHOiqdXh6hXZE38VnOTO9njZtQn9t/DHdqhi2kKSEaakbRmvVyxXLfT8e1TT7AbO1HbH6K28frn3eO/c90gNgob5P3hrbBmgDxu7SDidt1/58HFp5V27LtdNW1lZa0w83ahtiL2gXV/yqfYjHtClbwrWzppc1RwIDA7WvvvpKa9eunXbwIC16LrLynSAUMLZv347PP/8crVu3Rr9+/VCuHAudFWwyYk4gLPQCgiJwefEI5GRDs3eFVYX6aOHjAAcrICs1CtFBRxEQnpU7ha8fa2ljB6+azVClhDVsIiJw0T8B9vUrw93JCnbIQk7KJZzadQoRmZlI0Vzg6u6Lmo3Lw01/vlxfof48OTE4u/sELsQnINHCAw6OFdGgZQm48oD4owjbtRCVZpTBx48VR7dKtgiJtIdlyZpoXNkT7nZXTwhmIj32AkL3BOCcRTn41fZFuVIOsFF9RzIij8Yjw8IObrWKqTAGC6QhITQYgceDEGVphazscqhQ3Q+Vyzrkvr+UC/CPt9TflxsalnTQNyQg7HAckrPtUaqBN5yTzuL46TCEhCfC1tEZXtUboFTyKcDaBdleVeFjE4nzR88gNDoBSQxX4XNa6q8ftRmrz8dhbFo/nB1WBp5RKQhPs0OJur4qwdAiJx4xUamIiLNBucpesM/Sn+dsMsLinVCvSXHwnSAjDvGJiTic7I6GpZzgZMQlFnCWL1+OJUuWqJkVrljFxT6EK+GiBa+++qpazYthBfXr1zftMSdSkBx+EWdPnkN0VjZyo37oabXS/y2GyrqdKF3cEbZMUcuMVddJWFQ8EvWrhDGjWdkeKFO1EirpCs82PhS7L9qgRHF3lPdSZz+yLm7DseAkXIjVLzf9XLIo1xCNfJ3hkcd5mBN3CIFBl3DmkiWsbazgVa0pKpR0hru1busyg7FyREOcKj8Mjs1fRtWMoyqvwKdGI5T18zIl+l5NJmLPBiPN1gX2pUrCQ3mUUxDrH4/kJEu4NSih7IolMpAaGYqAgwGI1D9teo4fSpcvixpVnVU+Q1r4QcRnOyLbXbcRV0x56W8g9SL2HgpEdKz+TTgV01+nOlpWcUXk0j5YsesYdpSZhT7lkuBknYPMHN2mWGXA2j4YS/qGwfORh9BzehuUOLUbZ8PTEZ9OCa03K2t4Vm+Cyr4OcIqNROixWNjVrQR3V5tbShIuSOzduxezZs1Camoq3nnnHbXUPBFhLAgFjBMnTmDq1KlqunjEiBFo0KCBaU9BhSbkanF5LbQ0efIbbgJO77P6wx2id2wh2+aizOQK+OmjJzCs4eVlAnK56u3n+z6NjXmPNf191cP/xfSYq/df9/hbJWkT1m/Ygw77WuP0601QxcMQtbmvcMPX1d8fXUX35L3dY3766SesXbsW3bp1w1NPPaVCBoQridAHmePHj0dISAj69u2L7t27m/aYDzd3Pt6GnbiBMbrB7stkZ5zF0ucrYX/NL1Fz4Dt4sqRph+Jm3n3uMfm93nUfrQ7mH8bem3mdXIJmd8TOkGRc6rkDb1QxbbzMCfxdcwmia1RHm3k9Udu09cbc/OsXNDjAnjRpEh5++GH0798fpUqVUtvNwz0gCEUIxjvVrl0bhw8fVivyFHxuzijeTEdzJXdBFBNrZ9h5lkWTmt7wtsunzsNVL5Lv+zQ25t2Xz6YrMD3m6v3XPf5WSbWFrXNJNCzrAkfrf4s6Ga9ww9fV3989e2/3mICAAFWUv2HDhlfGBgqXYRIvvx8uCx0YGGjaal7c3Pl4G3biBsboBrsvY2FpD6+qrVDOtxQ8qA+v4GaeJPeY/F7vuo9WB+fde90jr8Heuza8StYEgyzS8poMVZtDg3NdH5SoUUzlXFzzca7Lzb9+QYODxrNnz6JevXpwc/vXYSIeY0EoYPCSPHjwIFq0aIFvv/0Ww4cPN+0RhKINr43IyEgMGjQICQkJ2Lp1q2mPcDX8rrgoQ6tWrdC5c2dMnjzZtEcQBFZ9YhjWnDlz1CwtK9wYiMdYEAoYjI0rU6aMCqEIDg5WF60gCLlib9OmTSq2uFmzZqatQn7Qjvj4+CivMUu27d6927RHEIRdu3apii3M5aE9yYsIY0EogLBkW6dOndQ06I4dO0xbBaFow9JsRtJd27ZtTVuF68Hvq3379qrm86pVq0xbBUFYv369KonatWvXa0o+ijAWhAIIi4336NFD1Vncs2cPsrLMb3UyQbjbhIaGqth7ekKbN29u2ir8Fx07dlTTxKx2w4ReQSjqMIyCdoT5Ce3atRNhLAjmAIUxQynKli2rvMYc3Yo4FooyTESdPXs2PD090aRJE3Ur3JgqVaqgZs2aiI6OxurVqwvJSniCcHtwYaC///5bLfbSuHFj+Pr6qrCjvIgwFoQCDMtRcXWv6dOnXzOqFYSixMWLFzFt2jR06NBBZZELNw+96xxMGGUgieTdC0URhhVNmTJFDRhpS/JDelpBKMCwviI7NH9/f2zcuBFpaWmmPYJQdGB1Bc6acOqTnVmFChVMe4SbgbNPzFlgKAqTFymOr/aSCUJhh8l2y5YtQ2ZmJh566KHrDrBFGAtCAYa1SFu2bKlGtyxEfvz4cdMeQSg6LF68GCtXrkSfPn1Qq1YtEXW3AD3DHFBw2piVPBiOsnnzZtNeQSg6sLwjZ50Yd9+0adPrzsKKMBaEAg7jA7m614oVK7BhwwY16hWEosKhQ4ewdOlStZLbiy++qCq2CDePMYhgSNbLL7+M/fv3K6+ZeSweJAh3hzNnzqg+9MiRI3juuedU/s71sPofKxwLglBgsbGxgZeXl4qNYma5lZWVGSwTLQh3hzfffBPp6ekYOnSoWqxCvMW3B+0GxTGTjpiRz5htZuQLQlGAi2Xt3btX2RF6jP9rxUzxGAuCGcAObeTIkeqWmeWMtzSQJBqhMGGcz8we//HHH1V8MWvxMoxCuDMoBl544QW15PzOnTuxYMEC5OTkqH1iR4TCRN7zedasWWrmiQ6lZ555RoUo/hcijAXBTODUT79+/VRcFLNqT58+rbaLB00oTPB8Tk1Nxbp16zB37ly1kEevXr3g5ORkOkK4Ezi47t27N8qXL49ffvlFrQBGL7LYEaEwwfOZ5zXPbwpjJuw+/fTTavb1RkgohSCYEdWqVVN1SLmKVWxsrLrYpZ6rUNjg+T1z5kwVRjRmzBgl4ugBEvF2d+CS81z0g0mN4eHhKFGiBEqXLm3aKwiFA8bTM2mdC3pwxvVml5EXYSwIZgZFAsXwV199pbzH5cqVE3EsFBqYIMMZEQ78Jk6cqGZKeJ6LKL67eHt7o3r16vj+++9VYiO/51KlSpn2CoJ5s3v3bmVHGFfM+GKWPWWc/c0gwlgQzAx7e3vVqbm5uamp5pCQEOVJFnEsmCN5PcGMnx83bpwKm3j11VdVibGb7cyEW4PeeIZVcGqZ1W649DztiCGOxUMvmBN5z1eGT3DAx76RybutW7dW/ebNIsJYEMwQlqxibWMW7Gf5meDgYBVWUaxYMbVfOjXBXOB5yphiJpTSw8MEsb59+6o4WDmH7y38rimGWQLy2LFjqk46l8ilOJaVNgVzwejveMsBHsMneE537dpVlWa7FVFMRBgLgpnCzFrGTHFUzOlnZvEzTpDiWASFYC6wDCFF8YwZM3DhwgW8/fbbKtlOuD/Qc9ywYUMlKjgDxVXx6En28fERcSyYBezvWF1l3759atlzDvBYfeKll16CtbW16aibR4SxIJgxHAmzU2PyDDPMz58/r8QxvT6CYA789ttv6txlx8aY4kaNGokgu89QHNNzXLduXbUyGL3HDNXirJQgmANcGZOxxOwDmX/TrVs3dV7fDhb6KFGKFwqCmcNEJdYl5VQ0Yc1XTiEJQkGF1RAYT3zw4EElhgcNGoRKlSpJTPEDJDk5GQcOHMCvv/6qFgDp1KkTXnvtNflNhAILw7DGjx+PTZs2KYfQ8OHDUaNGjVsOn8iLeIwFoRDg4OCgRAVjjzkdzc6NI2d6kiUpTyhIsCNjstfkyZMREBCAli1b4sknn1QVEsRT/GBhzDGrUzAcizGatCP8jeg9pi2REC2hoMAaxQyd4CJAPE8php966ik0bdr0tsIn8iLCWBAKCey0qlatqkbNp06dUnHHaWlpKhaZmee3O60kCHeLqKgorF27Fn/++acqp8QFa4YMGaLq6goFB4pjhlZwcL1kyRL1u9nZ2anYY94KwoOEdYm3bt2Kv//+W/VzHTp0UEs916lTx3TEnSGhFIJQCImOjsb8+fMxduxYNZJm6StJaBIeJPQUMwbwjz/+gJ+fH0aPHo1WrVrdsXdHuHfwN1u6dKmyIxxYv/LKK3j++efFsy88UBgyyFj49PR0fPTRR0oYc7b0biHCWBAKKTExMTh8+LASyEym4cIgXP2HyXqCcL/glDy9jsZKdt27d0fHjh2Vl/hO4gCF+wNX2jxx4oQSyPTSMcyCXv527drJLJRw36AIZvUalmLjgI1Lxffs2VOVKb2bopiIMBaEQs6hQ4fU9DWnrlnSjR3ao48+qsIuDGgGJH5QuFPynkeMAdy4caMSVKdPn1YxqkzmoneHC9QI5sWZM2ewbt06bNmyRc1IcYDNWtNchMVA7IhwN7j6PGLftXz5crWKHePdKYofeeQRJYrvBRJjLAiFnJIlS6pOjN6dHTt2qMVA2LFRuHAbDY10ZsLdgOcR49rpYVy1ahWWLVumRDETQ4cNG6aEMVe1E8wPJvGyeoirq6tKduLvythj1qFm1QoXFxepXiHcFWhH2D8ZgzHOONHB4+HhoWKJH3/88XuaVC4eY0EoQtBjzBhP1o5lYg0LoLMQOsMsWEdWYgeF2yUrK0vFC7Ns0s8//4x//vkHjz32mArf4UI0QuGBvzUHPaw/zZXGWA2A5fbq16+vBI0IZOF2Mc4frujK84t9FXMRaEcYhnU/EGEsCEUMxmcFBgaqKVEj45zChQKZpW4E4VbhoGrOnDmYPn26mo1o0KCBCtfhLWcsJMGu8EFPMVfd5CzU4sWL1UwUw7MGDhyoprkF4XbgTBPtCCsrsYQj44jZLzFhl+UE7wcijAWhiMIFFri4Ajs2f39/ZGZmomLFimjTpg1at26tpkYF4b/gAItTnYz9oyB2d3dXXkPWJq5Zs6Yk1xUBmFxJ7x4XGGKSL0tpMbGyRYsWKhaUAyNB+C8iIiKUHdm+fbtaWIYlRmk/6CnmaowM37mfiDAWhCKOYZTYzp07pzo1evpokDhKL1eunMQgC5eh8KF3kOcKC+wz9o+VC5iE1aNHDzRp0kQ8xEUQngObN29WS/My/pjVK+rVq6dsCW0Kw7Xul8dPKPiwykRQUJCadaCDhnHrly5dUrWIu3TpgoceeuiuV5u4WUQYC4Kg4HQ4VyQzFl/gqJ21jxnXRXHM1fWYrCdxyEUPxpRy6pxLj+/fv19VmqAAouChGGZ1Ai4IIQiE9oOhNbQnPG9oQxhaw5rqtCMUyBKHXPSgHWGLj49XCbqsNLFo0SKVkNu5c2f07dtXJXg+aEQYC4JwGXZiDKlgNjC9PyzzxinS2rVr44knnlBVBRhuIRQdeE4Y5ZJmz56tkmO6du2q4kjpJWbpNQ6YROgIBrQhFED0BnJ6fPXq1aoGMlfO4/Lf3bp1UzZFKFrQM8wBNQdNPDfoGaYdYY4LB9m0IwVhtkmEsSAI10CzwFgvxpDSmBlTXkzUY0IEp8sZR1qlShXTI4TCBMXwrl27lKjhIjGRkZGq4ypdurRKsKKo4dT4/Y79E8wPnju0HzyPmMsQFhamGs8fegdpRxiXLhROGCKxbds2NdMUGhqqYs4ZokcHC8P1eOvl5WU6umAgwlgQhP+EJoKdGj3ING6MMWViHj2FPj4+agqdoRYUTg8qJky4czgQ4uCHgyFmhDOZjgma9BDzt2UyFZMyJZlKuF0CAgJUNRzOQvH8YlgF7QjPKQ64KJZ5rt3LGrXCvYW/K0uBMg+B4RLMYWFjNST+zqwwQTtSkGceRRgLgnBL0JPIEAuW1WEWOg0dPT/0ItOTSNHMDs/Ozk6SbQoojCdn8gtbcnKySnphIh2rS/CWiXUMm2Fr3749ypYta3qkINwdKJoYYrFmzRo1M1GrVi1lQ9iYsMcKJ7QjrGxCWyIUPCgfObvERX0ofDk7QCcKa1vTicL+gQNqhl7RjrDShDkgwlgQhFuCHkQKKwoqegboAWL8IAVzTEyMWvKX06NGqR12bkLBgt5hI1SCvx2nOzmdbXiFOdjhKlNG7LAkXAp3G9oQ2hKKKg7MeC7SlvC8PHv2rLIfrEzAWw68uUKnULCgvacAZqiEYUu4TDN/M+P344wABzbmZEdEGAuCcNuwc+N0O2OPKZLZoTGOjFPynEqjR5KCi55kozEBR7i/sHzW0aNHLzf+TkasHxs9wpzGLlWqlOrIRIQI9xvaEE65X7hwQSX/0o6wcfaC0/O0HSzlxVt6lxlyIdxf+FvQC8y61bxlyBXzDBhKx/wD/ia0I76+vsrOs2SfOSLCWBCEuwan044fP46TJ08qAUZxTC+BMR3KGGQaTBpOijCKMzZzNaAFDVYDoPeNHmHeUlgw0SkhIUH9NvTOsVoAS/ExNpyJlCyhJZVGhIIEPcm0IWwUYEzao1RhaBZtCWehaEeY45DXjvBv4c7hd037YTTaEDo7uJiLYUfo9OBvQQ8xQyQMW1IYat6LMBYE4Z7BDo6lvjjdxkaxTI8QjSkbvQv0NlCYURxTOBudH4W0MQUnXAnj+owYYXZSvM8aw/xuWQHAaEx2oreNHjZ67hm7yWnpypUrm55JEMwDYxEIxsAzjpWDbgphnsu0IYYdoUCmHTHsBxvtiSw6cy0cSBt2xGgcRFMM57UjTMilMOZ3bdiRhg0bqlC5wogIY0EQ7ik0MWz0JFDE0cBSIHM6jrdMwqGA4xQ+vQ70ZLIMnNE4PSdJfP9Crw2nmvmd0ZPGxilNNn7HFMFsnHJmx0UvDrP8jfg+HiMrGQrmRl47QkHHWRHOTlEk047wb14DnA3hOX+1HeFAXPId/oUrFRqDZ9oQhlux8TvkPnqB2fKGsNBGM+/A+B0Kqx0RYSwIwn2Fccks+cbGBD56KJjNzI6OjTHLRmPcoVEuzIiHZSybEYrBqVQa68KEkYxE7y8bpzEZEsEYbg4q+L0wY59TySVKlFCNXjJ+J7zlPnrM2Bj/J2JAKKxQwBm2hH/TXhjXztV2hCEAtBeGLTHsiBGOwVaYkkxpNw2bmteO0Iaw8T4HEXntCJthWzmYNuwIKw3xtqggwlgQhAIBOzcacHZshkDm3+zUGBeb1zth/E3zRW8yxSATxmjAKQYNQ87G5UbZARiN06ps9wMj656dckpKimocDLCxIzc6dg4O2LhUKm85eMj7GY1bI17biKk0RDE7MnZohaljF4TbgdcbRR9tB5thR3hLTzOvI+PaynuNMWTLsCO0ITeyI0Ypubx26V5Be8DPxXa1HWEzBgdshg3hbV67adgRA9pNOhVoO/LaEQ4UGH5SlBFhLAhCgYdTfoanw/B2GF4QxtCy47jVDs24z6lBCsq8jZ1J3sbnZ2PnycZtNJ0UvsY+429DDBsd2I2EMTsxdmgMkeB+vid2UoY3i7f0cNHTxSaJioJwe9BeGDMvV9sRVsSgcKbtyDvIvlk7YuRDGM2wJcSwFbzNG+vM+3mbYUsMO8LcgRvZkbzC2BDE/Jvvh8L3ajti2BJuE/JHhLEgCGYNvSKGp5leIYZlsJOjp5mimbU2mZhG4clOg42didFRURgbHRsbPSnGmv3s4HjLjojPx46QHSL3s/Pia7MzNZJYDEHMfewU+VyGWGdny9rAbFwClQKXjVOZ7MAMDzDvC4Jw/8kbzkUbQluS146w5bUjFKC0AbQjtBWGHeF1z1vaDtoCClzaCG7nNZ93sE07ZNgQI6nWEMGGx5f2xhDqtCP0bDPUge1qO2J4f3lrCHPh1hBhLAiC2UMzZnQuhljlLRs7HuPWaLxveF+MbGyj87r6WHZmzMpetmyZSkzhMewA2flUqlRJZcIbyT3suNgZsiMzOkZ2bIYXKa/Yztt4vCHGBUF4MNCO8PrPa0vyNsN25JVNxnEcfDMpliXmaC+MSg7GIJwVeLj4ERPZaANIXtvAZtgB2hw2wyPNW9qGvMeyXW1DjFs24fYRYSwIQpHmalFtCGLDo8POhh6kFStW4MMPP1TeHHZo9ODQQ0PvL701jM/jNKUhllnaiN5hQRAKHxxMG4sasbIDhTBDMoy8CDaKZdoU0qdPH3z00UfK22t4cnl7tTgWcfvgEWEsCIJwE7Dz69Kli+oArwc9O1WrVlVl54xGzzI7Q2MalLcyxSkI5gNzARhGwRhe/k0BTO8wZ5BY4oylJ+kZvh4cIH/wwQd44403TFuEgowIY0EQhJuAYRdDhgxRIRWML6QINrzHhueHGB4iA3qTWQ+UC2u0aNECnTp1UtOjgiCYBzt37sSiRYtUvWQuVMTYYwNe+0Y4gxH+QPtA20APMO3BE088gZEjR+Khhx4yPUooyFj9T8f0tyAIgnAd6ENgo3eIoRXGfcIs74cffhjNmjVTnSO9SwzNIBTUXKWLRfTpcWKcIbPcBUEwD+bPn6/CqOgl5vVMKIA52OUs0ssvv4xWrVpdrjdOUUwYikVeffVV9OjRQwlloeAjHmNBEISbgKaSGemDBg3CP//8ozo5eoMZU8hQicceewwjRoxQmeqsksHG+EOGXtDTxE6yW7du+Pzzz1UWuSAI5sFff/2F8ePHq5AII4eAC4QYuQUMr1iyZAm+/fZbFVJBe0D7wAEyj582bZp4i80IEcaCIAi3wNixY1Unyc6QMcRMwmFFiieffFKJ5rxQFNPLdOzYMeVFatCgAdq2bSur0QmCGcH8As4UMeGWQpfXe15Y4o3il8KYCbhM3mVFCoZR0Jv8yiuvoGzZsqajhYKOCGNBEIRbYN26dZgwYQKWLl2qSjAxZnjAgAFqKlUQhKIJy7T98ssvqFGjBqZOnYq9e/eqxNu///4bzZs3V+UbBfNAUqMFQRBugTZt2qB169bqb67IV65cOVXHWBCEogtnj1h5gvXRGXJF6FmuV6+eiGIzQ4SxIAjCLcD6ouwEOWVK9uzZo8o2CYJQNDEm3lmKcfXq1Sr0ggm5TLjjUtKCeSHCWBAE4RahJ6hz584qwYahFbt37zbtyR/GGhpVKgRBME9YVSa/6FOWamRcMeOQWc6NsJ55r169pBKFGSLCWBAE4RahN4gVJugNYmd5+PBhlYx3dafJShRMvtu8eTP27dt3TY1jQRAKPkyw5UIeq1atuqKGcV5YhYY1zlmVhnBWqVq1arKYjxkiv5ggCMItQkHMGqYUyIShFOwUrxbGjDV877330LNnT4waNUp5lIzapoIgmAcLFixQ5Ri5wM+mTZsu1zLOC6tQzJs3T+3jQj4tW7Y07RHMDRHGgiAItwHjCek1Zk1iCl4K46uhUOYqWKxtumXLFlXnmJ3sfy0fKwhCwYCJdKw7/uWXX+L48ePqWmbYFJeEzktGRobaz0bat2+vyjIK5okIY0EQhNuAK1/16dMHvr6+Kn54+/btaoW7vHDp58GDB6uSboRLy7IG8qxZs9TUqyAIBRNey6xLzNJrXKCHMK+gcePGcHNzU/cNuJ/hUoS1juvXrw9vb291XzA/ZEloQRCE24BJNRTF9CBxIQ/GE3J1K66GZSTcsIJFrVq1lFc5OjpaeZq4Gh7jFRl7WLlyZSWembwjCMKDh3kAvD5nz54NyqPY2FhVbo1LufM+B7lc0p2zQcZ1y+MPHjyo4ot5HKtRsIaxYJ7IAh+CIAh3wLZt21RnWrNmTSWArydyGYf84YcfqoVBOEXr5eWF7t27Kw/y1R4oQRAeDFyl8vvvv8f06dPVfV7PL774osoRYM3y613fUVFRKpSC+QdcHY/LQgvmiYRSCIIg3AENGzZEs2bNlKf4vzy/9Ch/+umneP7552Fra6vKO7H4P73KgiAUDFifnANcwjyCr776SiXQcpXL/7q++ZimTZuidu3a6nGC+SIeY0EQhHtM3mlXxiNympbbBg0apGoiS61TQSg4rF27FosWLVKe3379+qmQKaHoIMJYEAThPsN4YybsSRyiIBQ8WDWG8cJyfRZNRBgLgiAIgiAIgo7EGAuCIAiCIAiCjghjQRCEAgaXkV63bp2qe2wgk3uCcOcwhOnAgQP4448/VAIskWtLyIsIY0EQhAIEl5Tl0rLMhv/ll19U+SjyXxnxgiDcGF5bTKz74Ycf1OIdHHhy1Tq5toS8yAIfgiAIBQTWQ+ZiIV9//TW2bt2KkydPqkVBuEiIrKQlCLdPWlqamoX55JNPsHLlSrVwB2sOV6lSRdUUFwQD8RgLgiAUEKytrVW9Y66cVbp0aaSnp2PFihUYOXKkuhUE4eYxQiSSkpLUMuxvv/029uzZo7ZVrVoVffv2VYt2CEJexGMsCIJQgOC0LhcT8PHxUV6toKAgBAcH49KlS0o416lTx3SkIAj/Ba8lXj9cxY5hSVx9kjXDe/bsidGjR6Nx48awt7c3HS0IuYgwFgRBKGBwiWhO8Xp4eCAiIgLnz59XHXxISIgSzPQmy4p5gvDfREZGYubMmfjxxx/V9cPV6R5//HEMGTIEHTp0kGtIyBcJpRAEQSiAuLi4qKleJuG1bdtWbWPMMTv6mJgYdV8QhOuzf/9+lWx38eJFeHp64rnnnsOYMWPQvn170xGCcC2ywIcgCEIBxkjIGz9+PPz9/TFx4kS1VC3DKgRB+G9YfWL58uUYMGCAit2XJFbhRogwFgRBMAMCAgIQHx+P+vXrqzhJQRBuDMOPGI5UtmxZFUohCDdChLEgCIIgCIUOyhupUSzcKhJjLAiCIAhCoUNEsXA7iDAWBEEoBHCpW2OJW0EoKuTk5KgV7QThbiGhFIIgCIWARYsWYc2aNaqU26hRoyQOWSj07NixA3PnzkVCQgI+++wzlCpVyrRHEG4f8RgLgiCYMfRtsF7rwoULMXnyZLWYwc8//6y2CUJhhcs7T5o0CVOmTMG8efOwe/dutcKdINwpIowFQRDMGApjrorHUApy9uxZfPTRR/j7778RFRWltglCYSE1NRVbtmzBp59+ij///BNpaWmoUKGCqtiSkZFhOkoQbh9Z+U4QBMGMYYJRiRIlVG1jwkUNGHO5fft2JCcno0WLFrCzs1P7BMGcYQw9Z0ZGjhyJI0eOqEFh69at8cknn6BXr15wcnIyHSkIt4/EGAuCIBQCmIR05swZFWtMfwc9aVztq1OnTvjiiy9QpkwZydIXzBKe21y9jiFCnAnhrAjhoh1c3rlZs2awtbVV2wThThGPsSAIQiGAotfLywvly5eHq6srgoODceHCBSWWDY+ys7Oz6WhBMB8ojLnADWOKjx49qhJLBw4ciKFDh6oZEVkFUribSIyxIAhCIcLX1xdvv/02XnjhBVSrVg0lS5ZUWfsSfymYMw4ODvDz81ODvEcffRSjR49G8+bNYWkpMka4u0gohSAIQiGEXjYmKe3btw+vv/66lG8TzB5WooiNjUWrVq3UgE9Cg4R7gQhjQRCEQgrjjJnF7+HhYdoiCOYLz2UO+BwdHUUUC/cMEcaCIAiCIAiCoCPBOYIgCEUUlr8y6h8LwoMmLi5Oam8LDxwRxoIgCEWU0NBQHDhwQN2KQBYeFAyPYBWVZcuWqcb7gvCgEGEsCIJQRJk/fz769u2L/v3749ChQ6atgnB/OXXqFEaMGIHBgwdj4sSJ2LZtG9LT0017BeH+IsJYEAShCBISEqIqVpw/fx47d+7Eu+++i3nz5klZN+G+weTQ5cuX46233sLatWvVrAWrTojHWHiQiDAWBEEogrD+a4MGDVC1alUVa7xx40ZMmDABc+bMQUxMjOkoQbg3REZGYsGCBeqcW7lypRqQ1ahRA08//TTKlSsni3YIDwypSiEIglBE4XQ1Rck777yjYjzpsaMo+eCDD9CjRw94e3ubjhSEuwfLrk2dOlUt8cwwChsbG1SoUEEtTPP888+bjhKEB4MIY0EQhCIMp7NPnDiBV155Bdu3b1fb3N3dMXz4cAwaNAgVK1ZU2wThbpCYmIgZM2YoTzGXeebCM02bNsVXX32llneWleyEB42cgYIgCEUYe3t71K1bF99//z2eeeYZtY1ls0qVKgVXV1d1XxDuFlzauV27dmrRGS7U8fjjj+Pbb79Fs2bNRBQLBQLxGAuCIAiKXbt2qRjjsLAwjB49GrVq1ZKlpIV7wpQpUxAeHo7WrVujbdu2pq2C8OARYSwIgiBchol4nOKuUqWKePCEewbPMxl0CQUREcaCIAjCFbBclohiQRCKImL5BEEoNERuGYX5Pz+Bt9clI/5O1wfQsoFzC/HRz3Pw4u9HkGLafOtcxIFv38YvfYfgrwAgKcu0uQBzPVEsfhRBEAo7IowFQTBP8tFodsXrwq9yS9QvaQ2b/5yl/ffB15V6FIGJQdh3PACbTkXjaj177eNyt1yrHbOQcGwnjq3ZiIB4IPO6L6hz08Izn+Nu9qF3gIWFBRISElSJraSkJNNWQeCp++8JyBrFXLCDMeuCYG5Y/U/H9LcgCEKBIT38JIIvReF8lgu8Ha11UWbaYaDfz4oLRljoOQSku8DT0RZOrj5wL1EDZYu5wM06EZHBqYi+FI6UTH/4+4fh/PkLSMoEbFxcYW9yC1jowjUrJQLBh04iKOQ8gmOzkGLpimLO+gtEH8SSY0CyczkMbFMGOVFHEZFsgTQLJzjb8NHZSLoUgLiEZKTauMPBmuJR35p4CVHBx3Ei6CIinBMRvHwzkiIAx/5D0MgbsLfKRFrsJQQfPYmzYWE4F5qJjBw7uLnb5norksMQEhyJwDANbiUcoV7qCvQXSYtEdNgFHD+TBaeSzpc/z70kKysLW7ZswezZs5UwZmUBqVwhEA6ayIULF7B48WL89NNPqjY2k+tY+cTYLwgFHfEYC4JQAEnE8WmD8Nb7L6HrghBkZOfnDs1G8LKP8N3b3dHs91MITQeStr6Ov8Z3x8iVcUiN3og5I2bjgx5vYeLPTdGqVVM0b94E/V//DAvP6Y++/JQhCNs8GW83aYLWzVugRa+3MXDaQcRSfFpa8F9YWtkjR0tAwMyW+PKPGfhNF8u5JOPApL6YMX405gZDP4bbcnB+0/eY+EwzNNGfs8HH8zHzdBxc7EwreSmrG4Dj87/AsKbN0FJvLZq9juFjd+KMvkc9xclfMPH19/Bwj0XYn5WDfKNCzi/BinFvoUmLmVgVHI/74b89fPgw/vjjD4wfP17VOObfrGAhCITLi//4449qefGtW7diz549WLp0qSwzLpgVIowFQXhw5NW7YQswf0w7FCtRAT6lXsJfDm9gyGezsOZxP9hambxNCbt1IdoT5cuXg5dHL3xysDnafLYBuwZWQzlHXaamZyAnOwu6ltSxgUXGbziXFYWwGpuwdsshLP2wIira7MT3fxxEuFLGUTj14zKsfv8SWi7ejeX7T2H5m5boEjsSo5bFIj1Jg521/tp8ef1wLScT2dk50P83oUHTX4+vmcPD9Ba37imMW74bc6uPx7Ldu3H88TIo5hiHH9IswY9hZxWJo2PGYOOMY6j/+2Gs33MUyz6KhXfmh+j37V6EZehPXnsE3pz6PhZ8m42dVSuhlZcbnB57F4+tjjW9rk6Z3ug++lNsX1cBMf3aobebM9zaPYmGf4bk+VrzfsF3Dpfsbdy4MZycnJTY+eyzz8BJRwpmA4lDLppwJoGCePLkySrcpnLlymoVu169esHW1tZ0lCAUfCSUQhCEB4dFJrLS/LH1/S+wJiADF3yboEXt2mjcqBna9eqGh6oUh6+TlS44Q7Dv6x+wZv0pHC3VAo2qVUfjhk3RtnsntG5YDhVdckMQEvwXISA8FudLPIueZcNwcOFOhFhUQ+ORI9G/TklUKR6BIyFWWHmxPIb0qAwPi71YtPgU5l0qixe/6oPmpYqhchk3lCzuA7viDVHP4jDmH8tGtG05PNvaS9fl43HQsi3cy7ZEK19+gAyc3zwDF3J8YN+gDxp5ZSBgwVvYl1gJXl2/xqgOfiju54zUk1sQlZmJsu1fRCuHzfj168PYntocz//UV38eb1RpkoGUIwnYOtcNHQbXQHEHV7i6lET5Sm6wy3aBd+NmaFq3OLxi/DFn+n5YVigPz1Ke8HQuAb+ynnCGPTxqNUTdRhVQwzoEf/68EwnOxVCsnCdcKOrvEly6l8tEFytWDP7+/iqW9PTp04iJiYGzszPKlCmjSnBRHMvUedGAA6QlS5aousT//PMPUlJSVF3iYcOGKVHMc6VQngsc/93Jx7rm8fogW99wa0+Zz5u40/cliMdYEIQHSTa0rFhc2LEVJ0P1bqFMS3Tt3AGPdG6AKiXskOtnons2CZEHduLU6WjEeTVGhw4d0LVbE9Su4A4ndczVsHfIQlZ2fZT0aIAmlXhPx6MhPEo0hK2NJSzZWZ86ipN2Gg42q42y3E9KPIKqLXUhXdcRut5EZr5hHAZ6R6ZbUQtL/bnU/5cQetwKfvbl0KWxKXQCNdCwph96V85WnmbLkCCc1DyxM1WD/86NWLV+A3bvykFoUHF4nzqLsGTt3woY1t4o8/DDeKhLd/Rs4IdqOWHYuvUkgmPS8oRXuKJky9Zo1r0HujeriRbOUdi386T+fcbfQSWN61O+fHm1fPTgwYOVBzk5ORl//vmnWjlv27ZtaolpEcVFg0x9sHfs2DG1nDPjinm/ZcuWeOutt9Qqij4+PqYjCwE5+hUXH4Rtx0JxKjz5zsWn/vis1GhE6IPmc1FJSMi8VVFM9EdkpyMz8gT2ngqBf0QKNLn07hgRxoIgPEDsYePcAv237cX3w73gvrAP6jZojMaNh+PLuftxLFOXuBrNVA10mb0KX45/FB0PPa9idxs1eRZvfbsGe3X1Z4jXK/VYDnK0ErC3KwFPilduykxDjt6RULip+3EXkRkfAYesbOgvdSUMCdD/v7afybslRxf2+mHZ+vOpzRGIPZiJWP8cpGerA3SykJ6RhZQs02taOcHDczeij3+IF1o+jK4dO6D5w8Mw6u+5OOYTg6hozRQKEoNLRxdjerOm6NKoHmq++g/GF3tBFyLfY1grH/ioj5yIpNjtmNe9E/o1ro+6Az5H3/Ce2HBgIj59pj4qXfvm7wpc1vfDDz/E8OHDUadOHbVt1apVmDFjhhJKQtEgPj5ehVAEBQWp+506dcKkSZPQuXPnwhc+kREDnPwbz45bhp+25A1Xun0SQrZi9eg2mLbxFI4mmDbeKinhiFs/Go+NnYXPVp9TbgThzhBhLAhCwaByP/T730qcOHkMp8/8gJ4X38XnQ3uizu9BSM8ydUOl2qD5y3Nw/Phx+Af9jdcrLMGiofVRZuIRBKUBzrb51GjLJ+aVU/1qq3c5OHj6INPKEoZ/9zIW+nPpwvLqR1vxWPUy7IL0TmlPGhIP5x4O+MCrmSU8a+TA9rJ1tYatjRUcrE3PlJaIqIqPofIb83Ek+DROnjyBk6eDEHR+P04c/Az9q9jD/fA3+PTpN9G8fxJqHzyC1QEncfKvLzCnW6nc5yBn/8S8919G+eoHYTNtGf4KOo1TK2dix4BKcLvmw9wbXnzxRSWQ27dvDxcXFzV1Xr9+fdNeobDDMAl6hnkecMbg22+/Rc2aNQv4inama/8Krt1yDfbeQMNXsXv8s/isR8V8BsxXcfkp//u5OaDmc11zlGGj8mKyZVdsd3GAnZWFyl+44XvSH3ntu7l2S1FHhLEgCAUDa1e4lSiP6tWqoUrF6mjcfQj6P9oXQ+t5QNeiuVg6wN6rLKrpx1QuVxGNH+mPHr1fxBtNS8DTHsj4NyvuxrA/KOkD3/A4lN58EOdytwKhc7F58Zt4euEZpCZm6YKW7ma9y2FHlZGEw/4hOHqJ/mV9e9wBLAuJxbokK9jwEHijXsvauJiVjdmb4nOfT9uLzbsDMW2ftS4YgOwqNdA4/CgaBRxFcpnKqFq1GqpWjkXUrjX4+JODOJ+tIadsS7Tp2Ruvv9YOjWtWR81K1VCtbEmUcc4jODxqo0a7Pnj7rYfxUOsGqFWuCqpWKINK7rnF3e5Hd8eYY4a1fPDBB/juu+/QokULWea3iOHl5YXnnnsOTz75ZMEVxVdcDJy5SQVOL8CLz36DCf+cwHkj/uDqi+bSCowZOQ4fTNqOgFTdtlzcjd9WH8HmoAykJ53BmeUvY862fzDl44/xYc+e6PvcEAz4eQ92XNCf/7JKtUD2se8x/6tH0aNXX/R98mn8ticUEfoeB1a90c2IpaUNHJCI6L2b8MuINTgSmYIUzmqlhSPp1Aq8Pm0H1gfE5tohPmPiLoz/9FX06DECQ5+fjrURdkiztNMH44xSziVj/xj88mFv9Hj0cQzQ39e47TE4z1kr7SISDszGwAHj8MuGC4j5943mor4DBp6dwda3hmLCpzMxN4Tb8nI/rMuDQ5LvBEEoeOh2196nti6A66BJKQcVD0xTfIUJ1zdYe1VEueqN0bI008+A2ON/41RoOAKKD0SfskHY9edFRFoWQ6Nna+qSVe+A4g5j85ForI8ogeHdq8DdXhe0p4OQdfIEtqZnIjrkHPatnYllx4NwqlgnPO3lj6XHshFm6Yfn2/vAOukgNq+OxLkj52HjGIGzwaFYu301snyros7DfVDfyxKurhoOnzyPrVu264I+ARePBWDF5vV6p2SFmp2HolE5T5Q+swHpxw9i7QVPxF06jVMLp+HP+aexJaIiuvSthJJu5VChZlU0bVg8N4Y6vw/vUBLe+gCiZQsfFSpy9TFXdXf3BHreWaOWcccNGjRQ1SqEogfFMZMvCyzqYohFyOoN2LPnIA6cOYoDQeexZl0EfOvWQI06peCpjktB5M5tOLB5F3b7H8Mp3R6sWHsR9qUqoVFDTxT3/ws9fo2GVcnK6FgmCMf/GIlvVrkg+EQ4MmKOwj/sNNZs0p+zahXUqllSv3azgRh/LFgzA/9sO4bg4BQkRRzBxUu14OFbCd7uQTi7+m/E1B6OmuXSkbJpPb4bE4gKzzeCXzEHOKScQ/yRpXhsRhqq1CyH1uXdkBN1DP6/fYVvlx7F3vNWcNVFrIPlMWyOqYQ6deuhe01PZF7cjz9nT8TSXcEIvpiElIjjOB5sDa8SlVGrpBUyQw/i10XBsLaN0AX+OZw8EoCjsY76fje4qNkmxoFF4uSsJfCPTcZFWyvEnDqAo4fDkWzrDnf9vRXmOiM0p4IgCAWLfFTdNZvyOcbK3h2OLsV0wWsBCyt7OHk5w83D/t8wCSsHODs568LTDlYWVJKV0PDlRzHgNWfMemMABj/eDS/OdkJwhZ+wRRfTLl7usLN3gKeD/lA4wLfzz3itpDX8Fo3Bc4NeQZ/DpdGmeRWMbO4CSz4dW/mn8UwLbzwT8z1eGfA0Hp1uBae6tfHZix5qEY7MTHdUfGcM2r7QFKGje2HoU73Qb+xJhJTuiqmre6GJk821nc7NfPh8Nt1rJMmuaJCTk6MGQWZJTrb+/qMRFb4Xq18bifcHPIm+7/+KtxJ6YunWcRgzoD4q6Z8vJzMeSenHsfnTMfjimafQb8QHeOJ4M3w8+xv8NKotqtum6SNxB7g563bF1hJW1tawsgMOLLJB+ac+x+Q9J7Bv4f/wcuRMhO3ej13R+munRyN65Vv4+EJ32L58FPv278fObVNRfedZnFq0G+fsbdVlm3sVWcNaH2S66DbKxsoyd5uFFSxsHOHkbAcHW/3FEIGYk0vx9lsLUbPXV1jvPx/LFw5ArbgjsE6Oh6Yfm5N+BhdWvI93TjyD6m/swZEDh7BjyZdouvodbJj9FxbEFIdr86FYu+lrvOC9DhvefgJ9nx2K/t+swtqDQUjVspCZw1mnGug8axE++qIz2gaMxVNPPYP+A/6H8bM240B8DhLTs43IjkKHhX6yF9KPJghCUSMnPQ5pmVlIt/aEu20GUmKzkGVhDSdPkzjOTkVSWjaSsmxQnOJYPUo/JjUJ4THJ0CgAbJ3h4OSCYs76I7KSEZuiIdvCFl4u7MRykBEbi6SkZKRY6Z2HszvcchJhbW2LHF2UO5kUeE56AlIS4xGfbokcO3e42KbD3joHWTbF4KgfY2mRrb9mMuKjE6B3t8jRbOHg7AxXD8dC6YlhN0NxZUyz876IavOBC3fY2dmhRIkSpi1mxNm/sXDqYjz3cyP8tOFJPFK3GFxSdSFs66hfl6ZzMHwbDs2fgIdH1cCrvz6OQf0qwzMxE9m2+kDazirXg5h2ETg0HeV/9kTPx/vgi5ansXt8G3SO+hUfPdMX7zZzQVbiESx4oTFOtpiMhgMGobvNIax4pyW2NZqFxl36oE9pPlE6EsKzYOtpi4TzK7F2VE+c6X8Uvds4w27lUrw3MBkDTw3FQ5Xc4ZF4ClG756Lc1NL4+NVH8UbzGISumYvqPzrjm/cfx5AWpWGZfgmZO8aj1u8+aPvoI/r7Oof1bz+KPxuuxuC+bfCoKgySgeNfl8Dvlm/Aq/UYjGrCbfp1mJmC9IwcZGalwiphC7567G0EleqODuMn4JmyHPjyqGxkp6chWRfCNg458P99OKZtPIY/m8zCwcE1UMb1stuh0CAeY0EQCgkaLHUR6uhcDB72lrCwNHmMKYpNw38tr8c4d4v+nzWsHdzh6+uL0n5+8CvhkSuKudfaCR6uziimRDE3WMLWwwuefmVQ2qcUSrs6wMXdWxe1FMXGi+iG1c4VzsX81HP6FXOCu6sn7B2LqWWkWdlN01/d2sEVXqVLw1dvfn7eKFZIRTFhsuRrr72GmTNnqprHFMXikyn4REdHY+zYsRg6dCjmzJmjyrGZHcWaosHjz+LbL32R9t0H+LxbD/R+53MM3xhpOkDHtRL82g7C9z/VRon1P+PnLt3Rd/ibeGZJMC5dPk2vPF9z9PPXUr+YG9cog3JeLrnbrOx1+2MJG1vd/ugGJjM1BIHLUmATZwU3R3WIjh1cSzjB3sYGtv9ZClJHv04sOZjUbYaFpX6bGI3oC/5IcvaGvZN9roDTB+02uk2ysqaXN1tZtJTEdATMeA3vPdEZ3bt1R6dOPTB0Uhwm7orCvghT7oNO1NYf8du7PfHk86/jqamx8HzqHQx6rT+aeek7TWMGpJ7A6SX/w7PPDcLjvb7AggsN0PC5T/Bte194OhROCSnCWBCEQoJhyfPBtOvaI5iIc32u2fdfBxs7//OYXG7ikEIDFwFZtmwZfvrpJ7WUNAVWRESEeIwLOFzAhavYsa1cuRJr1qxBSEiImQ1o9PfqWgHlGnbDkKGNUdVJ35KQivSkcMT5b8J3E1dg+7FLiHYoCa+aXfDss63QvKwDLGOTkZoci/SQHfh14lKs2xWK6OzcYatx1vJb4N/l7B1x2Wmak43sbP2Gy2AqdGFrqYtkDgRNW/JyzSWgSlPaqmRjJc6yMpGeEqtvZ1IxD9af5Ybfv75fP9TbzRkujvbqPVlZ2erjg6fxSIt2eLik/nwX9mHWzH+wZOdZhKWmIy0tE0lWFdB84FC0a9ccVVyy9KeIwJlF87Fx1nKsC05FWmoqkuIz4VyjBzp0ehQD63jpA33LfD+XuSPCWBAEQbhnnDlzBidPnlQC4cCBA/jmm2/w22+/IVXvaIWCR7au7Lia4c8//6yqjXBgQ2Hn6Oio/jYv8irPymgzZQZ+3LEdm2d+jkV1AzD+oxn4de0ZXLys7kqgzuhx+HTXDmxY8BdWdYnD+sl/4vMZuxGUxRjfK5+RD8vMycG1jt9saLpAtnbwRZlHNKS7piPh8mo7+t+XYpGcloYUCuErxHG6roGjkJZhupsSjQuBh5GdxWLpujh29UaxMjXgqQv7jOQ0lSIHLROZMZHI0kU0Z6K4woejsz2aj5iMCYsXY5k+qFmxYikWTZ+EBSN74eXqOYg+uhzvvvY39nsPx/PTtmH9sjlY92F7NHHn8/FJKcTPY98XozDznyjEdJyIVatWYPO27/DOE1Xgm0cOX/H2CwkijAVBEIR7RvPmzfHGG2+gX79+KsaYi0HQc8zQisTERNNRQkHh4MGDeP311/HDDz+o+xTFY8aMwRdffIGmTZsWEk9/cVi1eBNHz0zHT8OaoXq+H8kaqDIEy3dOw5IfHkMj22S19eYKQmrKsWtp7YnS5TTMDwzAyrNKxgKJ6zCuw6v439sLsDPDUQlLhlfRUwwtEBnaDzh4Kg1c7yMzLgB7169HZka6LtYoRkvDpXwZjFj1Ls5vP40DfFjaWSyf/i0iL57Xn8gV7p4V0aRta0xfuAWLtzEDkOzCH7XKY+BzX+LrgHLwemQUTgVNw7jnav674qeB8V5QH33WH8BPcz7BqNrclpfCcA5cHxHGgiAIwj2lVq1aGDVqFN5++221KMTFixfVEsJvvvmmrJRXQGA88V9//aUGMQybICVLllQCedCgQahYsaLaVjjQhZ21PVzdnOBoZ23KN8gHKzs4uzrBWTmLdWGblYrYpDQkZ+RAy8nU72pITMtChknz8pgMfX9qWjr0/wGnEqg+aB5es9mIi2NroHGjhmjW8gUcb94ajZ/uhno2iUjXx4b0HidZ+aBS884Y+rIv5ozpgqbVnsVLH+5DZuPHkZ1upT8fZ1j091yyBYaN64O9i8egY6X66NL3DRyp9iIq25RC6YRY5NhVQqmuX+Dzqr/j2HdNUKdxQzRtPggvlemPsj064ulq9FLb5X52W1NiYb5YwdbFFY7ODrC/7hdUOJE6xoIgCMI9gzGpDKNgRYMKFSqopYIZqxoaGqpCK7itatWqaqpeeHAkJyer34MhFPzN6tWrh5deegmDBw9WAlkgFkhxKIeWtcqghre1fi8HTuU7o05pT3jz9NVykJOVBc+aHVDOzw8l7a1h41oDFREJq7QUXMjxRrFSldFt+DB0bFocpS3SkWVhieJ1OqGcjxu8vLxRpqwHLsWkwcbSG9XrN0Hb3p3g4FEaHeqURHnWjbRxg3MtP8TEJCInNQN+lWqjbf+XUbtEaTSq6oXSvq6wcSmFmq4hSE2xRFSyF7x9KqHyoDfw/CO1UdU5N1qicPt87wwp1yYIgiDcN2JjY/HHH3+oWGNWqHj55ZfxwgsvKHEsPDgYW3z48GE8//zzsLa2xpAhQ9RSz8LNQSV1ZZTJjeTn1ftz9C2m+sXXw/Qi//nM176RK7jBbkFHhLEgCIJwX4mLi1Ml3Hbu3Inu3burJb6FB09GRgb27NmjvPg+PqoAriAUOUQYC4IgCPed9PR0xMfHw8PDAzY2rMEqFATS0tLUMt+CUFQRYSwIgiA8UNgNSV3j+4t854KQP1KVQhAEQXig5CfQKNzovRTuHvTQc3lnlskTUSwI+SPCWBAEQShwJCUlYe/evUhIYEVX4U5hObaFCxfivffew+bNm01bBUG4GhHGgiAIQoGCnuItW7aocmEDBw4UIXeHcPXBr7/+Wq1kx1rFs2fPxr59+0x7BUHIiwhjQRAEoUBx4cIFJYy5lPSiRYvUSnkrV6407RVuha1bt2LcuHGYNWuW+l5JqVKl4O3trf4WBOFfGMIlC3wIgiAIBQrWOg4ODlYLgTAE4NSpU2q1PJYR42ITrLMr/Depqak4dOiQqhdNDzFDUiiGe/fujWeffVatRigIRRleI7QvHDDS3nAVTpaQlKoUgiAIQoGDndbq1asxevRonDhxQiWLValSBVOnTkXz5s1FHP8HOTk52LVrF4YPH46jR4+qxTu48uCTTz6pvs/ixYubjhSEogGlLq8LNhIZGYmAgAC1qA0FMeuqc4aKK0CKMBYEQRAKJBTHTMBjfOzy5cvV0tKVKlXCG2+8gQEDBsDZ2dl0pJAXdvaTJk3Cr7/+qoRA7dq1MXLkSDz22GPw9PQ0HSUIRYegoCC1eA1j6/fv369moRwcHFCjRg1UrFhRzUZVrlwZZcqUEWEsCIIgFFzo7dy+fTt+++03zJgxQ3l+KIzff/99eHl5mY66PVJSUlT1C6PRW8RtFORsXITEaFwVLjMzE1lZWeo9Ge3qLpTinc3Kykp5tdm4gAmbnZ2dalxAg50ym6OjI5ycnJTIZ3NxcbnjBTYYisKBBL+junXrKk9xly5dRBQLRQaGRnC2hJ5ghhQxoZfXG68xXm+cNWGsPUOzGGLExlkVXp8ijAVBEIQCz5EjR/Ddd9/h3LlzeOaZZ/DUU0/lKyDpIaXANUSu0Qyxyw6S+1jLl9vzCt+8jQKY7WoxbEzHsrH7ZGOYh3Fr1AemMDZEMhsFMrdRIOcVy7a2tqoZopl/Uyy7u7urjvxqEW00du5s16tHzM/3008/oWXLlmjcuLGsZicUahhDz1hh5iIwRCI0NBTh4eG4dOkSwsLClCeYg8SaNWuqVr16ddMjr0WEsSAIgmAWUNiyw6Pnk40ilwLV8NxS4DJhz+ggjY4xIiJCxRSyMdmGC11QUNI7y+fhstRubm6qubq6XvbeUnhShFJUshnC1fAE5xW/fH2jGaKazRDebHz/FOMU5oaXmh06309cXJzy9MbExFyu3cz3VqxYMdUMjxYbvVxsPj4+6pbvk/D9GO+Jovt6olkQzB1eZ8YsTlRUlPIKswLL7t271d8MuWrfvj1atGihBof0Dt8sIowFQRAEs4HiktOkrM3LFhgYqOIHz549qwQxBasxTUoRSUHJ+4bAZPgFBSc9shS9xBC3FJLG7fUaufr2aoxuNe/t9ZrheTa80ISCn509RbzRKOq5jSLfEPz8vBTq/KyMkWRjvCQb4yXZBKEwwutg1apVWLNmjbrl9fzQQw+hadOmSgzzmuBg1piV4XV9s4gwFoQih94hQ+/kTfcUtAJ34ly65vH5vMaNyOc93OnbEswbLl9MwWs0hlFwWpSdXF7PruHdpQeY4pf7jFADoxkhCAxJoOfXHKBANsJADE+z0QyPM8UyPc7cb2xjGAWPocfaz89PCeby5ctfFs70NAuCucHB4aZNm1SjbaDo9fX1VeezkUDHv+/0/BZhLAhFkfQoJFwKwl+nXNG2YRlUK+Zg2nH7JIUdwsWzp5Fa5XFU8LKC821U00oJP47QU4cQ5tsdtXzdUPzO35ZgJhieUN7SG8pG0ZdX7FH80UvL8AHGDLJTNDpGeojoHS6KMGyEjR5kDhzYGHLCRvHAgUHeAQQ96fzO6Ennd8bv804TGQXhXsCwIs4IMceAZdUojnme00PcoEEDNGnSRJVvvJuDXRHGwg3hKXK9Rq439SgUYOKPIHj3SjT+uywmvP4w+te587qmZ5aNwupp3+PiK7EY1MQRFXPDHm+JsI1fYOG497GsxzGM7VkTLW8+LEwwI+jJpDeUcbeMD6aAY4kxllBiYwfI8AGGArCcEpNleFutWjUVOyjcHAzN8Pf3V/VZ2VgPmgKD4oLx1MZ3ytuqVasq73LeRECGpQjC/YY2gbaBNoAl1jZs2KBWwqRIfvzxx/Hoo48qQczZn3uBCGPhuvDUYOfFZmRzX32fhtPImDYSVNiM6Up6K4R7yc0EG+RzDAc2+n/ZOab4yrswjjm7cizWzfwJl14OxdONHFAhN3zzuvD8unoAFbn9Oyz8bjRWdj2AUd2qo1lJ047rcDOfXihYMFmG4nfbtm1qEQomzDDxjKKsfv36quZunTp1lCimR5PJZDxP8ia6CTePEbtsVNQg9C5TKLOcFQchrO1KsUzPMeMzmzVrphKWKJoF4X7DvAEuBb948WI1aGbsMAUxbxkORV1Be3CvEGFcSKFwNTKxeWs0jrjyZkkzq5MCN+82YzsNKT07PEWMbGcjG9toNLRG9rXRjAxx4zE8iSmSjaxuNnoleD+vd4Ji2pjay9uYMS4YUM5eFbsbOE03ILPwefRoTHy1JZqUyEeRxu3A3tmv4dWzb+G1gd3Qt3osIg5sx7ANJfDaM/VQ4dJSnFgxH6mV+mL6n3MR6O8Pu+otUGLQh5jWwRclHAwjFIjVfUZiVkAA9lo2QrlyAzF+fidU08c/wSs/xNpZk5QwHuazDxsPhWJBeEVMfLkhvCiAz63BliNH8UVSd0zuWh5l3WyBxKM4s/QFvDY5DYHlH0ddrxA0i52NTQ/txntdqqNpKf0Tp4XhyA8D8NX6OOwNzUGVes0w5Ntf0NkHsEs5iL2L1mLYjwl4Zfr/8HgNfaBmeqeXSQ1C5O7l6DPqHLqPeRWDu5XGFf5xUdf3HMYGc6lVCjAu2MGQCMa8MvyBU/oUxWycHuX1zsYpf+HewdAUVsHgoISN09OM46ZoZigG+wvaeE5Ts9wbxfKdxm4Kwn/BihIUxAcPHlTnHkMleP6VK1cOpUuXVrkD9wMRxmYGRSfFLY1afrdsNHKMyaPANcStIVgN7wF/dqPlvW/8bXhoKGrZKGCNW6PxPo83hLRROsW4Nep/8hgjvCK/sIu82/KKbkOIs4M0SikxuYaNF4hxa/x9r6ZVCh76b3t6G75bcABpmUBJ51Ck29rggEV/vNu/Hmp6sV5pDnBxOybN3Y0LMeko7hQDR6c4bEp/EoMfa4eHvY8hcPVsVPqlEn7/vhtanfsOC78ch+XlPoNjzkUUj92Ds1Eatjk+hwUTnkbv6m7ISTyMgM3jsXBKBgJ1nZyYof/GCV6we/91jOlSAcXXf4p/fsv1GL/mOhfjFvvjq+DGODOtO0rrvy0OT8Ef69bhmdjXceT1pqjtEY5D82diwrjJOFe2IVxq1IdX2AFY7F+P8GG78GGf6mjkchzHt03DR78dgpbtDcekECSl5OBSlY8w9s126FQ6BP6bt+KjmaFo0kQ3ZdmZiMn2g0vNDnixSzm48evKCEPs0W14+6cglKuUBU+3LEQlugOVHsGzPWqgnApNE3V8N6FN4BQ+PT/0TLKEGrdRENMO0TNJzzCn79kY8yo8eOid4+92+vRptTACE5wYl0zbylsOZBjWwnAWNvYBgnAn0DHHc40D5wMHDij9QocYRXHr1q0fyKyFCOMCyNUeXApNCkyKXyansM4lG+Nv8rulKKYR48lFQ8bGjoijfXpi8npvjdCH/NrdMHoUxfw8RuPnMf6mVzvvfWZRM+GGHgvjlo1eDYpnllgySi3ld8vGjHRDtBueaONzUmibN9lIjbmIlPAj2LVjHYZ9PB9xURFoP+w7DH1/GDqZHOvpCRFIvnQCgSe3YOjYv3HqdCAa9RyCl8ZNxFN+uccg9iDO7liCqjPKY+bnndAq5Ef89vUEfFxsBtZP6I02HmdxcsaveGjgUQxf8TNe6lIaVtsm4e/Ro5D2xXk81cIdZTKPI3TdJLQ+8SR+eqo+mp3+HvOn/qiE8avuizFpZSB+OFcfB37sBB8K42O/Ye7mzXgybhiOv9IE1UO/weTvVmPkiuexNqA/2jpG4PTUMRjz7l9I+XwvPn22Gqod+hgzfv0f3qx9AluGV0MD20sI+ecXNOyzGs/N+RWDdfFcXc2sx2H/F93xzex9WJreHKU7voQfB1RBrSqV4OrmCmf102sInPksfpwyF7+HVYNDm5H4on8tdGxYCc7uxeAmffwdweuZNoqzVCywbyy9SnHMQe3DDz+spuc5HUrPsFDwYX/DkBeuPLhZv3bpVabnmAsl8JaLJFA08/elnRWEm4WahrMSnEFauXKlyjGgXeDCPb169VLOrgeFCOMCBg0RR+tG4+idNTvpcWFJHoo+Q+wagjfvrfE3xSLFoeH9JcZtXvLbRq63/Xa53ml29Xbjft7txoAgr2DOe2tkYvP7oXHmd1C2bFlVvoXeKI44acCZxW7exjseez9uiw9PFMOJ9pMR8Hx52FhxYQH+XqZDkInTvz2HH5fuxq/N5uPEkJqo4G6rvs8rftM4XRhv/1cYNwv+Af/88hs29diLr7r7oapHFEI2rcL0dotRYs1E9OyYgOjpq/HRy0l47vQwtCrnBneGdegDnyzNSn8fQNCqD7Fu1s83JYxPvtoEfrsH469tB7Cm+ib81MNdVaCIPzIN2+eNxLSKBzGmvzucpn2ImaMWw3pZCJ5vYYPS1vr5cG4Vlr7dDWee2In27ZuglZFMr39GTX8dCy0SyScWYGTzEbAYMhW93xmE7peLFejHMBQlJwmIXIX32r6M4EpPodPE8RhY1nSIcMtwYEvhxA7un3/+UR1ep06d0K5dO3Ts2FFdh3lnju62fRHuDbQbhu2gw4V1o5kItXbtWhWfTPFCEdOtWzcVH06HjCDcCJ5TXISDKzMuWbJEJdK9/PLL6jy6pq96AIgwfkDQU8rsYIpfo1A947so9Oj5NFY4YqMXlCMpwzNKcZzXE2r8bbTCOL1lhGwYjR1x3vv0qtNwG3HU9J7nLf1kxMuxziGnACmaq1SporKxWe7JPMhCYshJRFw8hd2HD+GbSSuQEBuFhwZ9ioGvP4e2pvCrlIgziAw5jpNBJ/Dlj0sRHBiMul2ew3Mff4E+RpWHqzzGTc5+j7Uz/0DIi4F4ubEdSjtGIWzrGsxsvRCe6yahT6MzOPzzcvT6wAszzr6ATmVccXUXeHblh1j/x38I4xOzMH/zFvSNeRGn36gNu/nP4o/NATjecxt+7OgMT3sg4fjv2L3wZUwucwhjnnSD26wv8O2LE7DAryrsHSzhoJ/aGUlRSAqNRPkPVuCdQV3QWwnaRByZ0B8TFx7G6vQGKNmqry56i6NG7XrwKuUNL9MlcW7ecEz9fTFmX6oE+6bP4NW2PmjVoAY8S5dDCVkx95ZhTODSpUtVEh3DJDgIZeIcB6IcnBo2y/xnawTC8DjaVk53s79i4h4rXXAKnH0VB0IcEDVs2ND0CEG4EnqGp0yZgh07dqBevXrqfOEtcwwKysBKhPF9gMaEsVps9PyyJh/FmlGTkz8BhR/DBRhPS6GW1/trJKAZqzQJ14fTM/Qcs/5pXq8yY+do0Lmf37kxIqVY5vfLwH56lI1WsBP+4pF6ZA3em7YVKWnZKFcacPYtjRDbLnipew1UcrfVj8nRVeBqfDR1I85dSoRvSSv4lnfDaYuu6Ne5GZp5nEDQhoWoYhLGjQO/w4Y//kL08PN4rq4FfBwiELp5LX5vuwjF105C7+bncHrKajw7yhXjzw5C+9IuNxTGP60OwoTQRjj8fXt4wwLZB7/GrA3LMDjtW5x+vSGclvTFn9tO4Wj3ffixrT3cdGGadGom9i56CT/5HMIHTzrCadp0TB6+AOdeaAcPRws45GiwsLGHa3FvlGvdF53KZ+mf8zC+m3cOlUqdQ1RMAkKyKsG9YW+892RVePKNZYYj/vQ+fP3neXg6ByMnMwaB8d6wrPkYXhvQAFVUaDrNoHgxbwbO0FAIMyaQ1xQHqZxOpyhm3DA9hxIzXDRgf0ahQ2HMvxkOR+cMnQ8UO40aNZJzQVDQVnCVuvXr1ysbwn62d+/eatnmgubME2F8D6BxoDhj49+MsWMzxDHj73gicHqRiQwsS2QkM4gRuXfQs8zQFMNDz5JRTAyicOYAhN5kerl4wdKbzAoZHMEyfo4e+wc9vZOLKRTAdE9x6kfMnvsrPoj6HDPea4eWpfIZQEVtxPaZL+KFgLF4b9jjeLZaEILWzP9XGJ/VhfGsPxHx8jkMqq+LaIdIXRivyRXGayaiR8c0xM9YiC8HBqLbqS/RsaoLPJCKzJgQ7I90178vD8Sv/QzrZuRWpXjVfREmzjuGcQF1seePx1HJEohc9CJ+mrcYn9RaiROvNELV42/g91V7MNPuD8x4rRz8dGEctfMHLJ06CktaHcaHA4rB/a/fMfvzXcCyeRhZFcitU5COmNNB0EpXg1fWAexa8A8GfBmPd+d9hQF17UzH5CH1DMK3LkL7EYF47It3Meyx8riiCpxo4hvCwT1nXTjDxYxxeooZG0jh07VrVxU/zOtGKLqwb+PsAYUPq5CwP6MHmeXfOOtJGyul9ooenM2l5uFqdTw/OHvE8Jsnnnii4OYaUBgLd0ZOTo66zc7O1iIjI7VVq1Zpo0eP1nSjoLm6umq6sNIaNGigDRkyRJs0aZK2Z88eLS4uTj1GeLDwN9MvWm3evHna+++/r3Xu3FnTByeao6OjVqNGDe3555/XfvvtN00f2Gi6sFaPMX5vsyb2gBa47H+a9RMztL8CLmkBq9/Rpjztq32yPUsLTeEBEVrIpj+0T/CYNnlVmHZeS9FCl32ifWRpo42ec1Y7nKYfcnGTdmByL832sanaL0cvakFbP9WmPlVc+3hruhbvv1j7ZtAAzclnpDYjKEtL1Z9h31u9tL72ZTSrL/ZqJxL0xyet1xZ/PEqztP1Km3s+WcvRTmg7vh6gdbZy0br+fEI7kKgfc+wH7c/3nTWMXaetCs7UN5zTzix5X+utm65Xft6t7ZTL6J6TkpKi7du3T3vzzTc1XeBofn5+2tixY7UjR45cviYEwYA2dfv27ep8qV27tqYPmFR/SDsrFD22bNmi9ezZU/Py8tLGjBmjXbp0ybSn4CIe4zuEnhQGkRvF6tnoZWTsKuPsDG8wvY+MB2aoBBvjhIWCActHMawlb2P8nFG2iJ5l3qc3meVjmI3dqlUrFTtptsTuw5nNC1D5l4qqXFvzM19g9bTfEP5aHF5qZAU/x3CcX78cUzrMQ4llk9G5W1lUST6F0LW/48O3FmF7TCQissvDw7UHhv8zBAMa+CB1+btY9st3uPBqAoa1cIDl1g8w5YfP8N1+X/1CeRpPtw6FY4NkfJfxDo6+2hC1itki4sAczP36SXyz1xORkb3QupYNOvYMxCqvn/BR1ypo4ROHSycXY/r/3sX8AxrORyXDxdsPFfv9gE8GtUbT8o4QH9Tdg91B3pmRdevW4ddff1XeHk55sjFUwgg3YiiSIFwNZ+eY68GwQfaJTMxkEnmtWrUwcOBA5UkWCjcMD504cSL++usvNVvAahNt2rQxi1lxEca3AeNXWYaIgpiNZYoY/8vYKopeoxoCi1KzA5FMXfODYplxUDTmNO6ss8jf3Uj044CIoRestUihwIGQWZEegfiwQEw/4YYurcqhZNx+nD95Eql1X0RNbws4W6cgMfQcjs89A8c+beBXzhUeyNYF7lmsm7QIh8N1YWxRHl7F2+C512qCpi4xaAeCTx5Ccp0hqFHaGq4JB3F230L8vdUSCSnN0fIhO/jUtsDWS9XwbJ1i8HLQRVVaCCIPT8esDRm4ENMQtet4o1X7NBxPbIzGvq4o5aKLtKx4hK3+CUuOpSAoJgcevhVQs+cLeKQMYK/vlkiIuwvPfU6Hs9A+z3kO6JnvQFHctGnTAh5/LxQ0mOfB8BuucMiQQk6ls39k+A0XDuH5JRQuGDoxb948lWDH37pz587KmWQuaw2IML5JWB+YsagUSoxLpVCiF5EB5fQKM46K8XYsOyJJcoUTeo4ZW8n6rEw8IvQiM+mIApl/U0Awno6DpIJLPnHKV8ASTUxQNN1V3OAxXGn2CtftNRuuQdNYvutGx+hG6j9Ur4jiuwdnSihimEi1atUqdY5TuAwYMACPPPKI6ShBuD1YdpMDLpbn4kwcZ1Q52OLKZnQgSeUS84deYlbbWrBggRoIcXZ12LBhZpd/IML4P2AFAyYLUAzzR+ZFzRqdFL7sKDgKYo1OCiGhaEGPsVGYnDU9aQwojpmI1LZtW1UAn54QTktLwolQ0OFMCBdxYNgEhTHPZdYV5UC/YA/yBHOD/SoHXpxmZ/15ehKHDBmiPIviVDJf2CfSeTR27FhVBerZZ5/FyJEjTXvNCxHG14EXL6cCFi9efHndbsaX0jNM0cPyXhQ+vJALRrUC4X7DkAqG0bD6COt57tmzB1u2bFHGgbMIHDg9/vjj6m9BKKiwmsD48eOxfPlyVW6NsYC0dVy8QXIhhHuBseop7eWMGTPUoiFDhw7FSy+9pEIQBfOCeomzqfwNy5cvj2eeeQaPPvqo2Q6qRRhfBUMk6AHkNCJLrbGcCJPnOO1jLA4hMXbC1VAkc2aBMXRGKTjW9eT0IEu/GYlLhXHxFcF8oLk3BvKMH+bAn7VFCcMmOPDnAh0PcjlWoejA8B3OVHBQxrhUJmlxwQfWtxVbaR4wfIJl2H744Qe4uroqTzF/Q3POrRJhrMPYJ16UXOKSU+IUx1zZh+v6M0GAUz38wQXhZmHRew6waPS5Ap8Rh2zUreaMgyA8KDhwY6wnPXXs2Pr164enn35awiaE+8bVg7Q///xTeZCJsYIeE9klFK1gs2LFCuX1p4b69NNP0aFDBzXTlPf3NTeKtDBmTAwT6jgFzthhZmHTu8fpbxagppdYEO4EDrAokOfMmaOMPqcJ+/bti+7du6sVDjmqllAc4X7CWY0ff/wRy5YtU/Hwb7zxhvlVVREKJXQoTJgwAQsXLlQx7gzrYYk3oeDB6jUsRPD222+rIgQfffSRCh8sDP1ZkRbGf//9N8aNG6dW6aFQ6datm5pOZGUBxhRLlqxwp/Dy4gCMMXWGF5m1YVkC7vnnn8eLL74oMXXCfYOD/8mTJysv8YgRI1QsMVd2FK+cUFBgmUzayW+++UZV+qFAZv8sFCwohjlw4SwTZ5u4kl1hcfIUOWHMRCledJxGZGkiFptm5jU7CMYQS8iEcK+gQGYWNsN1OIXNhD3WvWZcJ2PqOFshCPcCzlzQE8fcCYbxsCNjeUmef4JQ0GB5VC4Kwhh4/s1qPxTIwoOFcpHil9qJs05MuGOiHUOxzKVG8c1g9T8d09+FGmbAclEOVppgTAxDKOgd5oiHooTT2hJfJ9xLOAPBZE6WJaIIpoFhWZsTJ06o+Cyeo0zslAVhhLsJk0J//vlnbNy4Uc1OcOUxOgKk4oRQUKHIYigjZzNoI1kak7McnM2VwdyDg30WixIwWXL27Nno37+/0k/8nW4JumMLsHO5SHiMIyIi1IX122+/qZgYJkKxrAhrEAvCg4SLxDBxgWE9XDacI2+G9Pj5+YlwEe4YVkiZO3cuvv32WyWI6XVjZR1BMBdY3eerr75SuUCDBg3Ck08+KZWhHiDMl6EoZrnaX3755d8KNlo2MpMuIjohEynpFNG5m3OhzLSBhZUripV0hqOtVYFeyr/QC2PGcvLHY8fQo0cPFVfHjFfW3ZN1/oUHDS8/hliwcgVjP2l06BX58MMPVUWUwhKzJdx/6CmmoODAi7ePPfYYfHx8THsFwXxgCCTzgZifwWpRn3/+uTgO7jPsq5iPNXz4cFX7nLPvrLBk5GJlp0bh9O8N8crE81h/wgpW1sZKqVxJNRs52b6wcRyJn7cOxmMNiuMWfcz3lUItjLks4R9//KFGnCwh0qdPH9SrV08uKKFAwvhjrgjFCin0JDPMhytCycqKwq3C6WdWm2BZNnrYBg8erGrECoK5wvDHqVOnqhKYnPWlOJaV8u4vo0ePVgueMRTr3XffvcJxk5UcjiM/+uCPlGGw9HsMHXwSkZnDPVa6II5A+KHzWPVWDnpuexHtW/rCWz3qOuiyVNOf+5bcQnyM/ojr+pLye84cfZvlta9TKIUxBQZFMYP3GZfE5CZOURvrdfMjiydOKIgwfovJoZz+ZtYv4+CZkc015wXhZmBW/xdffIEdO3aocmzvvfeeDK6EQgFngGfNmqVsJONbOejz9PSUPv0ewxl25sG88MILymP/2muvXTP7lCuMy2BHjbmo3q4nHr5ijaAMpJ/ZgUmVt6PytufQsGVplIKumnPOYduvS3Ag5ALCLcvC3aMdnhpRHb5qMj8F6RGnsWXOehyLTkKc/vuq8AtLG1g16IaO9YuhbkY0Vs7TUOvZKihTwgF2yNLFcTRO/RgM64fcYVnMFtELo1FyUB14u9jCHolICz+HDbOT4Ne1KspX9oAz30fyEfw9ZwuO+V+AtWfpwpd8x5g6imKuw84pabr9mYGdNzhcLiChoMLZDHpDHnroIdUJMFGU3mNWEqC4kfAf4b+IjIxUq1AxY5zOAHZgrLwjCIUBxhYzgZQLgrD0IJPmaS+l3OC9haF+zNGi05F1+OmwuZqczGSE7/0BZ527wLF4HVS7IlYiGtHBwdj9yyV4D24AvzIucE4JRviG3zFu9DTMXbsRm3adxp7NMXB9pBZK+7rBDVFIOrkUHz3zBeZv3YEdJ4/h8O6d2L9lOZak1IJbBSe0jNmHT59ZDJtuDeBTzh2uuvDNSdiLcf32ILV6JrIzIrBuwHbYD20Ebzc7OOAi4o+ux5gn9sCqWWVUrF0MLgnnEbl8Bt4a/zdmL1+DoydOFej451uGheu/++47fPbZZ2oamksUMk5TEMwNb29vFRc6atQoNYXIkAomkLJyhSBcD5YB/Prrr1WSHcMn6BwQhMIEaxu/9dZbShAbicvCvYXl2Zhwx8Tw+vXrm7beLlawQxoi9i/B1G6fIvKZnzE+MBHxx7/E78N+xNgv5+HvrTH6cRaAvResuo/DhLWHERYairCgkwhb8ylq1fdFqkU5uFUrj96PTcOFiEsIjtMfkh6PnOMHMGNYPcS3qoD6WRawtbGH9eUQCktYWtvCycoBdvb2ulAOR+SBpXhlwCl0fuVvHEtOwrkN3xQeYczFE1hpguETjK3j37LsrmDusBQOz2cmOXAxEBqnlJQU015B+BfWfOVsGesTP/vss6ouuyAURug5/vjjj1WJVZ7z27ZtM+0R7jZ0zDCum0l2LFxghKTeNpa6OEUEkiIsEZDzPHp0qIn6TH8oUxdNu72Nh7bvR+yBQJzNsYEVFaqlLWzsGCah4+igi+Xc7VlZ+ha3MmjStgkuZmgIT9T3J4Xi9OFv0btmKdT380VGRjZyMh1gbW0KwzDQVbKFlQ0y087g/Jm9WNG2C2q0rIFq+i6nCm3MXxhzWULWJx4zZgxiY2NVgh1LunCKRRDMHZbEYVlBrpJHg8QKK0xAEXEs5IXhNly0KCMjA6+88oqIYqHQQ88xK62kpaWp2TUKOOHuwwWpqLEYW8wyoneMhSWsEY3YqARssawOz+L2yF1WzROuVTugZWIynOOSEJtl8vJqWcjKzEAW/07PADJ1sZuTAy1b01VsMZRp/AjSAmOREBGBxOhkHJ9eGa18PVHR0RuaYxycKs9HcLw1Mvl4uMHNxQEsv2BpYYGcjEykx4Yg4eI/mPy/4Xhz1Lt4+5W3zF8Y80ejUNi1a5eKqaN3TUSxUFhgUgnFMVd+YkYwO4G//vpLxZFSBAlCUlKSKvXHShRt2rRB8+bNTXsEoXBDRxjPd4aZrV69WpV1E+4unI0/ffo0evbseXcWV9HVrqUuczMz0hCh36brAje3AoQuVG2s4WhlDdt8KkVciQW0HEplZ9hVaYVS5wJhGbAGRy6lYFXgiyhTzAXe+jEuZVxQrVcAji1biRXLDuHgzjVYueUYQrKykWFlCUtLa10gZ8Mq8TSObFmLlQsXYvHqTeYtjDlC/PPPP1WcEbOw6VWTwt9CYSJvoihFzzfffKPijz/55BP4+/urbGGh6MIa2Fw5ccqUKahRo4ZanlUQigpMVqbX+LnnnlOzaUy+F+4eqampOHr0qEp2ZIWbuyKMc3KQCQ94Fi+JLloG7LNykOviSUZW2FkcQw5iraxg89/KGFxQBLAHPOqhrcdpOB5cg38CQzHr7TrwdrdTXmHXag/j4cEfI/XbwXi7R300aNEX3V+agI1IR6KtNayz0pDj5oOcF37DH9uO44R/AAJO+5u3MGZyHWOKmXnN0QzLtghCYaZ9+/YqVIjTiCzDxULrQtGFv/+vv/6qkoxZ1k/KsglFDQ4IBwwYoMLLVq5cqZLwhbsDQyg4a8kqFJdXuLtTcjRd+haHk2cKymlfYeG2MKhfLP0sTq97C/NrV4d1nSqobWMLZ2dH2OpC2oL1htWD82JsKYZm7eyx9cBS/D5pLoY1a4BiTioiWccD9hX74oMN27Dx8DGcOLwSW/58F49Y2MMlOQWW7hVQ2qcGWnzzO/xPJiA3QDHMfIXxtGnTsG/fPrVgx0svvSQdglBkeOSRR5SHhCV0WNNTvCRFE84WcAqZlSgoDKTWtVBUYUw9V7bduHGjcpYJdweGUbAU3s1UotC0HGSnpSMtI8O0sEdeGBOciTSkIjMrE+lwQ8lazfHE+22RPutDfNLjWfR//Cu8Pbk+eo7og8fqRODoP9+i1/AJWGxnjwwXR9io59HFcFYqEtIykHL5RSzh2rQ+Slo/hAqh1dGhvhUc7bmdwlmXuDauKFW9JmrUqYnqdRqjWe3ScNYykJ2Sqr+PCvCt/Qg+ehZY+fMb6DbgeTzT51XzFMYcEdJLwlhiliRiXUNBKApw9O7s7Ky8g+wIli1bpqoRCEWPY8eOqdwKd3d3lRjD80IQiiLMw2CJVsbb08vJXAzhzmFsMcP5WBrvRlha28OjWldU8SsL32sWJLSHnUcpVO9YAz7F7MBq/FY+TdF0zHvoXCZTF3XbcfCcFbLKjsLbfRqinm8WIkKicCrCFlVbV4JPSZO32lKXx57V0alaaTQqqdRvLva2cC7fGj51H0VtN+RWsMg3Sjkbabal0LBTDZQv7Zj7Pso0xMP/646yrvG4uH8zjpxNNr+V75hgYsQVMxOV4kAQiiKcOuRS5wwhYlWWpk2bmvYIRQEu4rF8+XJV0o+i4K5NdQqCmfLmm2/i3Llz6NWrl1rYS7gzqK84G8+60TVr1jRtvRkoK/8jSPgGu/Pjeg/JzkhC0op3MOykD06Vewb7+5c17bkJrvOkZucx5giG3mKuvlKrVi3TVkEoejg6OqqEU5au4apEQsHlbvsfmH3P2q1c6Y62UESxIABdunRRtY1ZtUe4c7jSHT3Gt17p6waq9xZFMcnvIRnRR3Bggh+aPBOBpPiHMPlWRDG5zvswK2HMLHzGELETYLLdvQ6h+K+uzLz87EJh5YknnkDt2rVV2ULG1skUYsGEnQvrrLPDjoiIMG29PSiyWXCfMcYNGjS4jUo8NzJe5m3c/tNum26Fwgkr97De+8mTJ1XIJZ0Gwu3BVVYTExPVQIPhWgURK8dS8GvzCd4d9wre6FcXDU3b7xSzEsYUxUy446iwevXqV5SyuhdYZJzFljWLMe3X6Zgx43fM1NuvO8/hRDw7OtNBgvAAcXV1VXU8KY7mz58vdTwLKFyIiIlyrKQzceJEFRseFBR0Wx037R4T7lg6iVVKbkw2kBGGY2t248DOswjPvtp4ZUBLOY+DS3fi8OELiNbM2Lhp2bBIO4eDB4JxIsg0SEw9hUPno+Efre/L3SIUUmxsbFCpUiU4ODio+HsKO+H2SE5OVoNvCuMCiabByqE4SjYegcEvtUab+u6wvEseS7MSxvSKseN//PHH1fKE95TUKGRs/RuffvAOXnjxRQwbOhRDX3oJL074E7/uDxbPg1BgYGWW1q1bY+vWrcorKRQ8OCVJLy8FLWtQjxgxQglkJgrFxMTcUj1qHrtnzx4VSsPln2+Ilg7Eb8WMoV9h/GcrcSDjas9pEnLC12Ni/0/xy9QdOM7yoGZLpt6jH8SSv5bjr3k7EBQZiKgNf+PXrYHYHCbew6JAxYoVUbduXXW9JSQkmLYKtwoXkOLA3dqaKWoFkPy8k3fJY2kWwphTh4wtZs3O4sWLq9IhHBneO8IQc3QBhvTYhXpPTMS6S4m4EHYR58MuYW/reQhZ+w6a/xVmOlYQHiwMKapTp46qUsBwI3onhYIFB/Jubm7w8vJS95kgxOQ5VhehSN60adNNiWPaQopsluijLaxcubJpzw2wsIatgx3s7KxhlV/fwf2O9rC1tTK/xJO8WNgDXr3wVq8k2Bx8ARW8m6BU9wyULVkK3evcyz5DKCiwxju9xhx0skqFcHvQZnF2qiiGo5iFDeQPs2XLFrXKDWPq7j0ecKrYHi9Mfw8vPNkKD5VwhJunB4p5eaBRi54oZeWHwEOBuFnfHOv73TJ6B3itV9r0PNd1V1/9OvkceL2phv94zmt2mZ7jug/JgzomvwOv3mY85zXbTbf/CQuG34hrnyjfr+Ka18/d8N9vw3RMPgfl+xr3ACZH8NrgrMrZs2dNW4WCAgUxV+j6448/MHbsWDW456p1jDdesmSJyvoeMmSIqksdFxdnetS1sBLJqVOn1OqHPj4+pq03Bzu56ztUuI/LsN5oKVYTl0/s+3SC3+h19PeT9winRo+j/2vfYfpvkzF99hA8384PpdSeq58nn+flpv96uf+6qG9wwV9jp65634r8nuPytv9+foV+yLVPcXN9EB92E6+Q77Nd+5pXb9A/az5Pfs1R+R10C9AWli9fHsePH5cZtDuAoVqsYVwU81bMolwbPSnDhw9XtyzDcq9LtPELuW7ncPQ9jJiXgrkZTyDgy1ZwUxvTkHjuBLYt2oSzmgXSs3NgUaoSPJt2wFMVHGFjaYHM+DMIO74G649kITHtX7NiYW0Py1rt0LamKyqlxGHLKqB63woo5WGnClprWgou7v4bEc6N4VymDiq58lHpuLR2FQ4cOo0T1jb66MYSdbv2R4Oq3vDIiEHkiUU4YfcwSpcuh4r2UYg5PhsLtlZD2WZ10aJxceRf7VR/zjUrsf+wP06anrNe16dQr2pxeGqpQJQ/5p20RSnfUmhZ0T33+0kLwvYt53EuxRUtO9dHWasw+G/cjv1RNkhv0AFPV3aGtck9lZ0RhYt7l2LbqTLwql0PLZq4wOnSUfwZ6IIypUviobLqg+kk4tLGE4iMsoBDjyb6+49H+JbtOHTIH6f1H0adrfo/mqUnPEpVQ4vOjVHW1RJ2+uMSzh3DH0t2Iz1LU508f0VrBzf9c3dF42reKJkZjAv+G3HKuQeq+xZDKbW6Zbb+0UOwf0Ussj29UbVNKbilBmPP0nhYlS6BSi18TL9xLM5u2Yngi5ko1qEnanhpSDixBhfjspBTrRuquwPW+jAzI/I4zh3fiy0uHdGxSgmUcbk/01AhISEYP348oqOj1eIfXL5TKJhQDHOgz3bw4EH93D502bPFFaY6deqkQiQ4HXx1gjGrUMyZMwerV6/GwIEDldi+IboNQfQKjG67GLG1H8FTfz+LVqZduWToT7wEr9WZA6v+T6H3173RynTapvivw+EDB7D9gq1+fucgO6ceajaugzYPFYND7iFA5kXE+u/En+tCkJGRhuwSDVCxXlP0qWODCzvmYueJcJxNdICdrS0cLTORkZ6GZAdfuFZuhn5tfZB5bB1CMy2Q6F4ZrqtW4ZAu/i9510b52i3Qr0GepB9+jtAt+GNNIC5GJcHSsxxcq7fD0628c99LRixSIoIx198JTetVQnVPw+9zHqsXBSLDvTSatK2MEhapCNu1GFH2VeBUuSEqOaUjduefWHvJGzmlm6BPY2+1nGzKqdX673MYOy/ys2v6Z6+P2s1qo3ULLy5Emw+mnkO3dXHH/sKiPdmIisuEpW9luDfuikHV7GCZfg4nz8RiT4wnejUvDTcajZx4JJ4/i3nro1GzXWPUrOAGh6TzCNq9Flv9q6Jii5poUtfj39dMOAP/Y4ex5XQKanfoi7olExBzJBzHjtqh3rMV4aWLGQYaZqZcxMX9ixFZqidK+fnAB5EIP/4PNhxKQXi83gcp06z/Y2mDknVao06dWqihFo+NxMkVm3DoRDAuqr5AR+/XLPxqoky9ZuhVyRkWif7YFZCG81nF8GgTn8vvLVXvJ0KPbEdS5SdQvrQz7COO4fyJ/Uiu2g8VitvDTe/UstlH7VmMTZYNUbZiHTT3iEWE3medtOuI0qXKQO9ecp/r7BxsCfFAqmsDdK1fTP0mNwvDKBh/P3fuXJWoL9weTOxmGdAJEyao0K0iA4VxQScjI0Pr0KGDNnLkSE0fBZq23j8yU2K02AuBWuDZYG39x7W0x958Umuz8JJpr078Nm335EHaI9auWglXd83NQTcjlZppzqM2a4GxGeqQxGO/aHOGQLN2ctasHT00L09PzcPFUXO11q1p/8nah9t3aFErJmm9MUKbuStMu6gelaNlJh/T/nzURRvzxXhtntqYqmWlrdT+6vmQ9gisNUc3F83VHlqvUbO15Wc1LTnykLb9A2iPfz9Hm3FaP/zSRu2f1601X7dh2rDxx7QLfIprSNUyU1dof3ZvqXWETe5z6p+h93tztaUB+u6MCE3bPkYr2fd7bcBvR7Rs9ZhMTdv/idanXnvNscoH2jz9EC1+ufZT28pacZtamssXe7SLqfoxihwtMXStNq0TNDt01toP362d0+I1bd9nWuXuX2mDpxzQUkzH6U+q/fnEq9orNcdqi+K45bi2qncbrQtNs5un5u6hf3fF7DRLlNK83YdoU05naNF86Pm12ubPe2uW+nfr4OymeXp6aS4OlpqTDbRGn27W1vH9Bc7WVr0LrevPe7Q1wXyQTk6ypkX9pb1V4X1teJ8V2glN/70uztJGeL+nvTl4lXbSdJgWPUf7vksZrYVnDe3jvZqWpGVpB79rrX01sL726X7991UfNVU7s3SU9mpz/Td9Y5m28Iz+3PeJqKgo7ZdfftF0UaXNnDlTbdPF1jUtPT1dy87O/QWvR2pqar6PNRr364NU09H5w2s2OTk538cbLTPTOD/yh6/xX+8lMTFRfZ7/gp+Vx+T3eDY+R1pa2g2/E77X/B5vtJSUlJv6PPxO+HpEH8RousjVunXrpvn6+mo2NjZq2MdWqVIl7f3339f27Nmj6UJafZ8kLCxMe/fdd7XBgwdr69atU9tuCM/xyPnaB3X6aE93/Fj77fgFLeDMGe2s3s4EntOCz+zTTm8ap/X36KmNfHOxtl39tPr3kXNeWze+t/ZkXWhOrh6ah6ej/t46aB0HzNN26UcYZ0DCgbnaH68005w8PTQnRzvNompnrdHoudqumLPaurENtT617DRbe0fNWb8WYWGvWdvodqvKw1qlt9ZogVnR2o5PG2qvPVtVaz9mnPY/D2+tnr2Fhgpttaoj/tJ2xaVpxi+cdn6vtvWzLlql8iU1azsrzc63tub2xETtn6AYTV1p8Ye1kGXvaeg2RfthW6h6jJYWrmWufVUr79xaq/nYNG2T+okuaCuGuGgfjnlLm6bbTE23sbNeKq3VfuRJrdP4I1oiD8kJ1taM6649UZuf3V3/7E76Z39E6zpoobZH3/1fZ0vUyUXazFeg6cJQc9B/U5sazTWv/y3VDkfoL35+jvbjuA80PDlfO5mc+5tqEZu0Xd8+qT9/R23YHye0IH1TytmF2vQu0BzQS+v70W6NZtgga+847Zs+fD+W2suLorQLSce1LZ98oj3m+J62LCpd082mTrYW479Um9zWQhsza4u2jQY2fJu2aRQ0H29rDbamPsjdTbfJ0Co+85n2pW7HaNmyz0zRPu5QX6sCW81V/009PPTjeF7W76n5/RKoZdFMn/lZG/Lu/zSvYSu1cD7MxIXdP2u/dIM26p8g7Zh+gkRs+Vz7uTu091ZGaMcTeESWlnhuhTb+Yd2eD/hIe3GrflDsAW3baGh9vp+v/XZMPY1uQGK1vR85a3Ue1s+DD3aZPtPNc/ToUU0fVGpTp05V15lwezz88MOaPgDXAgMDTVuKBsaQusCjd/wq5uXWSxPdORd3/owp/SuiepVy+H975wEfVdG18SfZ9F5JL6QCKRCClNB7D1URURAFC0pHwE9ULCiC/cWCCCiIKE0B6R2p0mvogUASaiCkt91vnkkuRgxFhZCE+fMbNnv37t1bZ545c86Z5m9EwMJ8IKZ3cSv6NB/75/4P2//Ygfprr2BXwhVcS9mCtQNaoPn/pmFtfKbofwO6gnxYu1mh3SebsfZgIi5fuYJzx/fgwNTO8A2yRaYuCE5VvRAb+xUSki8jQSYXuAx98j5sWDcQ9hb1Udtd9LbT47FyaA+sCI9F882ZyLgYj8tHZyB44S9Y/PrPWJtlA2NR01lbWME6+ygS4xMw6+xkzN42Fh8OCisaTvwruWknsXKI2GaNbmi5OaNwm3HfI3DBfCx+4wdsyLQWB2AOOyszWJqaFFkQLmPznG9x7sRBODo7wLTQQAsj2yaoaqiKtqd34Ig+HxlcF+eRdWYf1q+nXdpabIe1rB1QsyGGHD6M4F3HsEPKAT1wYhdW+HlhY8emaGzPTeqRnReOOnXHYvbRy4g/m4zLl/Zg/biX0V98ZmFsBDNcwJ7p07Hy0wMYs+QcDiVcwpUrl3Fq10L8MhKo7Ark0X3T2AQmFjpYmemgu3Hnc6dNYWFjDgvLomMrem9uYSItLyR5xXj8fioBB5wqwVIs5Ho6M2uYWVrDnCtxwfVN2L5lBz7bKg7QxBSWJjwppQMDJJjGMDk5WQZ4MUPF/Pnzb5S5c+di4cKFcopPRhvfji1btvzlu1rhNhcsWCD9Yfk83g6mS1q+fLn83ZK2xdn66Gd7O5KSkmRAIa0+JW3jp59+kn7Voh4r+sbfEaJVWmRvtQ1aX7du3Xpb9wXCfb3VNrhciFSZZeJ2+8IgO6Zr42+KzovMTMFrwVGwvn37QjRCN6a2pw/x+++/L32Q6Waxfft2uZxuZbQ4M33S3ecu5n1oDGu7I9i66g30jfBBaGgogkUJDQlAYGgtVG02CrOvXsRFawuY8V4uyEXO0jfxfkodJA87gvSUJFy4dBrrx6ajutX3mL4qD/kc+Lo0H198vhvDFvbCL2fOIikjG0mfBqBb1mDU//oyKr2wFvMPZOPq4eXY/EUsrEbPwocbzyDjyArsf68ZAnSmMLexRdK6M9gx9Qw81h/DqqwsHHsvDJ0ShqLJN/twIEX8Ts42/PHrYrR8sx5Gzt+FC9k5OPnTCxibMxQ9p/2O+SfFebcwFY+4eG5FPWVW9IDnpMVj6YwvkZl+GfYOtih8JI1EPWAr1rOFVXoGCg4uxUjPSegx5kMsHxQB67wMZP32Bt653gSpo44i/Woyzl84iTVjLqOK+Sx8vyZPXAe5+b9zdCbW/LYA/S58jykb45Gem4mjXzyKN/d2x9hFx3AoyQSONhawtqQltrB+OH9gA9bN/0n8ZQFLczNZlRhgClNRjcS2OAsruyvYe1auKsjD8UO7cOKQeIbNHWAhNG6BdTUE1tGjedtvcCAuDyly5Fv89unz2LD+NQR7+yHEUnwzzwAT8dpgzALM2pEk26CE08ex6QMHtI3QF7pHZJ7G0vdH4ETdp9Bv8zWkXkhGYtJ5nF0+DC91DxHNXVH8grFoCyzMYSvqyMIzXYiRuJ5m4tgsTDjmyPfiWliJOlKceGNpxj6BlN1L8eo6cYwZlnCiqdnIGDrxamVmAlNZ4abDcGEZfp6qF8dpC2cHXdGZuntYH7q5ucngO5WZ4t9Df21yp7q6THLrqvgOiOek6K8yTX5+vhxCpI+xFrxSmrhEPobu48MRedUUWVsXYVHGRgyd7Y7ZPQNgKR7/gHZvw72lMWx8TVA42GAJk4I0bMjKRpOCYlfH2BhmNg5wcCwchLRydICjrRlMdAZxjFYwcvJH7SbV8WhCEmzPR6K2+VVcObwZizrUx/AIP/iKCiMj+QDWLwyB0+Aw1KppCpg5w9S3I174NhK59n6wMU0EwwJN7FxgcvEYcq79gcu1h8DLy7VwuJG785daJgU5SQexflEIXIaJbUYXbdMvFi9OrY4sW3d4mbKmNaIHA4xMeISXkLZ9In4N6A5vzzNoUJCFfLlNvag3A+Htdhx1o4TojxeitIoQ6ddOIjVpD6736I0aM51RJTeLseNiY1F4pMs2LLNywfa4HmhUVWx551ewdGiNGmHRcJQ7a4DeoIOJEKG2jkZwMGPqGEc4iAbcQuyQ2CvxzwmmznmwDL4Cg7MV/Ir6Ti4B3vB2AkxFDa2/cRkKD/5vFS0XFF/Iv0VnwIzDzPEL0P98J+QEpmCIYzYKRAvyZ7somjexrrnxeex74xyubHJG7zENMcNIJ67prVrPew8bAk4JzEaAYpSCsnjQBP1ZKaR69uwp/VNvJ6p+/PFHKfQIfcw0uD0GvTILxiuvvCIbnlvB1IrcDwbMFo9qpnCkmwtTAL377rsygvxW0JeWM1xyWyWlDGKjN3LkSLk/ha4zf4didNmyZZg8ebLcxs3rUZhy5jgGsnEGwVtBl4fXXntN1kHFzwmhDx59hnv37i2P51b7QncXztZJEc7zwO2w8PxQwDPFFFPvsaxatUp2UCiCKaaZeqp27drw9vaW3/fx8ZHT4N49emSlV0b12o3Qe3R31DTLlkF4etEE6AxXkXdxJ74YeAROWbnI420jBI1JnVH4vI4XbFwKna9MkQnT49lIP5KD3O7iERGnIWfPDzhiqUdut+6IsbEW3V7ArsFQPBXUDZEIQYB7oYuUlaM9HGzEubO0hbW9OM/i+RD6SWAEo5xcZAUHAeEd0aqKPdg1cKnfEs2OX8aESX/gcIdohJpswNELC5HdYwKifD3EEy92PrIeYjt1x6i3D+FwjWggsHDYn2ffyETc37n7cP7gD/glcjCa2B1FcEG26JgXIc6/ha0L8vNEZ3vLOLQI2YjowMJJDIyESjOt9yq+qucDexfpbyU6C+kwOZKNtHM5MHQtVqffRMLhrUg4cQDVY95BiIeL3J/KdR5Hj7HVEOMSgLDMOGwVAlWePNFRx7nvsSvtEnZUfwlPb0mEt6GANQ4MosLibRTWuBbiREf98F7REfURbV/BXuy4XA3XHMLRt2mCEJN6ZItOf5BfCEJqh6LPoROoG1odlTPOICFpPxY+3gp9vBzgKraZzQpcYGplB1uHwnvHRlwLB2sdTHOEMOZ1N7aFvV0acsW1MqskWgyxi5Z8fH1d4HwsXdSjNx17Sbf6X5Zpb4xhYZWLiwvisXqkHgOG1cckUyfkcOcl8qpBNi8X47H9098Q+FhneCVUQUHWjat219CIxlSWWaKTxaL4dzC4l/Uwg7qbNm1atPRBkIy4+TPw5RvTsUXUwdezeqHPiB4Y1s+/SHPdBG9TowJc3bMQ83qPwffGBpzLikXnXr0w9s1I6R7JOy49bgHWfD0G720yx5XrWWjedySeGfqMfG7LPAw44c3NhoANU6kiTrClSxAC68bK/MldRzZGtNF+XPzqK2w6D2SJU2hjm46rp3/B/95+E2PfGItxn87A5J0X4CJ6//QvvlFPiEpFn5eDHO05F3/k5IoKicspoO0qwa92K5guPYeU/aKx0qfgyrllCGwZAL8gNheXkZMYj+VJdWHl4InAG+2iAwJiqqNKmAM8TfWiQjXGmV8n4uP52zEzKxqDuvrDTVv3L5WWIO8qcrnN5HqwdvRAwA39IbZZvzrCIt3goJMyVpwKIyHss5CWlIzN7yTCsXoTVA8PgX9unrwPuUZ+ngWc3F0RVMsV+/dfwPVU0fgmXsbZAymo0rE+gtydYStEWqHdwQaRbaohRdS/q3ddEOI6C/GHcuEvRH2DSAo3TdgJ8VuQh1yhz3PlD4nzllcALR1rnmiyfVs8i2YD+iL41Af4aMJbeOut9zF6xARMXKLD1UxjmP/TLqBBVNLmxqIxuYgT85dC59UCkVGPIMJZNIz8uHAt0b6J1l28MZxbgPU5JrgeWgdP1XYTbZ6xENDaWvcfNgQUuxTAFHsMwDt9+vSNwqnU2eu/m9RgFy5ckOuyFN+G9p5W6Ts1NhRv/E2KweLbKF7uZMnhc3/+/HlpOS7p+/Sn5vHcDp4PrsN9LmkbFJ4sTE10O7iv3MbN54SFy7mPFLe3sxgzYT47Ctr3aGHmJAQsxUfEuM9cV9sWA4jYMHH7rAO5r+ygFO9w3B5uRzybuY5wD6qPll2ao0P79mjbrj3at2uNNu17oGPnGFSztYSVuDcKn01j6OxtcHXbr5j91hi88eZbGPvOd5h79CIuV7ISQlEIe/HknTx4VHRa81G7cTA4uC+xCYJXUDO0C7KHtVbfZPOZ1cOQL4R3TvFgHtYZ+XD180LNprXhK71JBB7BCKhSF9USLkOfm4qjCadx9dJFhLcMRSVtHQsneARGwupMGjJSMnFd1E/8OX5qbp+OS1sSsOvL6/Bt2w7VPRhjoNU7QhxaWOHIqhn4cdpULDB+Ev0f8UHdSkUfGouOuJ0Nrmyej1ljtWP/HgtOXUaKq2WhRb1ELuPcvrNI3ZeDxlG+fx67pQcqVW+NaC+aRQ2y42FkrIeZRRoOfX0KyQedUTW2NcKFErYS6pT7KK+9+L5VlRi4i0fNJu5QYbD3iQ1ItPKAIbwJGngUyOuQx1vXKwi+oQ1ErzYOF5P0yMs4hcy0TaLOjYSHU2EnWKtN9eIa5Ba1Qfo80VkQQp1VldDk4sS5IqTrG3giQtRfG6fi3bFvYOxbb+PNdxdg0Y5LsPznFak4DnFdGEtzfi3iLpzENq8Y9Irxga+DOXKLGw+MLGCTfQ6J5w/h7cQARDWNRHiIM3LlcN8/gx1OdoRZ16ksPf8ezi7Mc8iRxgcDn+ZrSJr7JZbPXoO9tlGyHQ4xXoAtm6bjo70pKDE0UDw71+N/wJ6Nc3C0Ul1UqVkP9SqJNjF+OcbsEd/hZpPn4bdls/HFPlv4Vo9CoxAd4jf/jokf7S0fwpgXhjc6G45SR6vcNGxaIMY8B232zcLvJ4QwFic4ac1U/PjOSLw1aZq0TH3x+yHsSzFGA3F2KePv/FiKHxHCD6IfYx3SAO0P7Yb1qYPYejkbSfvS0CvYC2Hu4mNRm+mzspGos0O+hWmJASB6WiJERXRp+y/YePSq6F3FIEJoaitpnSkBVhzcprEdCm6xTe0kGOksUZC+C+eObsfm3aJBDa6Eal5GuH7DKm4Egz4bZo6esPVvjJx9h5GTchzHL+bi4DEPNAmxgYOtEJvFBKN5RC9YXnfDpY3rcS7nPI4kt4C7fQSibsQciUr15mvwF0TDKjZnF9oatVv1gcNvozHt608x4YtvMPOnJVi6V4fMXGMZGPdPoOA1zk3C+XOHsXiPDQbU9EGLAHtcySqsyLlL7CgYG+VDn3Ede3/9A2lt/OD+TA14XxHdJXGMQluXGnw+KJoomKpVqyYDs2gd1kqPHj3k1MHMXEHL8u3g7FHFv1u8PP7442jRooW0Ot8OBm0w6IW/W/z7TzzxhCzcl4CAgKK1S4bWUboXcHa/4tvQCl0QaC2+HewsREdHy9zn/N2bt9G1a1c0bNjwji5a3Fdu4+bvs3B5mzZt5Dq3shYTukkwWI7f4b48+eSTstBdgkF33AeK5KlTp0prMQUwXSZotXnmmWcwZMgQGXjMepDW+9uJ8JIwMipAfk4G0kRL8tdvXkVBaqZ8LkW3WhozxU0NbPsKn38+AaPf+xLfTZuJb74+ghP22dDV0MFIPvNZyEwXYi7PCt7/yHr9V/hE2Ytj8jEzk6MxEp2o783M4QcdrIyzRUdMfJBpCX8haHmvS/QFohMhVCGH7XXiWZQLxf7rzEV/fyXiDiQj7lhr9AyzgbM9kFFMX5mIbZ/btx07tu7Gaa8RcLK3hZ2m+fLToN8yCZ98NhGj3/9CHPsscezHEC86xbpIcey31GmZor7LR/4lMzhYFp3HmxGnzchYtAqGbGRenItNO7xgll0Hj0aZIEfcO/nimhbeQYVXKMeuCsJNMxGecwg7cvIRv20vTF3M4F4zAFbZ4mqJ1aSl19obLr5RiN2+FukXErD1bAZyTuSgf6Qv3GwLtyj26LZ1qTidYiVLuDV4C+1Nk5C/+C28/uFUTJkyBdMW78Te+DSY/dOKVB6NASaGVBxbuQcJ1gVweqcpfHMLYJEt6k65P4U7pbPMQfrOvTi2PRF7WjyJEFcLeBlloaA0K1LFX2D9SmMkM3zcyXhwf+DDdgyrPliM3UJDNJ05G9NFZ3bJZBf4FSzHl+PXI0HsllZtFMJnJwW7v5+HbX9cRdCP0/Dt9GmY/VMHdG+VhXWig8dbPXn1+1iz9xhONftBPOPTMG3JZHTyycPmr8aXD2HMBoONOYdO7+Qfef8RPWyDEHfmtjAXYtM8bSPWztXj2LlR+O7AWRw7n4yk+ePxdcdgXMsr+PvQ062Q3XVLGJxroEHHhTBx+AHrfzPGnqlDEeRhCzdacs1sYebhgTYmcTC9nIKkEjatF71jg6jhIv/vN/z6Wne8b78IgZN24+ClEvtV4ifFcRRtUye2mVy0uCRMzC0Rv/I77Dv8BSx/6YsQJyc4pef+Rfgbid/Ot3CFqX01tEk8hJwza7E6zYA9Vs0Q6WQEB9OCPxs/4haBFhlZ6LZ6Gbbs34WleVHQOfgj7MadSVeJ26FV9ieQsG01pnzbGc98/Af2XYxH/M65+HlgHtzt8oU4livfNcamFkg/sAxH9izGpvavI8zPA0EmmcgrrMklFM+mOWeREb8a728Qx+cmBGkNE2QI0XCXV/2ewc4jLawUggMGDMA08aAz9ZdW6B5BwUUhdjsXCDJ8+HCZVoyl+Db4nq4Nb775ppx58nbQPYGzvPF3i2+Dhf6106dPl4L0dlDQjh49WvoS37wNFvr3UnjfEEol4O7ujqeeekr69Za0Dbp7UHDeaXp5TqDCbdx8Tli4/L333pOZQG63LxS4X3/9tfwOt8PzwGvywgsvyBRTx48fl9H0tCoT+vexg/PLL7/gyy+/lB0WXl92gGhR5jW/9whBKm5xQ14ylv0wCda1HsO7G1OQcPY4khI/xmvNguF3KVMIOJ24x+3gE2SFFMtrWHM68abG6e4xFecsPvU61iSck8JQcv0arl04h+Xi+b6qd4aXp52o+7Kx7FQC0nILR7A4AkeXA1kBaIpPvBrrTHBo5lictNkChx+fQKhYbJXz5wgTyU67hoYvvosPJn2F13KGY8LSg/jtROFneTmJWDpzEuxjeuODTVfFsR8Vxz4Ro+oHwPdykRtYiXjCtYZoq2rnYP+Zq8i5RZ2jMzFDTupFbP/iWVwf4A2vEW0QeDWLKaKK1RuFf+XnOKByeDo8I07gj12X8ftqY3iauaBOiIOoiwrXN5In3h3m3pXRpMt0pOT8inWz/XFiwYuIqKKHTbFB1ts1R4WnkBs7jF8n/IIrybXx2a5ExJ89i7O/jcTgDr5Iy7z10ZeIkehI6LNhkvQbpmzyQ3JmY7zWUDRm4jGRLjuSwgtjZrUHK6edw5EvXbDg2RDR7puLa/3v7ip2HDmqRUMBi+LfQeMEp9jmiNbu3btlvVOqUBddO4fThq6oVLU7egQXieC6I9HMvi7q/74eOy8Y8NdpXMRNnrUNB3fVxen43qgtmjt513r3Rq+eb+LgcyGwMUrDyVMGhLpXw+DuwTCXz0UMWjZ3wLCGW8uHMKYVhj6AHBK509DpPSHzOM6vnIiwKgPx7pIE/CXMKHkeVuzNw0x9L0RFMMgtF1npB3A94yAyxfMtO+dxP2PHxs+xQmeDPJ2xTLt2ZwprLCPjSqjToilOLF+KNz94C5Ma+8HaxhSF9qxKMPMKR5OYZTiTeQL7LsiFggvY8GQrfP78+5iVYCcrP5leyLcpwoOr4PPrXbDhzEUckxX1zTUjtxkmtrkUpzNOYf+NbZ7H+l4t8Un/tzHvnPh1cQ1st4/FipXZmJw8BJ1r0RFCL67JzdtjSicrmJk4om6TI9izdhlW7b4Co8a14WpiDLO/VP4kBFVaZMAm+HuM7v06fjYyRqq7Ewo9OjhCkI6rORk4l89Ohlx4ExzSFRxfgn2HvsQvTz2J6Oo+CBKLdKKna0YrULEGkcdBHzs7LQuUkaXoednAUmcFSxML2PJqiX2wsp6FBev24MuPgtCjnTvcTE1QQNN0McytrHFsxylMee0V2DWvi8pVnaHL19xKShcOv7Py4iQSLIQi7eZyO4umBtcp6btaudtt3KvtlPRdrZSlbdxuO5p1V9sO3SIYtEe/ZHZEli5deiOgkf7K48ePx+zZszFq1ChUqVLlho81G3lakWkguK++k6JBystMw+6rGTgmD0v8d2UJvl1xFtP3mMPWvDDmwC26G1zPBSDpyz04rR3+tTXY8tMIVBm8BNvO39mQYWRpAv3OZFz/eh+OF1kk9YfWYNOGGTD0roHKLuao7B8Df9vmKJi4E/F5RTXq5YP4fd6nuNalMnyqeYj6yBiGnFSYrX8Fn6+LwO/5vdClmtzzQqtqMXg1jAx6WHj5wKPFQMRsmorLh7bguFhuKrr6eZkZ2HktAyflIKXYwsXf8NXyRMzcZwZ7i1s1myYIrhYJFz9fLFh5GNe0iv/qJuz7Jhxhn2/E+ngjuF3dgrwVH2LQ9kGw94pEQ/vcGzFtN2MQbZ5jcCTMxTXf+9OnWHqxKiwdKyPS+e/1oYWVD+o1b4S1H3+MsYt/wI+NK8ND7GphRIvYO8s8pIo+V3bmLepSeaziRO2bhWkO9bG/SW88KnoVZjyBdN0RPaY/vybqcWMzsU07FEuoBwc7G1gLIW5lZw0LsT0GE2amFuDrYS8jxU6cnxbVYSuOiZu80RJwJFg8FztEh3tF7kmcG9oRj3ANcYOVXOffGXYa6c7FXLwPVZqx+wBHIBmsy7gH1lulCocxks9iW1YO9uqKjWibesPDwRlVRHvLe6Soei2Eb0Snes/1dGw1MpP6i/cb/2cVXXgXn8X5zZlI2auDmdho4efGcHKzFZ39gvIhjAmD7mjKp1/hfcfUAVYeIejS3ATnZo3Hm/0GYtDggRg4aCD6Pbkdh6waoefHTyGaz5tZFCIa2sPXdQk+eWEo+j4/BJ9vuIJLtlVQPWsdLl3KAT0pjQy5yMvOQIboAd+wmIqK2ZCXgetZQlzf8LUyhVN0C7hm6WGefBSWrcLhYmledKFMYOYYglZjnkHo0eVY/fTzGDRkgNi35/Bloi1SA2sh1DYHBaJTl54hBKXYpFlgdTzZLgbXJszCxtlHcKboFvgTE5g7h6L1630Rcvg3rOwjtjm0cJtfJdkhNaAmqtiJ/lZ+NlKOpIoLURu1mj+GUBPeXHnIzshGdlp2Ye/fIN6nZyPzer74FTNUrmaNdSsv4MDeLNSo5yOOLB9Z1xgMkV/Y6yvCKzIMnlGuOHvkOPwCveDrTX/q68iO+wVvDXoL755IRUJEqDg2UYfK3RfnMEf8bmoWcg3GsMw4gcWz/8BHC+zQ5qlGCHIvfHyys7PE/hmQkZMv3S14EnNS87Dj21F47cVBGD50CAYNfBFD+n+IHw/MxLyDyzF5QxzS83ORcXUPTM0dEdK8K5o5CDEtfjNbXL/cTLFf4lmVz2HWVSSLA0nyaYVOTX0QQj2aLRq53AwUZOcj72+dhvsHnw36BmsWRUXZgaJYE810lZg1a5YM5JswYcKNzBoM4KMF/dVXX8WYMWNkLmoG4dHiXdyFjMKYFn8aCP7RdLfi2cxKy0Bmhrg//3ZbigX6XCFgKLZzZfCXkYkTajePhUX8Jvw4pCeGvzICgxdkA056+LhdxPqEi6JTLFYM7oXHWlZHH5c5GDJwIJ4fNhgv9p6Oz2fpEVnHG47WRepQCG29eC4ysvOQe9NzkV9gBC9PPQLtDuKnlwZh1LD+6D5xCxYUtMKIl2ohkpFjTo1Rs1FnDK21Ed+MGYC+w15An1e/xwfnGuP5Z+uidaSojHNyxXOXhWuJ6XCp1gHRdZrBU9qKCkQdlSnqAu3YDcjPuo7M9GvIFM+vcaV66NTKEdcWb8fcj+NwzroSolt2hPnRdZgxqCdGjHwFgxbmwcy1AO4ul7Ah4bK8piVhHvYY6jZuiUczR2HckP4YMHg4+o34AmM2+yLK3xWVnYxwPVnUo2lmiGjxLGr4e4uaMhN5ooHPNmTImBOpkfXiPIk+RXZ2DvTu/rDIF8J35hQkeFWFuY8f3PTpsu7NyjNAO53G5nbwqdMGjgmJ0BVchnWzMLiKSs8YqUhcMwPT+ozDB0sqw9HZDd6aJ5Q4jgLRmcjKFXVknri+ieswdeQUpDmFI6pDmz+zGGWmIz0zC9dzihQ87+ezW3Bi5ut4ftAgDBw8GEOHD8KLr/4P/1uXhx8/+h5rdl5AfFYBssRm452bIqp+NTShxULUx7LdE3WlaArEPuSL66bH0ev+qFQ3Gi27O4lWSVwYsT8Z4vjTRF1a8tm+NRTGjHGgkYBBeIp/D93vmFOdo3+M+ShdxH1mYQlHnTmcjIpnQBGd17x8pItKiPf/3+4Pcws4mFrAxaikmTy5xEroHh0sxPPITCiaKtKLHmq+6Dj+/TtlEDYqjPamlYQNy/1F9GNNXWEX0QnvftETTWzO49SyhVi6YgVWrVyB5cdCEd6uE8b2rozCAWln1OgYi1adQ1AQtwzrls7HcbMmiIwdjaENXeFtbiyHunS2vqgU3Aw1vaxgrwW4mVjC1CMKTUM8UdVZG+8Sl9gvAhGu4ehcKQjt6laBa7GAB2MTF/g2exttvW3hdHAJFi1djeW/xQE9hqPBCy0R42MCx6AYRPi6w1NuUjROjSciPOUaTJPP4EJRvXYD8XPGJq5im++irac1HLnNJWKbS44Aj49Aoxc7INxVNJUOgajVtC+G9umMF5taFaUxs4Fr9SoIbhgCd/6WSSVUrhOEsEfE+RNrGHk1gkdAU9QJCUSTykKsmXsgpFEQQsNdZPT6DdxqwDeghziTfuhdIwBhrI3z0pCfEo812y4gq0YkIrrURhVxtxb+riXsKwcguFUkvKyEME47jsSsQOQ798drtV3BYGqis3SBY3AMonydxDkUC6w94RwYBf+MOJz6YyV+W7YcK1evx/Itl2AVfA7n8vfhy1lxuGriBv96bfDUyK4YMMxHRskTG58o+EU2FA144X5YuYchIrY3mo94G60DLQqt3OYusPeuiQbBznCz/qeBKv8eulEwRRqFlJbyS1E2YP1F6+6OHTvw7bffSuHL6aA5ZS0bblpk6OLCtGxjx46Vfs+8jiXBTg+HNtkJuvvRM3G3mrkjpGENhNf0hUvhQ1QMUxhZeiK8RU1UrVYJDuy1mjjDvf1L6FLVC5XPbsDi1ZuwMDMKnXt2xuBHI+FkniMaE6pKH9R7tDZe6WeO02tWY82iX/DbXjPkuXbFp09UF53ZonrN3B5WXjXRLLgSfO00U2ohBTl6uEY4oVoHV+RsWIdN85diW0YgXJu/ivG13eEmN+EEn3r18f4YN+Qf24Y1Py3C76d10Dcai7eaVUU4+4J6c5i7RaBpgxfw2tPN0C1SO1B7eDeMRGCUt2go+d5MCOdmCAwKKaojzeHePRbelvYo2H0G6UJO+nZ8Gd1CK8H79AYsWrMVi7Oj8diTnfFy1zA4Woj6UGtJ/4KoTG0DUD2mHd5ufAWJuzZgyfw5WHNUj5Qq4/FJx6qi4+8Ju4AmaNTqebzdOwKiKhToYGbrjsD60fDztJF1o87KDV5RMQh2t4WNlTXsHALQIjAEDVpXhYeHJaytfOAd1QTBLmaw0aoZE3FeQ6JRx74KuvqHoFm0P2zkfmYiJe4ATu64iGu+T6NxuB+CNTOvsQ42lVuiWkCI6NiLjn/GJZxI8UOHWuF4LLro2gkMTqGoFhiKZn7WhYdu449I0QZVMTuFrStXYpVoH5ctWYU/jqUgpVIkTv86D7s2HBSdjAAENmiCmFEfIjamqhz5NBibw9Q9Co2DvRHGSVh01qJ5qY9mz4xF306t0IQGJyodaz9UDw0QdSmF8j8jNTVVBq1ypFkJ4/8Gp9emMGYg9d2k+7yn0Cjg4YOaZhfgee004sUiKVovb8ER8X5vJQ84i2dfjmposNPm7oNqlqkIy4yXI/7y/slLxvmzx7Dp6BXkiC6fxyOixfa8hsNio4Uekldx8mgqNu8TD6Xo+ZZ5mHx/zpw5BtFgGIYPH160tCITZ1jeb7RhbNVXDfMuGwzpTKheodlvODDrf4YuJhMMv8ZdMaQULS1Vzv5kmPjhOIPT80sMZ/LK3wkXIssgBJbhk08+MSQkJBQtVZQVtm/fbujduzeb+xvF09PT8Pzzz8trl1s0gced4EQiGzZsMISHhxs+++yzoqXlmeuGre88YhjRv72h3/JcThuk+NfwHtppmFG7v2Fc168Ny7M5QVJpk2UoyNhg+J/jo4aPxq4wbHkAVSkn7ZkxY4bBxcVFPluK/87JkyflRB99+vQxrFu3rmhpacAa4aDh11bhhqcjOog6ItPAeXESZkQbHu9V1+A38ndDsanWiuBNd8Kw4unGhtGhMYYPxC1wlZvZ/p7h/VefMlg9+5vhaI7BcH5xa8OLfSINLi8sNxzP4kZnGl7v0ctg6/9K+ZjggxYXTu9Ix29Ga1fMubvZVhZxbR9WOtlifv06qOsMWBbvDVUUih0uzh9HYvZeLOwXDV9HyyJ/6lKGvcxyCt0oaC1m0FbdunVljltF2YLR3VqwIS3E77zzjgyq4yszeNxtgBBzHdN6QzcKpnu7PwF4D46KWNXdf7TKVNxDiTvxfVAAdtcKQ13zB3Q+H/BFpAsFn43IyMg7ZuBR3B2iEy/duzhpE/PCl16GCtp6q6DT5HfQrrkx9rWphCCfSgjo7YJ022GY9m79GyO6f8IbMBCtxr2G1n0qY3V9F0R4OcOyzkasONIKsz5qAR8zwK3DFPRr3wyP72mD+gE+sA94Ckuz7DF62jjoxnLsroxDYUwHes7+lJiYKHPr8UIxiKXiYIT866dwYsnLGPf6Tuy3q40Wfdqio7dF+fB3+afIyjMVx355C1+NW4V5R6uizf/FopOPLayMH0DNemUHVu2+iBXn3TCoUygcHsQ+/Es4Sxpnu+PwIbMYPIjZIRW3h37CDJpjvcVMGsyJToHM4KB/moaS7hQM1uMrU8Tdyu2ifJCL0ysnYe9FM1yv+iRig3QwKUfPXtnACNnJv2PP3CF44+14pNZqi9iu9VDf9e46W/eWLORmncamNzcip240fJqFwK+ULyddlDgpEDPnsDPKuAvFf4M50zkBEic64mRrrHtYf5UOQgE5eMHFwxNeHl4IqlsP9Ro9hm5dGqCpv+Wt3WxsPeHo5Q0nB1cE1amN6IYd0LFTQ3QIdygK4rOHi4sn/Lw84BJUF1H1GiG2Wxd0aOpXPoSxBiMiKYyZ1qh+/foVLto0PyMRybumYdYfwajTqgNejPWXM7RUXDJxdsN0rN7rBL1vD4zvGwyX4hOilCZ513ApwwoGO190qu0F63LUOC9atEhGDLdu3RoxMTEqCruMwg5LgwYNZJYJLXPIv8FgMMiJRuhnTONArVq1ij4pj+iReeE08hyqoFK1xqjjqYPSxf+cvMt7cGLnQvy0vzZ6PROL7o84lzwj2H1HT6dxXDmWA5dGjMnwgGspX09Otb5mzRpp4WQ2hVKfFKyCwsw4Hh4ecop9zobHFJbs2JcGBpjDxj0QYY2bomGjxmjaJBBBPpYwZhDsLUZ7Oa26haMvqjVuggaNmqBZ0yoIC7aFzBsgvsKv6mzc4BbWGA0aNhKfN0FEkA/sjQ1MnXiL8NoyCGeY+uorJp3/XJr069SpI63JFYOiq6V4IJTXs8+O4rBhw+RoCoe4mCv37mdEU5RHWGVzyu9JkyZJyw3zISseZlTbocFRM6Y/5JT2tG6q0bN7D/PTM4d8+/bt8fzzz1fIc1yuRunZW2nVqpUUxEx5dPjw4aJPKgKqYnuQlNezzwk3GCVMF4qQkBAlih8CaAygtYazDzLVG2elqmi+xop/gmo7NDhyxhikdu3a/adRGcWt4UyfrH/efvtt2UGviDFf5c59lYEqTG20YMECrFy5Uk5soFA8jDDgbuHChTKvLacM/qe+qoryDWcGpH8xrTelPiOVQlEG4UyWDEzlzJsVKwap7MDZ8Dg1PY2UHL2nP3dFo9zdOewFtmjRQubyZO+Q/pUKxcMGA+44pEXob8/nQfFwQasNJwFh5+jUqVNFSxWKhw/Oisscu3wOOL0660TF/YOTfgwdOlSOVv76668yR3tFolx2qTiE+MYbb8gE90yYf/ToUTk3ukLxMMDZh5YsWYLvvvsOnTt3lhkOFA8fnPSIwZa8H5iVhDEYCsXDCDMlTJ48WWZpYRCyCkC+vzCgsXHjxnjxxRelkYbnnlPal6OQtdtSrrJSaHCIhEFGfKWP3caNGxEbG3vXuUAVivIM/Yq//PJLGXXdt29flbf4IYY+5awHGYnPOpFFoXiYoDvl5s2b8corr0iXMrpRMChVcf9hTnWe/23btmH9+vXSvYLZK8o75VIYa7AR4BAKhTFTF2l5QRWKisr06dPl0DldJ0aOHCktJIqHF053y47R4sWLZRAM7wtOg6tQPCww+8SUKVNkjnAGIVeuXLnoE0VpwJErWpD/+OMPmUOa57+810HlVhjTZM+eCR8GBp6sWLECmZmZ0jGcifQViooE721aBX/44QeZaJ1pcqKiouRnfBYqTtpCxd2iXXfeDww4ooGAs37R91iNnikeBq5cuYI5c+bIdJWjRo2SOb3VvV96sA6idV6LcdmwYYN06eKkKuV5JLPcCmNNCPACcLpVulTQz+7atWtyZjxOnarEgqIiwHuaFc57770nO30cLmzevHnRp38+C4qHC+26s3EKCwuTWXo4pOnn5yetNip1n6Iiw9HiqVOnyiF83v8DBw5UoriUYR3E+od6iwF5DMbjHBPHjh2Twpg5jsvjNSnXrhQaNOMzbyF7jwxK2rRpk5xhisOMCkV5hrM90qf43Xfflf5cr7/+ugy4Uig02Dhx9IwNEQPxZs6cKX39lEuFoqJCv1YK4g8++EDe5++//z5sbGyUkeABoJ1zvj7yyCNyBIv5jZkYgTMPchS/vInjCiGMNdhrZM9l586dstfCB4aWE/WwKMoLxd0iOO0vH0/OaMf0Q5zhjve4up8VJcEGiPUfrTX096tataqsA4vfUwpFRYB+xf3795fTq9OtjKPG6h4vG3DEip10Wo8ZJJ6Wlib9kMvThCsVShizUfD395dDiJzPm40Drcj0Q1az4CjKA6zcaQ2hW9DHH38sXYToN/fcc88hMjJSfq6EjqIkeE9wwg+OlDHHO6fHpVh2cXEpWkOhKP9s2bJFTofO+5vimKPFanKjsgOtw9RhnHiKI1jsqCckJEh9Vl7y7VcoYUzBwPyFDEri69KlS2XPksvZQHCoRT1AirIK71NW9hwiZPYJ+hV36tQJgwcPltY/DSWKFSXB+4cuFbxXrl69Ku8fZuvR6kOForyzf/9+zJgxQ97bY8aMkaKYgktRtmAbRc3VpEkTGRDM2AcKZMaEMXMY66Oy3I5VKGGsnWi+csiZM+QxWvunn36S7hV0q6BFRYljRVmDoubs2bP45JNP8PXXX0u/+c8++wxPPPGEnNBGobgTxRsazojH0TJO18oZwVq2bKmC8RTlFk7gRdcyimGKY7qVPfbYY6rDV8Zhp6Vp06YICgqSlv4PP/xQtnV0t6AvclmlQgnjm2EEf3R0tAxa4sM0bdo0HDlyRE4ZSYGsUJQFmH+WFmJGVSclJaFHjx4YPXq09J9T1hDFv4X1HjtYHIFgo0RjQVlujBSKW8HOHX2JmYmCuYoff/xxVTeWIzw8PGS2ML4ytS4z6ND3mHNPsI4iFMxlxYpcoYUxTzJ7lHT8pkhmhD/nUqd7BQUIzfoqclvxoOAwNysIimIKF2dnZ3Tt2hWPPvqo7FErC5/iv0BfP/r0seHhUCanzmfOUTUBgqK8QKMBJ69h9gm25xTEnNlOxQyVHyh4OUrPkU9t8g9eV+owJkngaADrqbI0Y16FFsZE64VQHNPXjj3OAwcOYMeOHXJ+db6nQGbvk1OrKhT3G7r30N/q119/xdy5c6VgiYiIkBbjzp07q0pfcU9g3cd6jZZjRojTcnz8+HG5jI2UmjZXUZZh/nZm5OGkRocPH5YzfXbr1k2lYS1nFLcCM86LlmOmcTt9+rS8vrzO+fn5sj7SjJkPGiNReRqK/n5ooO8dHfjpw8mLQDHSs2dPOcU0L44mphWKe4V2T3GkghknmJs4Li4OzZo1kxknmHdbobifMMc767wTJ07IvK/MdcwE/ApFWSM3N1dO3jF58mRpuJowYYLMkatG0SoONErStZXXmCOndPNilhGOmtI49CB12EMpjAmjtilS6O+yYMECKVI6dOggh7EbN24sH0aF4l5BHzneZ4sWLZIdM95rDKyjHzHvtbI0jKSomNAqs3v3bvz8888yIJl13YsvviitNwpFWYEjaB999JGMC2LnjTEXISEhala7CgjrJI6gsn2kOObEIBy5b9OmjayfaKx8EDy0wliDqUS2bt0qffCYc4+FgXmccrdhw4YP7MIoyj8pKSkylzYfdmZF4RA2Az+ZTqtu3boyP7FCUZrQn4/D0vPmzZM+fsxxzIwVTAuoBTM9SEuN4uGFMRd0L1u9erV8z/uSRfnEV3wokDmStWvXLtlmJiYmSmMRDUccTW3UqFGpZhN76IWxRlZWlnQEnz9/vgzQo4M4LSm1a9eWvVWKZZU2S3EnMjMz5UOdnJws/dgpPvieuRvZ2YqNjZX+7grFgyQnJ0cGfXIiEDZKHCXj/ckocWWZU5QmdJvgkDrbX4piSpI+ffrgySefLFpD8TDBOAjOQbFp0yY5ukpxTDcavnKyNuZHvt8iWQnjEuBDSof/2bNny/c1a9ZE69atpT8oBTP9kHlhVLCeglBYsDCIgMN/HBJiBc/3TBf41FNPST92haKscejQIel3TJHcu3dv6e9OYwAtyyrfu+J+wnuMQaEcRmfudhoS2M4OGDBAiiDFww3TubEdnTNnDjZv3ixn0mNGEt4jAQEBMpCPGux+1FNKGJcAncL5wNKKzGFwBkvR1YKmforjjh07yqTVvDiKhxta3jiJAn3VFy5cKO+ZmJgYOfzDCWY4NSYtcCoDgKIswuqfQ9gcvmRAKCeZoXXmhRdekJlSFIr7xfbt2+XUzmxj2a7269dPTntPlx7VKVMQpnVjod85U5quWbNGZtepU6cO2rdvL33QmeXiXqOE8R3gFL2ccYeieO/evXKInEF7eXl50tWiRo0aMg0c/UY1Hz1FxYZpZmjloD8UgzYZyElXGxbO8ENBwbyMPj4+Rd9QKMo2dAFiGsuNGzdKIwDvaXbs6HvMiUEUinsB5QbjLRiEzPuNObbZhlLgsB1VglhREhxdoO6iQOZ9k5CQIN/TgMk4CY7MUiyz7b0XRigljP8BvAhaMBWHzCmaeVFY6PtCocxXFookbUYXRfnm8uXL8iFkp4gPJH2gtGV8fOiDzil4GaypxLCiPMP7mv59nFSBI2ecqYqChaMgrN+UcFH8G9jxYuwO3SVoKaaxiXUlBTGLyk2s+CdQf1GH0TjFUS5qMMaA0f+Y7TGD3Fm47N/UWUoY/0t42uhiQQdxmvY5YQN9XuiPzN4LC038vCgUyBxO56uK9i7b0FeYwSAs7KVSKDBrCR9AVuh8CDlDHV0lWOrXry/dJRSKigSfg++++076H9N6zJRZtB5THHMWUZVeUHEnWH9yZJX3D+tPWokpjNlO0lWHcRdlYTIHRfmGcRLUYgzeZMYddrKY8YmFoxEcxdX0F8vd5MJWwvg/wMaDDz65ePGiHILkg0+xHB8fLysA+utRLLPQf0pltii7UAzzwWKuV2aT4PWklYO9UV5HDtXwlUPLfLjY6eGrCsJUVERYt3F2UPr2Mfcxrcj0BX3mmWdknlHWbwrFrWDqU8ZeMDUg28UmTZrIbBO8h2ggolhRhiLFf4UjW9RilLKsr2jIohGLFmXNmswRL6ZIZaHb651Qwvgewp4xLwwLh9xpRabFke9ZSaSnp8PPz09G3DItEi8QLTBM5aUofegrTCGsFYpgDvlx+JgdGFqG6RbD68T3LHzIVDorxcMEE/DTt4/ihj71fFb4nNCCTIHMKaeVwFFosCPFzDw0LFCw0GpHowKHuJmqUnWoFPcT6jAaKqm7KIwZH8YAY7pCcjnhPalpMBZmvCiOEsb3Efqg8qJohX5VFMcchuQQEoP1+EohxgtDIUbhxcK0cGr2vf8OrcDsnBQvzI3Ih4QPELNIsPC6UPBqAXRaoZuEyiihUBQOjTPGYtmyZVIkc9pW1lEUO2xoOBmSytTzcMK4C3aemOqUBiHWrTT4UHwwgxNH2hSKBwEncWOHnvcnO/XUYeycUX+x8G9qL02HUXspYVzK8AIxowEzXLDQP4YNDi8GrcnMZqAVBidQqFGwccie5ea/H+ZgGJ43WiQ0lxbtb63Q0kXLPQt7jtrffDAomGkNposLLV5s2PmqOiMKxZ2hNYaTIdHFglYYdiLpc08RxAAYdiYpjNToSsWE9SdHDSiAOfLG4WumraQxiB0k+g8z5yw7TwpFWYJJE+jzrmmwgwcPSl3AeoudfM60qIRxKcPTTUHHV63QmszeDHvdWqFgZqVDYcwLxQhL9mi0rBda4ecPY+VDIUz3FFbEWsYI7W8up1sEZ5yj/xGH8FhYYbNo7x0dHeW1oI8wh4K1olAobo9Wj7FjzvRJnMqXw+esxzg0yRkeme6N6ZOUD37FgyMGvN4cPaDrBDtEzCtL/2Fec1WfKsoqmu5i/UXYyaNm0NzE+KqEcRmAF4hD+SxMCaf9zSF/Wjo5gxqtnzcX9nyY/JrCmBZnimT6wXI4QCvae77ea2iVpeX6XsNjp0+QVmiRKv6eNzE7DRS9PHYWRqIWL1zGY2YvkEMltF6x8G8WFVWvUNwbWA9ozyk79BxOZ2HnlB16RofTmszhdD6bivIHXdC0wHJahzmxEetWzU+TIwa81k5OTmqUQFEu4Ux7LNQfShiXcVJSUmSlRCHIQpGsvfIzvnJIi9Ayo1k/b/6baUooFikKNTcMzS1D+/tWy25+z21RzHMWGm6TwYTcLnteLJpbA1+Ll5uX3fye3+Wx0eeXn/HWZOFvaa9a0Y6HVl+tMI2U9kqfIXYIHmZXE4WitOFzTB9TzU2MIzjswLLeYGdUC8CiLzL991lvKMoeFAgnT56UnRsWup9xGete1s0UwkxHSvczBpArFBUJJYwrAKywaEUtXjTLqlZofSb0/dPELUtxsav9fbvP2bhRaNNaPXv2bClOmQKFDR0rTFqwaU24WfBqgll7f/Pf2jr8Lv18KWppAWcp/nfxZQqFomxDNzFaGTds2CD9+lh/sK5gZ5puTXxlR7b4aI4afi9d2HHRRirZlrBuZ+dGC1ii9Z/XhSKYKddo/VcTGSkqMkoYPyTQqsyhTlqZKT5ZKGJpndXmIy/+np/f/BkLRSwDb+iwrlkQ2KixkWPwICtQNn4sjPikEC9ebl7G91xX+5t+0xxuVZZehaJiQQFGkbx582aZY5RWZdYf9EllOi9tYiTWAeyEK+4/PP/svPBacKpmukvQZ5iueZoLDCcxYg5+1vMKxcOAEsYPEbzUtOqyMry58LOSlrMU/0z7mxbod955B6tWrZKWXlp5Bw0ahG7dukmBTAuE5s5xq1Lc5UMr98NnWaFQlA3Y2WaHmtZJuk3RMskhexYKNA7b0xrJYXoW+rCy0J9V8d/hxFO0BNPNhcYNBhvRQszAbho36OaipamkOKYYpqGCxgtFxSE3/SjWvt4Bx6InoGrLLmj5XwdgM07hyoFVaLfAHUN61UPP6v8mpikHeem7Ma/9EFxo/woi+3VHM6eij0oZJYwV/xoGYXzxxRcybROtybT6cKpPimOV9kyhUNwJjmRpKRT5SmFMocbONjvgtDLzb7psMbiL1mSKOK3QpUq5XvwVnjdm6aELnZathxl66F7HTgmNDxyRoyGCLnI8h+yMMEUojRoUxcpiX06gervp9qeiu9MjkZ9zCadWz8BlrzZwDQpD8G1d/Q3in5H8mRJ+rpBrB3B+62x4fOGHiSPbYkQj36IPCvn7PjF+iFlLit5qZK/Ax7ZtEN/3MzR8exAecy9aXhJ6sVHjv27gbo791gfxJ0oYK/4TFMeTJk2S8+DTCkQrz3PPPYdevXrJCGWFQqH4J1DQ0aKp+bhqqSvpbsX4AloyWbTJkCiQ6cJFV6ybC79T0dyytFgOFlrgWdjB4CtH6iiGKYK1CY3o+kZxzPXZuaBfd/HZV3kuFeUYw3VcOrgNB01C4enuiVDHkjo1ebh2ZBMO57vD3C0Q0S4GXE88gWwrH1jZieckMwXH9+lhVSkeqdmpOJekg6noNPmHPwIvV2tY3ci4mIaLR0/g1PFEpJpbQO8ShsgqHvBCHC78Pgf+3/pi4rB2GFDXGNdOH0OyZTT8nCxgI3YpPzsFKacOIMslCg6OdrAv2s2M+K04nnAN5y0tYLC6giP1e+Fy388R/X/Po6s0PF9H4r44nEm8hOs6a9GhC0JkPU+42+igz7qMC8d247BFOAK8PVG5JG8fQwEKrsRhT5wR8u08EVXdEXca/1DCWPGfYd7lsWPH3hDHzLs8YMAAaT1mg6VQKBT/BQpjDvszEIximS4YfOXkErRuUvDR0knLJwtdLzQLMwtFsiaQNQszX4v/XdLr/UZrfkt6vXkZLcG0plP00gJMsctZvbTJi2h1p6sEOwO0/DJbBLOA8JUimC4SzNqjqADo85CbZ4CxuRFST67Dytfa4SXXj/Fsj96Y2MChaJ185OXrYdAZkJcej40jYzA87ykEdH8NvzW7hAXPRmB/wx9Rt2M7xJydg2frJSOg93QcFuv+tqBwEz0nbcLAnvVRT9q4CoBra/H94PH4eMZa7De1BGJex8Rx/TCibiourp0Fvym++PjVnnjCaio2zhyBb4MP4s02gajpJr4avwxLRrTD0W6/o3nLBmjsakBBzkmserUVxn8fjw1OYbB8ojtefO8d2A6ZjOoj+6GLa5boKS/BxF7v4Ju1+3ECvH/7YcLKgejX0gcWp1dg4eh2eKHSZ3ih+2MY38hRdAALoDM1h4mu0MqNfNFpXDsQnQYBV4I6YvpvsQjMyYWJkQmMmXGrhDTrShgr7gmsnN9++23MmTNH5lhmo0RhTOsx8wnzNiutxkahUFQ8GBCsZa7hKwOBaQWlKKRI1CylLFrucy3YmKNXrIe0ok2/z+VaikcW+tPSDYyFbgb3E+4XXRu0TBAsWhpOLU2nZvHVjoefU/hy3+kCwWPRsvbQcs5OAP+mQULLJsRCH+H7fTyK+wuVWmETWoCCNUPw6NiF+GWTJarWiMWwr59BlL83Au2s4WBZpPR2j8Oo8TMxYX6muDdaYejX/dGgVjWEulrDNvMwFr9YAwcazBLCOBb1zk7CczFv41K/NxD7TC+01+3Aju8649Urr+PRXgMwsaMbDNiHX2v/D/HRdeA5sDOiDImIm90CK1zfQPXqrdHTMAceX/vgo9EUxtOw8YdXMDX4AN5oE4CalYDU+OVY8kpbIYw3oWX7+miQvxM7f+yG7iti0S72UYxoZYHUnT+j3eMfI/ylaRg1ri+a5q/BnHqPYV+rsQh94mnU123D3mmd8GbWcLTq/hw+bueJjOSTyE36HeMm/YzPZqyDayVXPD1lH15u7wofni+D6BxkXsGVvAs4MPMnLB/5MX4Qajip+wT830vPYFy0ReH5KoYSxor/RHHBy6HPyZMn44cffpDBebRaPPvss9KtgimaFAqF4l5DP2QttzsLBWbxSZC03OgU03RDYKGo1v5m4Ta0Vy3IWEtPqYlLFi6jj25xP13Wf1odyO9p39e2yVI8JWVxcc/vadsq/qr9rf2eJnIZDEd/axZtIiMWTdhT5CsDREUlFWfXLMSGr5fhdNvOcDTJhXmmDjauoajbKRr+Mm49E1eP/Y61r03F8YatYeFkJURwPnQW/qjTuSGqFs2vk3P9IJa+HI2DDWaiTocOqHt2Mp6v/xWs3v0WfYY3QiPTK8hc0g9VZkSjWezj+K6XEMan5qLtEycQ3ac7RrxYU9pu8+ImY3t+XdiJ+9MrcR58vikSxtbf4fdZozA9aA/GtA5AFIXx6RVYOrINjnXdglYd6yH60mIseS8W3wYsQ9+ebdDdT2zwzCIM6vMoslpPxmO9u6PO2SloXW8N2v74KQb2DJK/ieMD8dgTNnBpHos3x9eDjBvMP4uD2/Zhw8HzsBT9P4e8tdiQWgu2wZ3wWpdAWHIdrpa8H3sWbsVhsb9wKMCxg9eRmGiPp9/pi0fcdNA8MXRjOQauUPxLilfC9FXjECYbBkaY04JDNwtW8Ix4VrNeKRSKew3FqZWVlbT+0mLKTjh9Z2vUqCEDgpl7t3bt2jL+QUsrSesqrcask+hmQfFJMUsBq2XOoMhmB59Fs97ScsvCuk0rWnBb8VfNgl28aJZsWoPpC8zf4r5TfNNCTVGrBcLR7SEsLAxRUVGoV6+ePIa2bdvKabZ5TMwpTD9huq3xWPhdHocSxRWZTKQc3I5Dy3ciKaoFAj2d4OssOkPOrnD3cYK1vPQ5yEiOw4EfVyIhJAbufr4IdrGFnYMrPP1chYCVG0JBzkUcX/oNLvp2hXdIILxT47B4qjmin22GWtVd4ZSXCdOs65i8xw7+IUGIDStAxrb5GHE+BOExYegcUuiSo3OtBV83d7hZXcL1M4fw6W57tG4YgQizvUg4sBp7nV5AoyBHeAjFmZN6CifW/YArVfohqKo3HJO2Yss3i+HW7Q3UCXOGuxC0+dYWsNg5GdmV28HV3RceZ1Zh6Dw9rL0yxL19HvG7d+DY6VRsm3oRNj5eCO1aBR5yT/KQLToA+TpLONnbwjxlDXacd0CWbQRa13DBjbGS/Cyxnh5Goq5wtUrHmaPncfCkAdHt68LXTjyLRaspi7HinkNfN2armDJlimxcWNnTavz6669Lq4ZCoVCUdWjxpYDVAtzotqFZfDWLM40AWqEo1Ypm+dUsvcVztbPQ8ktRrFDcNVRqUvxmIWfZQMS+tgAr91jCN/RxvDn/VTTzd4S3hbjvtFjTbWMw8J3vMGlpBmzsO+KNBW+gQ50ghAiRWpB2EEte0izGbVAnYQ6eq38ebRY9gXbtA+CWcwnYNwWhX9mjcdv2mNzFgKQ5IxC9qCGe6tURE2MDi36kiLTDuLBtLvw1H+MSLMbSx3hYO5x4bDvaPvoIArd/hi8bDkPOdwfQuUsYatkKeZt1DMteron90ZMQ3TwWdU+OQ2Dvb3H1ShrMzUzlKYCRMfJyaqHLsCEY+m43PFJwFebnFuOVcVPw4Q+bYGltg/7fx2FQrDcC2REQEteQn4MC02TsnzoVs/qNwxTuco+PMGRwf3xS7+8ZtNSTqbjn0CIzfPhwDBw4UIpiWkpmzpyJV199VVpSiOqPKRSKsgzFLS25HAmjFZfWZgax0VrLyS9ouaU1lxNgNGzY8MZkGDExMfIzrsN1tcA3boPb4jaVKFb8Y24MBljCvNmH+HH5YSRf2oO1sxvD7P3KiHl9Mt7cfq1oHUH0SLw7YxcSz8fh8N4hCJ3bCE8MfwWPrbgEM9NCF6C/woDPQv1dHNnpM7WCq3c18dPWMJQ0KKEzkt8tDjdvIlR6YUa1TOSnX8SlFUL8XtPzU5g5VYJnawOsHMU6Rd810pnCwsQIJnw88rKh11nhepMPMG7Jbpy9dBan408jPiEJKanL8fNHnRF2YTUWDfCF1+RrMPT6DumXknHi2FG83d4T/kXWcRSITu2GoegSNR4DfolAj2sXcDjxHM59+RzG1io5OYB6OhX3BQri/v3746WXXpLR4gwgmTt3LsaPHy/TL6khP4VCUdZhPUURS5Fc3AqsWYJvV7T1NH9hbkfVe4p7grkDnCu5w92lEgJrxKBxv08xoXtjxAZYFa0gMLWDvbMbPN3c4eMfjrp9JuD1J7rhhUhb6AuECC5arRC+u1kSF2GgkDWHiasbwjbsgCHuEi4WfoLstU/ilRnT8e7aK7CSYptLxTOjz0PatetYs+skLkkLdhryTu7B51lAUr7Q0QWArZM/ajQMw8/rj2D7Wa6jh8mJ5Ri/MgvbEwAzN1dY+Pui2+9TYHSFqdYqwcPTA545v2DiK3Px4bSjyPSPQM2nP8X7Pdqid71AWLu4S3cqewvxzGrHYyyexSpPYMCrT+H/hjdGuH0leHt6wcvJBvamQtAXrvUXlI+x4r7BoBCKYjYMnNmKfnYM0GMPlH6AjKxWKBQKhULxL6CqM7KCvX9NRPoIwWcj5KBY9vf+lw7W3pGo6ueNQFsT5GSdx5FfJiHJpwu8qwTD5+o+zJ2aisDHqiO0ihNs8zOEgt2GCVvM4VO5MrrW8BICswA2+/bh+MXTWHsuCYm7f8evqxZhl2kUgn08UctwFO9usUXLmFDUD85DatJJrJ1xDOkX43EhPRGbjp/BiQO74NWyL6pX8YWPvRmsLYywfNlaJB3djcsXz2DbvgT8sW8DHGq0RURMbYQ7AR77fsOBUynYfPQKzuxdgTXfz8UvByvBKTwMzWv7w7tyTVT3doabhTgdfzn2oj+MjGFs54fgMF+EVraBqTxnhR+Rv50qgbIYK+4rdKvo168fBg8eLFMLMahl6tSpMrUbA1WUS4VCoVAoFP+CElTd3QxKGOvMYONRGc4OtrAyEcLR0h6ePs6wtzGFTG5hpAMsnVHZ3QHutjrohVQ0co5Bty/awsVqJyYPeRqvjHkHH14ZhafaPYPRLb2RZ+aEQA872BrnQmfdHLW7vIXROZvwx4ej0H/KRvxkUhsfdPdCtLcFjPLFb5i4wb7Os3i/5nEYVryHl8b8gHEnamLEC5URW88GENocVlFoMPszBOXvxYbXnsTLr36Etxb64fH3nsLol6rgZtPaXQ3I3MU6KvhOUSowZdK8efOkIGZSevrZ0S9v4sSJ0gdPoVAoFApFKWDQIz87AwUmFtDR1Uefj+wMPUys6PojRDBN0QW5SM8zgonOBBbaLBgG5g5nukGhbOk8LL5vaW4GM50ehvw8sb4xzM1MxHvxmSEfuemZyNWL3zIxk79jqc+G3tS60DVJClRO8pGBnFyxrsEUxqZmsDTOhkEnxLOxadHkGwXIzcxCbl6++IsLxP5YW8CUgp4f3weUMFaUGkxTRD9jTiF98OBBGZndqlUrvPzyy2jWrFnRWgqFQqFQKB4IJftiSCgW78Lgehcr3s2W7vrX7jnKx1hRajBNUWBgoHxlSje6UnCKV87zzzRu9EdW0doKhUKhUDwgbuOPcNcy9Y4r3s2WHowoJkoYK0oVimIm36e/8R9//CFnpzp8+LAUyUyHxKT7jOhWKBQKhUKhKG2UK4XigcDE+Rs3bsTQoUNx9OhRmdaIgvmjjz6SvsdMiK9QKBQKhUJRmiiLseKBQKuwl5eXdK3gBCBM58YpV/fv3y+naaVIpoO+QqFQKBQKRWmhhLHigUErMfMZc57/1NRUHD9+HOfPn5ez49HXOCQkRFmOFQqFQqFQlBpKGCseKLQKh4aGSuvx6dOncfHiRflKkczpU729vWFlVWw2H4VCoVAoFIr7hPIxVpQJ8vPzZRAefY43bdqE3NxcaUn+5JNP0KFDBxmUp1AoFAqFQnE/URZjRZmArhNOTk6oWbOmdKtgnuOsrCwZoEeLMd0qmPdYoVAoFAqF4n7AZABKGCvKDHSrcHd3l24V/DsuLk6mc6NbRUFBgUznxhnzFAqFQqFQKO4VHKVes2YNPv30UyWMFWUP+hUzKI+WY+Y3ZjAeRbKFhYWcBMTe3r5oTYVCoVAoFIr/xrZt2/D5559j3rx5ShgryiYMvGvQoAHi4+OlOL506RK2bNki/Y6VOFYoFAqFQnGv+Oabb7B06VKkpaUpYawou9C3uEmTJnLKaE4dTbcK9uoIxbEKyFMoFAqFQvFfiYiIkBqDLhVKGCvKNHSfYDo3Bt5RHKekpMjX7Oxs+Pr6yqmlCZOrGN1mjneFQqFQKBSKkqDGoKaoU6eOEsaKsg/dJhh4p9frcebMGSQnJ8vIUaZ4q1y5MlxcXJQoVigUCoVC8a+hlggICMD/A4VOLp1DO7ENAAAAAElFTkSuQmCC;strokeColor=#000000;" vertex="1" parent="1">
          <mxGeometry x="315" y="-470" width="710" height="344" as="geometry" />
        </mxCell>
        <mxCell id="rrwGV6cK5PJjWv3YBZSC-3" value="Выбор погоды" style="rounded=1;whiteSpace=wrap;html=1;arcSize=24;fillColor=#FFFBF5;strokeColor=#000000;shadow=0;comic=0;labelBackgroundColor=none;fontFamily=Verdana;fontSize=12;fontColor=#000000;align=center;" vertex="1" parent="1">
          <mxGeometry x="410" y="360" width="110" height="60" as="geometry" />
        </mxCell>
        <mxCell id="rrwGV6cK5PJjWv3YBZSC-6" style="edgeStyle=orthogonalEdgeStyle;shape=connector;rounded=1;orthogonalLoop=1;jettySize=auto;html=1;strokeColor=#000000;align=left;verticalAlign=middle;fontFamily=Verdana;fontSize=12;fontColor=#000000;labelBackgroundColor=none;endArrow=open;endSize=8;" edge="1" parent="1" source="rrwGV6cK5PJjWv3YBZSC-4" target="rrwGV6cK5PJjWv3YBZSC-3">
          <mxGeometry relative="1" as="geometry" />
        </mxCell>
        <mxCell id="rrwGV6cK5PJjWv3YBZSC-9" style="edgeStyle=orthogonalEdgeStyle;shape=connector;rounded=1;orthogonalLoop=1;jettySize=auto;html=1;exitX=1;exitY=0.5;exitDx=0;exitDy=0;entryX=0.414;entryY=0.806;entryDx=0;entryDy=0;entryPerimeter=0;strokeColor=#000000;align=left;verticalAlign=middle;fontFamily=Verdana;fontSize=12;fontColor=#000000;labelBackgroundColor=none;endArrow=open;endSize=8;" edge="1" parent="1" source="rrwGV6cK5PJjWv3YBZSC-3" target="rrwGV6cK5PJjWv3YBZSC-2">
          <mxGeometry relative="1" as="geometry" />
        </mxCell>
        <mxCell id="rrwGV6cK5PJjWv3YBZSC-22" value="" style="rhombus;rounded=1;shadow=0;comic=0;strokeColor=#000000;align=center;verticalAlign=middle;arcSize=24;fontFamily=Verdana;fontSize=12;fontColor=#000000;labelBackgroundColor=none;fillColor=#FFFBF5;" vertex="1" parent="1">
          <mxGeometry x="760" y="460" width="35" height="30" as="geometry" />
        </mxCell>
        <mxCell id="rrwGV6cK5PJjWv3YBZSC-24" style="edgeStyle=orthogonalEdgeStyle;shape=connector;rounded=1;orthogonalLoop=1;jettySize=auto;html=1;strokeColor=#000000;align=left;verticalAlign=middle;fontFamily=Verdana;fontSize=12;fontColor=#000000;labelBackgroundColor=none;endArrow=open;endSize=8;exitX=1.042;exitY=0.501;exitDx=0;exitDy=0;exitPerimeter=0;entryX=0.497;entryY=0.127;entryDx=0;entryDy=0;entryPerimeter=0;" edge="1" parent="1" source="rrwGV6cK5PJjWv3YBZSC-17" target="rrwGV6cK5PJjWv3YBZSC-22">
          <mxGeometry relative="1" as="geometry" />
        </mxCell>
        <mxCell id="rrwGV6cK5PJjWv3YBZSC-26" value="[Локация задана]" style="edgeLabel;html=1;align=center;verticalAlign=middle;resizable=0;points=[];rounded=1;shadow=0;comic=0;strokeColor=#000000;arcSize=24;fontFamily=Verdana;fontSize=12;fontColor=#000000;labelBackgroundColor=none;fillColor=#FFFBF5;" vertex="1" connectable="0" parent="rrwGV6cK5PJjWv3YBZSC-24">
          <mxGeometry x="0.2659" relative="1" as="geometry">
            <mxPoint x="117" y="13" as="offset" />
          </mxGeometry>
        </mxCell>
        <mxCell id="rrwGV6cK5PJjWv3YBZSC-27" value="" style="html=1;points=[];perimeter=orthogonalPerimeter;fillColor=strokeColor;fontFamily=Verdana;fontSize=12;fontColor=default;labelBackgroundColor=none;rotation=90;" vertex="1" parent="1">
          <mxGeometry x="740.12" y="520" width="5" height="237.25" as="geometry" />
        </mxCell>
        <mxCell id="rrwGV6cK5PJjWv3YBZSC-28" style="edgeStyle=orthogonalEdgeStyle;shape=connector;rounded=1;orthogonalLoop=1;jettySize=auto;html=1;exitX=1;exitY=0.5;exitDx=0;exitDy=0;entryX=-0.298;entryY=0.019;entryDx=0;entryDy=0;entryPerimeter=0;strokeColor=#000000;align=left;verticalAlign=middle;fontFamily=Verdana;fontSize=12;fontColor=#000000;labelBackgroundColor=none;endArrow=open;endSize=8;" edge="1" parent="1" source="rrwGV6cK5PJjWv3YBZSC-22" target="rrwGV6cK5PJjWv3YBZSC-27">
          <mxGeometry relative="1" as="geometry">
            <Array as="points">
              <mxPoint x="857" y="475" />
              <mxPoint x="857" y="560" />
            </Array>
          </mxGeometry>
        </mxCell>
        <mxCell id="rrwGV6cK5PJjWv3YBZSC-30" style="edgeStyle=orthogonalEdgeStyle;shape=connector;rounded=1;orthogonalLoop=1;jettySize=auto;html=1;exitX=0.5;exitY=1;exitDx=0;exitDy=0;entryX=0.534;entryY=0.025;entryDx=0;entryDy=0;entryPerimeter=0;strokeColor=#000000;align=left;verticalAlign=middle;fontFamily=Verdana;fontSize=12;fontColor=#000000;labelBackgroundColor=none;endArrow=open;endSize=8;" edge="1" parent="1" source="rrwGV6cK5PJjWv3YBZSC-22" target="rrwGV6cK5PJjWv3YBZSC-29">
          <mxGeometry relative="1" as="geometry" />
        </mxCell>
        <mxCell id="rrwGV6cK5PJjWv3YBZSC-31" value="[else]" style="edgeLabel;html=1;align=center;verticalAlign=middle;resizable=0;points=[];rounded=1;shadow=0;comic=0;strokeColor=#000000;arcSize=24;fontFamily=Verdana;fontSize=12;fontColor=#000000;labelBackgroundColor=none;fillColor=#FFFBF5;" vertex="1" connectable="0" parent="rrwGV6cK5PJjWv3YBZSC-30">
          <mxGeometry x="-0.5174" y="1" relative="1" as="geometry">
            <mxPoint x="30" as="offset" />
          </mxGeometry>
        </mxCell>
        <mxCell id="rrwGV6cK5PJjWv3YBZSC-32" value="Установка значение по умолчанию для погоды" style="rounded=1;whiteSpace=wrap;html=1;arcSize=24;fillColor=#FFFBF5;strokeColor=#000000;shadow=0;comic=0;labelBackgroundColor=none;fontFamily=Verdana;fontSize=12;fontColor=#000000;align=center;" vertex="1" parent="1">
          <mxGeometry x="562.5" y="530" width="110" height="60" as="geometry" />
        </mxCell>
        <mxCell id="rrwGV6cK5PJjWv3YBZSC-37" style="edgeStyle=orthogonalEdgeStyle;shape=connector;rounded=1;orthogonalLoop=1;jettySize=auto;html=1;entryX=0.5;entryY=0;entryDx=0;entryDy=0;strokeColor=#000000;align=left;verticalAlign=middle;fontFamily=Verdana;fontSize=12;fontColor=#000000;labelBackgroundColor=none;endArrow=open;endSize=8;" edge="1" parent="1" source="rrwGV6cK5PJjWv3YBZSC-33" target="rrwGV6cK5PJjWv3YBZSC-32">
          <mxGeometry relative="1" as="geometry" />
        </mxCell>
        <mxCell id="rrwGV6cK5PJjWv3YBZSC-34" style="edgeStyle=orthogonalEdgeStyle;shape=connector;rounded=1;orthogonalLoop=1;jettySize=auto;html=1;exitX=1;exitY=0.5;exitDx=0;exitDy=0;entryX=-0.277;entryY=0.695;entryDx=0;entryDy=0;entryPerimeter=0;strokeColor=#000000;align=left;verticalAlign=middle;fontFamily=Verdana;fontSize=12;fontColor=#000000;labelBackgroundColor=none;endArrow=open;endSize=8;" edge="1" parent="1" source="rrwGV6cK5PJjWv3YBZSC-33" target="rrwGV6cK5PJjWv3YBZSC-27">
          <mxGeometry relative="1" as="geometry">
            <mxPoint x="697" y="568" as="targetPoint" />
            <Array as="points">
              <mxPoint x="696" y="475" />
            </Array>
          </mxGeometry>
        </mxCell>
        <mxCell id="rrwGV6cK5PJjWv3YBZSC-38" value="[погода &lt;br&gt;задана]" style="edgeLabel;html=1;align=center;verticalAlign=middle;resizable=0;points=[];rounded=1;shadow=0;comic=0;strokeColor=#000000;arcSize=24;fontFamily=Verdana;fontSize=12;fontColor=#000000;labelBackgroundColor=none;fillColor=#FFFBF5;" vertex="1" connectable="0" parent="1">
          <mxGeometry x="669.999992698334" y="490" as="geometry">
            <mxPoint y="4" as="offset" />
          </mxGeometry>
        </mxCell>
        <mxCell id="rrwGV6cK5PJjWv3YBZSC-39" style="edgeStyle=orthogonalEdgeStyle;shape=connector;rounded=1;orthogonalLoop=1;jettySize=auto;html=1;exitX=0.5;exitY=1;exitDx=0;exitDy=0;entryX=0.159;entryY=0.99;entryDx=0;entryDy=0;entryPerimeter=0;strokeColor=#000000;align=left;verticalAlign=middle;fontFamily=Verdana;fontSize=12;fontColor=#000000;labelBackgroundColor=none;endArrow=open;endSize=8;" edge="1" parent="1" source="rrwGV6cK5PJjWv3YBZSC-32" target="rrwGV6cK5PJjWv3YBZSC-27">
          <mxGeometry relative="1" as="geometry">
            <Array as="points">
              <mxPoint x="626" y="570" />
              <mxPoint x="626" y="603" />
            </Array>
          </mxGeometry>
        </mxCell>
        <mxCell id="rrwGV6cK5PJjWv3YBZSC-41" style="edgeStyle=orthogonalEdgeStyle;shape=connector;rounded=1;orthogonalLoop=1;jettySize=auto;html=1;exitX=0.5;exitY=1;exitDx=0;exitDy=0;entryX=0.159;entryY=0.366;entryDx=0;entryDy=0;entryPerimeter=0;strokeColor=#000000;align=left;verticalAlign=middle;fontFamily=Verdana;fontSize=12;fontColor=#000000;labelBackgroundColor=none;endArrow=open;endSize=8;" edge="1" parent="1" source="rrwGV6cK5PJjWv3YBZSC-29" target="rrwGV6cK5PJjWv3YBZSC-27">
          <mxGeometry relative="1" as="geometry" />
        </mxCell>
        <mxCell id="rrwGV6cK5PJjWv3YBZSC-42" style="edgeStyle=orthogonalEdgeStyle;shape=connector;rounded=1;orthogonalLoop=1;jettySize=auto;html=1;entryX=0.614;entryY=0.861;entryDx=0;entryDy=0;entryPerimeter=0;strokeColor=#000000;align=left;verticalAlign=middle;fontFamily=Verdana;fontSize=12;fontColor=#000000;labelBackgroundColor=none;endArrow=open;endSize=8;" edge="1" parent="1" source="rrwGV6cK5PJjWv3YBZSC-27" target="24f968d109e7d6b4-3">
          <mxGeometry relative="1" as="geometry" />
        </mxCell>
        <mxCell id="rrwGV6cK5PJjWv3YBZSC-43" value="" style="ellipse;html=1;shape=endState;fillColor=#000000;strokeColor=#000000;rounded=1;shadow=0;comic=0;labelBackgroundColor=none;fontFamily=Verdana;fontSize=12;fontColor=#000000;align=center;" vertex="1" parent="1">
          <mxGeometry x="557.5" y="710" width="30" height="30" as="geometry" />
        </mxCell>
      </root>
    </mxGraphModel>
  </diagram>
</mxfile>
